<?xml version="1.0" encoding="utf-8" standalone="no"?>
<!DOCTYPE svg PUBLIC "-//W3C//DTD SVG 1.1//EN"
  "http://www.w3.org/Graphics/SVG/1.1/DTD/svg11.dtd">
<svg xmlns:xlink="http://www.w3.org/1999/xlink" width="508.943608pt" height="531.904375pt" viewBox="0 0 508.943608 531.904375" xmlns="http://www.w3.org/2000/svg" version="1.1">
 <metadata>
  <rdf:RDF xmlns:dc="http://purl.org/dc/elements/1.1/" xmlns:cc="http://creativecommons.org/ns#" xmlns:rdf="http://www.w3.org/1999/02/22-rdf-syntax-ns#">
   <cc:Work>
    <dc:type rdf:resource="http://purl.org/dc/dcmitype/StillImage"/>
    <dc:date>2024-05-28T10:27:16.281213</dc:date>
    <dc:format>image/svg+xml</dc:format>
    <dc:creator>
     <cc:Agent>
      <dc:title>Matplotlib v3.9.0, https://matplotlib.org/</dc:title>
     </cc:Agent>
    </dc:creator>
   </cc:Work>
  </rdf:RDF>
 </metadata>
 <defs>
  <style type="text/css">*{stroke-linejoin: round; stroke-linecap: butt}</style>
 </defs>
 <g id="figure_1">
  <g id="patch_1">
   <path d="M 0 531.904375 
L 508.943608 531.904375 
L 508.943608 0 
L 0 0 
z
" style="fill: #ffffff"/>
  </g>
  <g id="axes_1">
   <g id="patch_2">
    <path d="M 53.447656 481.429375 
L 499.847656 481.429375 
L 499.847656 37.909375 
L 53.447656 37.909375 
z
" style="fill: #ffffff"/>
   </g>
   <g id="patch_3">
    <path d="M 73.738565 481.429375 
L 73.738565 481.00989 
L 94.029474 481.00989 
L 94.029474 479.331952 
L 114.320384 479.331952 
L 114.320384 476.815045 
L 134.611293 476.815045 
L 134.611293 457.099269 
L 154.902202 457.099269 
L 154.902202 434.027617 
L 175.193111 434.027617 
L 175.193111 399.629881 
L 195.48402 399.629881 
L 195.48402 348.033278 
L 215.774929 348.033278 
L 215.774929 258.263577 
L 236.065838 258.263577 
L 236.065838 171.849753 
L 256.356747 171.849753 
L 256.356747 86.274899 
L 276.647656 86.274899 
L 276.647656 79.143661 
L 296.938565 79.143661 
L 296.938565 121.931088 
L 317.229474 121.931088 
L 317.229474 257.005124 
L 337.520384 257.005124 
L 337.520384 275.462445 
L 357.811293 275.462445 
L 357.811293 358.100908 
L 378.102202 358.100908 
L 378.102202 433.188648 
L 398.393111 433.188648 
L 398.393111 453.743393 
L 418.68402 453.743393 
L 418.68402 473.039683 
L 438.974929 473.039683 
L 438.974929 477.234529 
L 459.265838 477.234529 
L 459.265838 478.492983 
L 479.556747 478.492983 
L 479.556747 481.429375 
" clip-path="url(#p6173a1606d)" style="opacity: 0.3"/>
   </g>
   <g id="matplotlib.axis_1">
    <g id="xtick_1">
     <g id="line2d_1">
      <defs>
       <path id="m0b65f4144f" d="M 0 0 
L 0 -6 
" style="stroke: #000000; stroke-width: 1.5"/>
      </defs>
      <g>
       <use xlink:href="#m0b65f4144f" x="132.533994" y="481.429375" style="stroke: #000000; stroke-width: 1.5"/>
      </g>
     </g>
     <g id="line2d_2">
      <defs>
       <path id="md589f71ca1" d="M 0 0 
L 0 6 
" style="stroke: #000000; stroke-width: 1.5"/>
      </defs>
      <g>
       <use xlink:href="#md589f71ca1" x="132.533994" y="37.909375" style="stroke: #000000; stroke-width: 1.5"/>
      </g>
     </g>
     <g id="text_1">
      <!-- 4.8 -->
      <g transform="translate(122.110166 495.640312) scale(0.15 -0.15)">
       <defs>
        <path id="HelveticaNeue-Medium-34" d="M 717 1638 
L 2074 1638 
L 2074 3610 
L 2061 3610 
L 717 1638 
z
M 3341 1062 
L 2765 1062 
L 2765 0 
L 2074 0 
L 2074 1062 
L 154 1062 
L 154 1786 
L 2074 4480 
L 2765 4480 
L 2765 1638 
L 3341 1638 
L 3341 1062 
z
" transform="scale(0.015625)"/>
        <path id="HelveticaNeue-Medium-2e" d="M 442 864 
L 1331 864 
L 1331 0 
L 442 0 
L 442 864 
z
" transform="scale(0.015625)"/>
        <path id="HelveticaNeue-Medium-38" d="M 1779 3994 
Q 1485 3994 1280 3818 
Q 1075 3642 1075 3309 
Q 1075 2989 1273 2819 
Q 1472 2650 1779 2650 
Q 2086 2650 2284 2819 
Q 2483 2989 2483 3309 
Q 2483 3642 2278 3818 
Q 2074 3994 1779 3994 
z
M 1779 -90 
Q 1440 -90 1149 6 
Q 858 102 646 284 
Q 435 467 316 729 
Q 198 992 198 1318 
Q 198 1741 419 2029 
Q 640 2317 1018 2413 
L 1018 2426 
Q 710 2541 547 2781 
Q 384 3021 384 3347 
Q 384 3923 745 4246 
Q 1107 4570 1779 4570 
Q 2451 4570 2812 4246 
Q 3174 3923 3174 3347 
Q 3174 3021 3011 2781 
Q 2848 2541 2541 2426 
L 2541 2413 
Q 2918 2317 3139 2029 
Q 3360 1741 3360 1318 
Q 3360 992 3241 729 
Q 3123 467 2912 284 
Q 2701 102 2409 6 
Q 2118 -90 1779 -90 
z
M 1779 486 
Q 2144 486 2387 704 
Q 2630 922 2630 1318 
Q 2630 1690 2387 1898 
Q 2144 2106 1779 2106 
Q 1414 2106 1171 1898 
Q 928 1690 928 1318 
Q 928 922 1171 704 
Q 1414 486 1779 486 
z
" transform="scale(0.015625)"/>
       </defs>
       <use xlink:href="#HelveticaNeue-Medium-34"/>
       <use xlink:href="#HelveticaNeue-Medium-2e" x="55.599991"/>
       <use xlink:href="#HelveticaNeue-Medium-38" x="83.399979"/>
      </g>
     </g>
    </g>
    <g id="xtick_2">
     <g id="line2d_3">
      <g>
       <use xlink:href="#m0b65f4144f" x="222.230441" y="481.429375" style="stroke: #000000; stroke-width: 1.5"/>
      </g>
     </g>
     <g id="line2d_4">
      <g>
       <use xlink:href="#md589f71ca1" x="222.230441" y="37.909375" style="stroke: #000000; stroke-width: 1.5"/>
      </g>
     </g>
     <g id="text_2">
      <!-- 5.0 -->
      <g transform="translate(211.806612 495.640312) scale(0.15 -0.15)">
       <defs>
        <path id="HelveticaNeue-Medium-35" d="M 787 4480 
L 3104 4480 
L 3104 3827 
L 1331 3827 
L 1101 2688 
L 1114 2675 
Q 1261 2842 1488 2928 
Q 1715 3014 1939 3014 
Q 2272 3014 2534 2902 
Q 2797 2790 2976 2588 
Q 3155 2387 3248 2112 
Q 3341 1837 3341 1517 
Q 3341 1248 3254 963 
Q 3168 678 2979 444 
Q 2790 211 2496 60 
Q 2202 -90 1792 -90 
Q 1466 -90 1187 -3 
Q 909 83 697 256 
Q 486 429 361 681 
Q 237 934 224 1274 
L 954 1274 
Q 986 909 1203 713 
Q 1421 518 1779 518 
Q 2010 518 2170 595 
Q 2330 672 2429 806 
Q 2528 941 2569 1120 
Q 2611 1299 2611 1504 
Q 2611 1690 2560 1859 
Q 2509 2029 2406 2157 
Q 2304 2285 2141 2361 
Q 1978 2438 1760 2438 
Q 1530 2438 1328 2352 
Q 1126 2266 1037 2029 
L 307 2029 
L 787 4480 
z
" transform="scale(0.015625)"/>
        <path id="HelveticaNeue-Medium-30" d="M 1779 4570 
Q 2259 4570 2563 4349 
Q 2867 4128 3036 3785 
Q 3206 3443 3267 3033 
Q 3328 2624 3328 2240 
Q 3328 1856 3267 1446 
Q 3206 1037 3036 694 
Q 2867 352 2563 131 
Q 2259 -90 1779 -90 
Q 1299 -90 995 131 
Q 691 352 521 694 
Q 352 1037 291 1446 
Q 230 1856 230 2240 
Q 230 2624 291 3033 
Q 352 3443 521 3785 
Q 691 4128 995 4349 
Q 1299 4570 1779 4570 
z
M 1779 518 
Q 2016 518 2176 656 
Q 2336 794 2429 1027 
Q 2522 1261 2560 1574 
Q 2598 1888 2598 2240 
Q 2598 2592 2560 2902 
Q 2522 3213 2429 3449 
Q 2336 3686 2176 3824 
Q 2016 3962 1779 3962 
Q 1536 3962 1379 3824 
Q 1222 3686 1129 3449 
Q 1037 3213 998 2902 
Q 960 2592 960 2240 
Q 960 1888 998 1574 
Q 1037 1261 1129 1027 
Q 1222 794 1379 656 
Q 1536 518 1779 518 
z
" transform="scale(0.015625)"/>
       </defs>
       <use xlink:href="#HelveticaNeue-Medium-35"/>
       <use xlink:href="#HelveticaNeue-Medium-2e" x="55.599991"/>
       <use xlink:href="#HelveticaNeue-Medium-30" x="83.399979"/>
      </g>
     </g>
    </g>
    <g id="xtick_3">
     <g id="line2d_5">
      <g>
       <use xlink:href="#m0b65f4144f" x="311.926887" y="481.429375" style="stroke: #000000; stroke-width: 1.5"/>
      </g>
     </g>
     <g id="line2d_6">
      <g>
       <use xlink:href="#md589f71ca1" x="311.926887" y="37.909375" style="stroke: #000000; stroke-width: 1.5"/>
      </g>
     </g>
     <g id="text_3">
      <!-- 5.2 -->
      <g transform="translate(301.503059 495.640312) scale(0.15 -0.15)">
       <defs>
        <path id="HelveticaNeue-Medium-32" d="M 3309 0 
L 250 0 
Q 256 557 518 973 
Q 781 1389 1235 1696 
Q 1453 1856 1689 2006 
Q 1926 2157 2124 2329 
Q 2323 2502 2451 2704 
Q 2579 2906 2586 3168 
Q 2586 3290 2557 3427 
Q 2528 3565 2445 3683 
Q 2362 3802 2214 3882 
Q 2067 3962 1830 3962 
Q 1613 3962 1469 3875 
Q 1325 3789 1238 3638 
Q 1152 3488 1110 3283 
Q 1069 3078 1062 2842 
L 333 2842 
Q 333 3213 432 3529 
Q 531 3846 729 4076 
Q 928 4307 1213 4438 
Q 1498 4570 1875 4570 
Q 2285 4570 2560 4435 
Q 2835 4301 3004 4096 
Q 3174 3891 3244 3651 
Q 3315 3411 3315 3194 
Q 3315 2925 3232 2707 
Q 3149 2490 3008 2307 
Q 2867 2125 2688 1971 
Q 2509 1818 2317 1683 
Q 2125 1549 1933 1427 
Q 1741 1306 1577 1184 
Q 1414 1062 1292 931 
Q 1171 800 1126 653 
L 3309 653 
L 3309 0 
z
" transform="scale(0.015625)"/>
       </defs>
       <use xlink:href="#HelveticaNeue-Medium-35"/>
       <use xlink:href="#HelveticaNeue-Medium-2e" x="55.599991"/>
       <use xlink:href="#HelveticaNeue-Medium-32" x="83.399979"/>
      </g>
     </g>
    </g>
    <g id="xtick_4">
     <g id="line2d_7">
      <g>
       <use xlink:href="#m0b65f4144f" x="401.623333" y="481.429375" style="stroke: #000000; stroke-width: 1.5"/>
      </g>
     </g>
     <g id="line2d_8">
      <g>
       <use xlink:href="#md589f71ca1" x="401.623333" y="37.909375" style="stroke: #000000; stroke-width: 1.5"/>
      </g>
     </g>
     <g id="text_4">
      <!-- 5.4 -->
      <g transform="translate(391.199505 495.640312) scale(0.15 -0.15)">
       <use xlink:href="#HelveticaNeue-Medium-35"/>
       <use xlink:href="#HelveticaNeue-Medium-2e" x="55.599991"/>
       <use xlink:href="#HelveticaNeue-Medium-34" x="83.399979"/>
      </g>
     </g>
    </g>
    <g id="xtick_5">
     <g id="line2d_9">
      <g>
       <use xlink:href="#m0b65f4144f" x="491.31978" y="481.429375" style="stroke: #000000; stroke-width: 1.5"/>
      </g>
     </g>
     <g id="line2d_10">
      <g>
       <use xlink:href="#md589f71ca1" x="491.31978" y="37.909375" style="stroke: #000000; stroke-width: 1.5"/>
      </g>
     </g>
     <g id="text_5">
      <!-- 5.6 -->
      <g transform="translate(480.895951 495.640312) scale(0.15 -0.15)">
       <defs>
        <path id="HelveticaNeue-Medium-36" d="M 2528 3347 
Q 2502 3622 2332 3792 
Q 2163 3962 1875 3962 
Q 1677 3962 1533 3888 
Q 1389 3814 1289 3692 
Q 1190 3571 1129 3414 
Q 1069 3258 1030 3085 
Q 992 2912 976 2742 
Q 960 2573 947 2426 
L 960 2413 
Q 1107 2682 1366 2813 
Q 1626 2944 1926 2944 
Q 2259 2944 2521 2829 
Q 2784 2714 2966 2512 
Q 3149 2310 3245 2035 
Q 3341 1760 3341 1440 
Q 3341 1114 3235 835 
Q 3130 557 2931 349 
Q 2733 141 2457 25 
Q 2182 -90 1850 -90 
Q 1357 -90 1040 92 
Q 723 275 540 592 
Q 358 909 288 1334 
Q 218 1760 218 2253 
Q 218 2656 304 3065 
Q 390 3475 588 3811 
Q 787 4147 1110 4358 
Q 1434 4570 1907 4570 
Q 2176 4570 2413 4480 
Q 2650 4390 2832 4230 
Q 3014 4070 3129 3846 
Q 3245 3622 3258 3347 
L 2528 3347 
z
M 1824 518 
Q 2022 518 2169 598 
Q 2317 678 2416 806 
Q 2515 934 2563 1104 
Q 2611 1274 2611 1453 
Q 2611 1632 2563 1798 
Q 2515 1965 2416 2089 
Q 2317 2214 2169 2291 
Q 2022 2368 1824 2368 
Q 1626 2368 1475 2294 
Q 1325 2221 1222 2096 
Q 1120 1971 1069 1804 
Q 1018 1638 1018 1453 
Q 1018 1267 1069 1100 
Q 1120 934 1222 803 
Q 1325 672 1475 595 
Q 1626 518 1824 518 
z
" transform="scale(0.015625)"/>
       </defs>
       <use xlink:href="#HelveticaNeue-Medium-35"/>
       <use xlink:href="#HelveticaNeue-Medium-2e" x="55.599991"/>
       <use xlink:href="#HelveticaNeue-Medium-36" x="83.399979"/>
      </g>
     </g>
    </g>
    <g id="xtick_6">
     <g id="line2d_11">
      <defs>
       <path id="m804685d17e" d="M 0 0 
L 0 -3 
" style="stroke: #000000; stroke-width: 1.2"/>
      </defs>
      <g>
       <use xlink:href="#m804685d17e" x="65.261659" y="481.429375" style="stroke: #000000; stroke-width: 1.2"/>
      </g>
     </g>
     <g id="line2d_12">
      <defs>
       <path id="m998f3c157d" d="M 0 0 
L 0 3 
" style="stroke: #000000; stroke-width: 1.2"/>
      </defs>
      <g>
       <use xlink:href="#m998f3c157d" x="65.261659" y="37.909375" style="stroke: #000000; stroke-width: 1.2"/>
      </g>
     </g>
    </g>
    <g id="xtick_7">
     <g id="line2d_13">
      <g>
       <use xlink:href="#m804685d17e" x="87.685771" y="481.429375" style="stroke: #000000; stroke-width: 1.2"/>
      </g>
     </g>
     <g id="line2d_14">
      <g>
       <use xlink:href="#m998f3c157d" x="87.685771" y="37.909375" style="stroke: #000000; stroke-width: 1.2"/>
      </g>
     </g>
    </g>
    <g id="xtick_8">
     <g id="line2d_15">
      <g>
       <use xlink:href="#m804685d17e" x="110.109883" y="481.429375" style="stroke: #000000; stroke-width: 1.2"/>
      </g>
     </g>
     <g id="line2d_16">
      <g>
       <use xlink:href="#m998f3c157d" x="110.109883" y="37.909375" style="stroke: #000000; stroke-width: 1.2"/>
      </g>
     </g>
    </g>
    <g id="xtick_9">
     <g id="line2d_17">
      <g>
       <use xlink:href="#m804685d17e" x="154.958106" y="481.429375" style="stroke: #000000; stroke-width: 1.2"/>
      </g>
     </g>
     <g id="line2d_18">
      <g>
       <use xlink:href="#m998f3c157d" x="154.958106" y="37.909375" style="stroke: #000000; stroke-width: 1.2"/>
      </g>
     </g>
    </g>
    <g id="xtick_10">
     <g id="line2d_19">
      <g>
       <use xlink:href="#m804685d17e" x="177.382217" y="481.429375" style="stroke: #000000; stroke-width: 1.2"/>
      </g>
     </g>
     <g id="line2d_20">
      <g>
       <use xlink:href="#m998f3c157d" x="177.382217" y="37.909375" style="stroke: #000000; stroke-width: 1.2"/>
      </g>
     </g>
    </g>
    <g id="xtick_11">
     <g id="line2d_21">
      <g>
       <use xlink:href="#m804685d17e" x="199.806329" y="481.429375" style="stroke: #000000; stroke-width: 1.2"/>
      </g>
     </g>
     <g id="line2d_22">
      <g>
       <use xlink:href="#m998f3c157d" x="199.806329" y="37.909375" style="stroke: #000000; stroke-width: 1.2"/>
      </g>
     </g>
    </g>
    <g id="xtick_12">
     <g id="line2d_23">
      <g>
       <use xlink:href="#m804685d17e" x="244.654552" y="481.429375" style="stroke: #000000; stroke-width: 1.2"/>
      </g>
     </g>
     <g id="line2d_24">
      <g>
       <use xlink:href="#m998f3c157d" x="244.654552" y="37.909375" style="stroke: #000000; stroke-width: 1.2"/>
      </g>
     </g>
    </g>
    <g id="xtick_13">
     <g id="line2d_25">
      <g>
       <use xlink:href="#m804685d17e" x="267.078664" y="481.429375" style="stroke: #000000; stroke-width: 1.2"/>
      </g>
     </g>
     <g id="line2d_26">
      <g>
       <use xlink:href="#m998f3c157d" x="267.078664" y="37.909375" style="stroke: #000000; stroke-width: 1.2"/>
      </g>
     </g>
    </g>
    <g id="xtick_14">
     <g id="line2d_27">
      <g>
       <use xlink:href="#m804685d17e" x="289.502775" y="481.429375" style="stroke: #000000; stroke-width: 1.2"/>
      </g>
     </g>
     <g id="line2d_28">
      <g>
       <use xlink:href="#m998f3c157d" x="289.502775" y="37.909375" style="stroke: #000000; stroke-width: 1.2"/>
      </g>
     </g>
    </g>
    <g id="xtick_15">
     <g id="line2d_29">
      <g>
       <use xlink:href="#m804685d17e" x="334.350998" y="481.429375" style="stroke: #000000; stroke-width: 1.2"/>
      </g>
     </g>
     <g id="line2d_30">
      <g>
       <use xlink:href="#m998f3c157d" x="334.350998" y="37.909375" style="stroke: #000000; stroke-width: 1.2"/>
      </g>
     </g>
    </g>
    <g id="xtick_16">
     <g id="line2d_31">
      <g>
       <use xlink:href="#m804685d17e" x="356.77511" y="481.429375" style="stroke: #000000; stroke-width: 1.2"/>
      </g>
     </g>
     <g id="line2d_32">
      <g>
       <use xlink:href="#m998f3c157d" x="356.77511" y="37.909375" style="stroke: #000000; stroke-width: 1.2"/>
      </g>
     </g>
    </g>
    <g id="xtick_17">
     <g id="line2d_33">
      <g>
       <use xlink:href="#m804685d17e" x="379.199222" y="481.429375" style="stroke: #000000; stroke-width: 1.2"/>
      </g>
     </g>
     <g id="line2d_34">
      <g>
       <use xlink:href="#m998f3c157d" x="379.199222" y="37.909375" style="stroke: #000000; stroke-width: 1.2"/>
      </g>
     </g>
    </g>
    <g id="xtick_18">
     <g id="line2d_35">
      <g>
       <use xlink:href="#m804685d17e" x="424.047445" y="481.429375" style="stroke: #000000; stroke-width: 1.2"/>
      </g>
     </g>
     <g id="line2d_36">
      <g>
       <use xlink:href="#m998f3c157d" x="424.047445" y="37.909375" style="stroke: #000000; stroke-width: 1.2"/>
      </g>
     </g>
    </g>
    <g id="xtick_19">
     <g id="line2d_37">
      <g>
       <use xlink:href="#m804685d17e" x="446.471556" y="481.429375" style="stroke: #000000; stroke-width: 1.2"/>
      </g>
     </g>
     <g id="line2d_38">
      <g>
       <use xlink:href="#m998f3c157d" x="446.471556" y="37.909375" style="stroke: #000000; stroke-width: 1.2"/>
      </g>
     </g>
    </g>
    <g id="xtick_20">
     <g id="line2d_39">
      <g>
       <use xlink:href="#m804685d17e" x="468.895668" y="481.429375" style="stroke: #000000; stroke-width: 1.2"/>
      </g>
     </g>
     <g id="line2d_40">
      <g>
       <use xlink:href="#m998f3c157d" x="468.895668" y="37.909375" style="stroke: #000000; stroke-width: 1.2"/>
      </g>
     </g>
    </g>
    <g id="text_6">
     <!-- Flux 1.0-5.0 keV ($10^{12}$ erg cm$^{-2}$ s$^{-1}$) -->
     <g transform="translate(105.247656 520.704375) scale(0.2 -0.2)">
      <defs>
       <path id="HelveticaNeue-Bold-46" d="M 442 4570 
L 442 0 
L 1446 0 
L 1446 1888 
L 3360 1888 
L 3360 2669 
L 1446 2669 
L 1446 3725 
L 3654 3725 
L 3654 4570 
L 442 4570 
z
" transform="scale(0.015625)"/>
       <path id="HelveticaNeue-Bold-6c" d="M 371 4570 
L 371 0 
L 1280 0 
L 1280 4570 
L 371 4570 
z
" transform="scale(0.015625)"/>
       <path id="HelveticaNeue-Bold-75" d="M 3450 0 
L 3450 3309 
L 2541 3309 
L 2541 1574 
Q 2541 1069 2374 848 
Q 2208 627 1837 627 
Q 1510 627 1382 828 
Q 1254 1030 1254 1440 
L 1254 3309 
L 346 3309 
L 346 1274 
Q 346 966 400 713 
Q 454 461 588 285 
Q 723 109 956 13 
Q 1190 -83 1555 -83 
Q 1843 -83 2118 45 
Q 2394 173 2566 461 
L 2586 461 
L 2586 0 
L 3450 0 
z
" transform="scale(0.015625)"/>
       <path id="HelveticaNeue-Bold-78" d="M 1190 1741 
L 0 0 
L 1018 0 
L 1709 1043 
L 2400 0 
L 3437 0 
L 2214 1760 
L 3302 3309 
L 2298 3309 
L 1722 2445 
L 1139 3309 
L 102 3309 
L 1190 1741 
z
" transform="scale(0.015625)"/>
       <path id="HelveticaNeue-Bold-20" transform="scale(0.015625)"/>
       <path id="HelveticaNeue-Bold-31" d="M 2509 0 
L 2509 4480 
L 1786 4480 
Q 1747 4224 1625 4051 
Q 1504 3878 1328 3772 
Q 1152 3667 931 3625 
Q 710 3584 474 3590 
L 474 2906 
L 1600 2906 
L 1600 0 
L 2509 0 
z
" transform="scale(0.015625)"/>
       <path id="HelveticaNeue-Bold-2e" d="M 384 986 
L 384 0 
L 1389 0 
L 1389 986 
L 384 986 
z
" transform="scale(0.015625)"/>
       <path id="HelveticaNeue-Bold-30" d="M 1043 2259 
Q 1043 2374 1046 2537 
Q 1050 2701 1069 2873 
Q 1088 3046 1133 3216 
Q 1178 3386 1258 3520 
Q 1338 3654 1462 3737 
Q 1587 3821 1773 3821 
Q 1958 3821 2086 3737 
Q 2214 3654 2297 3520 
Q 2381 3386 2422 3216 
Q 2464 3046 2486 2873 
Q 2509 2701 2512 2537 
Q 2515 2374 2515 2259 
Q 2515 2067 2502 1795 
Q 2490 1523 2422 1270 
Q 2355 1018 2204 838 
Q 2054 659 1773 659 
Q 1498 659 1350 838 
Q 1203 1018 1136 1270 
Q 1069 1523 1056 1795 
Q 1043 2067 1043 2259 
z
M 134 2259 
Q 134 1587 265 1136 
Q 397 685 621 416 
Q 845 147 1142 32 
Q 1440 -83 1773 -83 
Q 2112 -83 2409 32 
Q 2707 147 2934 416 
Q 3162 685 3293 1136 
Q 3424 1587 3424 2259 
Q 3424 2912 3293 3357 
Q 3162 3802 2934 4070 
Q 2707 4339 2409 4454 
Q 2112 4570 1773 4570 
Q 1440 4570 1142 4454 
Q 845 4339 621 4070 
Q 397 3802 265 3357 
Q 134 2912 134 2259 
z
" transform="scale(0.015625)"/>
       <path id="HelveticaNeue-Bold-2d" d="M 339 2138 
L 339 1357 
L 2266 1357 
L 2266 2138 
L 339 2138 
z
" transform="scale(0.015625)"/>
       <path id="HelveticaNeue-Bold-35" d="M 3200 3731 
L 3200 4480 
L 698 4480 
L 256 2003 
L 1075 2003 
Q 1210 2189 1363 2275 
Q 1517 2362 1760 2362 
Q 1946 2362 2086 2298 
Q 2227 2234 2329 2118 
Q 2432 2003 2483 1849 
Q 2534 1696 2534 1523 
Q 2534 1357 2480 1200 
Q 2426 1043 2326 924 
Q 2227 806 2083 732 
Q 1939 659 1760 659 
Q 1453 659 1254 841 
Q 1056 1024 1024 1331 
L 115 1331 
Q 122 979 259 713 
Q 397 448 627 269 
Q 858 90 1155 3 
Q 1453 -83 1779 -83 
Q 2118 -90 2419 28 
Q 2720 147 2947 364 
Q 3174 582 3308 880 
Q 3443 1178 3443 1523 
Q 3443 1837 3350 2115 
Q 3258 2394 3082 2598 
Q 2906 2803 2650 2924 
Q 2394 3046 2061 3046 
Q 1792 3046 1581 2966 
Q 1370 2886 1184 2701 
L 1171 2714 
L 1350 3731 
L 3200 3731 
z
" transform="scale(0.015625)"/>
       <path id="HelveticaNeue-Bold-6b" d="M 429 4570 
L 429 0 
L 1338 0 
L 1338 1139 
L 1690 1478 
L 2598 0 
L 3699 0 
L 2310 2093 
L 3558 3309 
L 2483 3309 
L 1338 2118 
L 1338 4570 
L 429 4570 
z
" transform="scale(0.015625)"/>
       <path id="HelveticaNeue-Bold-65" d="M 2573 2010 
L 1094 2010 
Q 1101 2106 1136 2227 
Q 1171 2349 1257 2457 
Q 1344 2566 1488 2640 
Q 1632 2714 1850 2714 
Q 2182 2714 2345 2534 
Q 2509 2355 2573 2010 
z
M 1094 1434 
L 3482 1434 
Q 3507 1818 3417 2170 
Q 3328 2522 3126 2797 
Q 2925 3072 2611 3235 
Q 2298 3398 1875 3398 
Q 1498 3398 1187 3264 
Q 877 3130 653 2896 
Q 429 2662 307 2342 
Q 186 2022 186 1651 
Q 186 1267 304 947 
Q 422 627 640 396 
Q 858 166 1171 41 
Q 1485 -83 1875 -83 
Q 2438 -83 2835 173 
Q 3232 429 3424 1024 
L 2624 1024 
Q 2579 870 2380 732 
Q 2182 595 1907 595 
Q 1523 595 1318 793 
Q 1114 992 1094 1434 
z
" transform="scale(0.015625)"/>
       <path id="HelveticaNeue-Bold-56" d="M 2566 0 
L 4083 4570 
L 3046 4570 
L 2016 1357 
L 2003 1357 
L 986 4570 
L -45 4570 
L 1434 0 
L 2566 0 
z
" transform="scale(0.015625)"/>
       <path id="HelveticaNeue-Bold-28" d="M 1939 4678 
L 1178 4678 
Q 966 4371 809 4006 
Q 653 3642 547 3251 
Q 442 2861 387 2467 
Q 333 2074 333 1715 
Q 333 960 553 230 
Q 774 -499 1178 -1158 
L 1933 -1158 
Q 1568 -461 1405 275 
Q 1242 1011 1242 1779 
Q 1242 2534 1408 3267 
Q 1574 4000 1939 4678 
z
" transform="scale(0.015625)"/>
       <path id="DejaVuSans-31" d="M 794 531 
L 1825 531 
L 1825 4091 
L 703 3866 
L 703 4441 
L 1819 4666 
L 2450 4666 
L 2450 531 
L 3481 531 
L 3481 0 
L 794 0 
L 794 531 
z
" transform="scale(0.015625)"/>
       <path id="DejaVuSans-30" d="M 2034 4250 
Q 1547 4250 1301 3770 
Q 1056 3291 1056 2328 
Q 1056 1369 1301 889 
Q 1547 409 2034 409 
Q 2525 409 2770 889 
Q 3016 1369 3016 2328 
Q 3016 3291 2770 3770 
Q 2525 4250 2034 4250 
z
M 2034 4750 
Q 2819 4750 3233 4129 
Q 3647 3509 3647 2328 
Q 3647 1150 3233 529 
Q 2819 -91 2034 -91 
Q 1250 -91 836 529 
Q 422 1150 422 2328 
Q 422 3509 836 4129 
Q 1250 4750 2034 4750 
z
" transform="scale(0.015625)"/>
       <path id="DejaVuSans-32" d="M 1228 531 
L 3431 531 
L 3431 0 
L 469 0 
L 469 531 
Q 828 903 1448 1529 
Q 2069 2156 2228 2338 
Q 2531 2678 2651 2914 
Q 2772 3150 2772 3378 
Q 2772 3750 2511 3984 
Q 2250 4219 1831 4219 
Q 1534 4219 1204 4116 
Q 875 4013 500 3803 
L 500 4441 
Q 881 4594 1212 4672 
Q 1544 4750 1819 4750 
Q 2544 4750 2975 4387 
Q 3406 4025 3406 3419 
Q 3406 3131 3298 2873 
Q 3191 2616 2906 2266 
Q 2828 2175 2409 1742 
Q 1991 1309 1228 531 
z
" transform="scale(0.015625)"/>
       <path id="HelveticaNeue-Bold-72" d="M 346 3309 
L 346 0 
L 1254 0 
L 1254 1491 
Q 1254 1715 1299 1907 
Q 1344 2099 1449 2243 
Q 1555 2387 1728 2470 
Q 1901 2554 2150 2554 
Q 2234 2554 2323 2544 
Q 2413 2534 2477 2522 
L 2477 3366 
Q 2368 3398 2278 3398 
Q 2106 3398 1946 3347 
Q 1786 3296 1645 3203 
Q 1504 3110 1395 2979 
Q 1286 2848 1222 2694 
L 1210 2694 
L 1210 3309 
L 346 3309 
z
" transform="scale(0.015625)"/>
       <path id="HelveticaNeue-Bold-67" d="M 1888 781 
Q 1677 781 1536 870 
Q 1395 960 1308 1101 
Q 1222 1242 1187 1418 
Q 1152 1594 1152 1773 
Q 1152 1958 1193 2128 
Q 1235 2298 1328 2429 
Q 1421 2560 1558 2637 
Q 1696 2714 1888 2714 
Q 2112 2714 2259 2630 
Q 2406 2547 2496 2406 
Q 2586 2266 2624 2083 
Q 2662 1901 2662 1696 
Q 2662 1517 2614 1353 
Q 2566 1190 2470 1062 
Q 2374 934 2227 857 
Q 2080 781 1888 781 
z
M 3526 211 
L 3526 3309 
L 2662 3309 
L 2662 2867 
L 2650 2867 
Q 2483 3155 2236 3276 
Q 1990 3398 1664 3398 
Q 1318 3398 1052 3264 
Q 787 3130 608 2902 
Q 429 2675 336 2377 
Q 243 2080 243 1760 
Q 243 1421 323 1117 
Q 403 813 576 585 
Q 749 358 1017 227 
Q 1286 96 1658 96 
Q 1958 96 2230 221 
Q 2502 346 2650 608 
L 2662 608 
L 2662 173 
Q 2669 -179 2493 -409 
Q 2317 -640 1933 -640 
Q 1690 -640 1504 -541 
Q 1318 -442 1254 -186 
L 352 -186 
Q 371 -467 508 -668 
Q 646 -870 854 -998 
Q 1062 -1126 1315 -1187 
Q 1568 -1248 1811 -1248 
Q 2381 -1248 2720 -1094 
Q 3059 -941 3238 -720 
Q 3418 -499 3472 -243 
Q 3526 13 3526 211 
z
" transform="scale(0.015625)"/>
       <path id="HelveticaNeue-Bold-63" d="M 2598 2144 
L 3488 2144 
Q 3469 2464 3334 2697 
Q 3200 2931 2985 3088 
Q 2771 3245 2499 3321 
Q 2227 3398 1933 3398 
Q 1530 3398 1216 3264 
Q 902 3130 684 2890 
Q 467 2650 355 2320 
Q 243 1990 243 1606 
Q 243 1235 364 924 
Q 486 614 704 390 
Q 922 166 1232 41 
Q 1542 -83 1914 -83 
Q 2573 -83 2995 262 
Q 3418 608 3507 1267 
L 2630 1267 
Q 2586 960 2410 777 
Q 2234 595 1907 595 
Q 1696 595 1549 691 
Q 1402 787 1315 937 
Q 1229 1088 1190 1273 
Q 1152 1459 1152 1638 
Q 1152 1824 1190 2013 
Q 1229 2202 1321 2358 
Q 1414 2515 1561 2614 
Q 1709 2714 1926 2714 
Q 2509 2714 2598 2144 
z
" transform="scale(0.015625)"/>
       <path id="HelveticaNeue-Bold-6d" d="M 371 3309 
L 371 0 
L 1280 0 
L 1280 1920 
Q 1280 2163 1350 2313 
Q 1421 2464 1520 2544 
Q 1619 2624 1724 2653 
Q 1830 2682 1894 2682 
Q 2112 2682 2224 2608 
Q 2336 2534 2384 2412 
Q 2432 2291 2438 2147 
Q 2445 2003 2445 1856 
L 2445 0 
L 3354 0 
L 3354 1843 
Q 3354 1997 3376 2147 
Q 3398 2298 3465 2416 
Q 3533 2534 3651 2608 
Q 3770 2682 3962 2682 
Q 4154 2682 4266 2618 
Q 4378 2554 4435 2445 
Q 4493 2336 4505 2189 
Q 4518 2042 4518 1875 
L 4518 0 
L 5427 0 
L 5427 2214 
Q 5427 2534 5337 2761 
Q 5248 2989 5088 3129 
Q 4928 3270 4704 3334 
Q 4480 3398 4218 3398 
Q 3872 3398 3619 3232 
Q 3366 3066 3219 2848 
Q 3085 3155 2825 3276 
Q 2566 3398 2253 3398 
Q 1926 3398 1673 3257 
Q 1421 3117 1242 2861 
L 1229 2861 
L 1229 3309 
L 371 3309 
z
" transform="scale(0.015625)"/>
       <path id="DejaVuSans-2212" d="M 678 2272 
L 4684 2272 
L 4684 1741 
L 678 1741 
L 678 2272 
z
" transform="scale(0.015625)"/>
       <path id="HelveticaNeue-Bold-73" d="M 1050 1075 
L 186 1075 
Q 198 742 336 521 
Q 474 301 688 166 
Q 902 32 1177 -25 
Q 1453 -83 1741 -83 
Q 2022 -83 2294 -28 
Q 2566 26 2777 160 
Q 2989 294 3120 515 
Q 3251 736 3251 1062 
Q 3251 1293 3161 1449 
Q 3072 1606 2925 1712 
Q 2778 1818 2589 1882 
Q 2400 1946 2202 1990 
Q 2010 2035 1824 2073 
Q 1638 2112 1494 2160 
Q 1350 2208 1260 2285 
Q 1171 2362 1171 2483 
Q 1171 2586 1222 2646 
Q 1274 2707 1347 2739 
Q 1421 2771 1510 2780 
Q 1600 2790 1677 2790 
Q 1920 2790 2099 2697 
Q 2278 2605 2298 2342 
L 3162 2342 
Q 3136 2650 3005 2851 
Q 2874 3053 2675 3174 
Q 2477 3296 2224 3347 
Q 1971 3398 1702 3398 
Q 1434 3398 1178 3350 
Q 922 3302 717 3184 
Q 512 3066 387 2861 
Q 262 2656 262 2336 
Q 262 2118 352 1968 
Q 442 1818 589 1718 
Q 736 1619 925 1558 
Q 1114 1498 1312 1453 
Q 1798 1350 2070 1248 
Q 2342 1146 2342 941 
Q 2342 819 2284 739 
Q 2227 659 2140 611 
Q 2054 563 1948 540 
Q 1843 518 1747 518 
Q 1613 518 1488 550 
Q 1363 582 1267 649 
Q 1171 717 1110 822 
Q 1050 928 1050 1075 
z
" transform="scale(0.015625)"/>
       <path id="HelveticaNeue-Bold-29" d="M -38 -1158 
L 717 -1158 
Q 928 -858 1088 -493 
Q 1248 -128 1353 259 
Q 1459 646 1510 1040 
Q 1562 1434 1562 1792 
Q 1562 2547 1341 3283 
Q 1120 4019 717 4678 
L -32 4678 
Q 320 3981 486 3238 
Q 653 2496 653 1728 
Q 653 973 483 246 
Q 314 -480 -38 -1158 
z
" transform="scale(0.015625)"/>
      </defs>
      <use xlink:href="#HelveticaNeue-Bold-46" transform="translate(0 0.765625)"/>
      <use xlink:href="#HelveticaNeue-Bold-6c" transform="translate(59.299988 0.765625)"/>
      <use xlink:href="#HelveticaNeue-Bold-75" transform="translate(85.099976 0.765625)"/>
      <use xlink:href="#HelveticaNeue-Bold-78" transform="translate(144.399963 0.765625)"/>
      <use xlink:href="#HelveticaNeue-Bold-20" transform="translate(198.09996 0.765625)"/>
      <use xlink:href="#HelveticaNeue-Bold-31" transform="translate(225.899948 0.765625)"/>
      <use xlink:href="#HelveticaNeue-Bold-2e" transform="translate(281.499939 0.765625)"/>
      <use xlink:href="#HelveticaNeue-Bold-30" transform="translate(309.299927 0.765625)"/>
      <use xlink:href="#HelveticaNeue-Bold-2d" transform="translate(364.899918 0.765625)"/>
      <use xlink:href="#HelveticaNeue-Bold-35" transform="translate(405.599915 0.765625)"/>
      <use xlink:href="#HelveticaNeue-Bold-2e" transform="translate(461.199905 0.765625)"/>
      <use xlink:href="#HelveticaNeue-Bold-30" transform="translate(488.999893 0.765625)"/>
      <use xlink:href="#HelveticaNeue-Bold-20" transform="translate(544.599884 0.765625)"/>
      <use xlink:href="#HelveticaNeue-Bold-6b" transform="translate(572.399872 0.765625)"/>
      <use xlink:href="#HelveticaNeue-Bold-65" transform="translate(629.799866 0.765625)"/>
      <use xlink:href="#HelveticaNeue-Bold-56" transform="translate(687.19986 0.765625)"/>
      <use xlink:href="#HelveticaNeue-Bold-20" transform="translate(750.199844 0.765625)"/>
      <use xlink:href="#HelveticaNeue-Bold-28" transform="translate(777.999832 0.765625)"/>
      <use xlink:href="#DejaVuSans-31" transform="translate(807.599823 0.765625)"/>
      <use xlink:href="#DejaVuSans-30" transform="translate(871.22287 0.765625)"/>
      <use xlink:href="#DejaVuSans-31" transform="translate(935.802948 39.046875) scale(0.7)"/>
      <use xlink:href="#DejaVuSans-32" transform="translate(980.339081 39.046875) scale(0.7)"/>
      <use xlink:href="#HelveticaNeue-Bold-20" transform="translate(1027.609589 0.765625)"/>
      <use xlink:href="#HelveticaNeue-Bold-65" transform="translate(1055.409576 0.765625)"/>
      <use xlink:href="#HelveticaNeue-Bold-72" transform="translate(1112.80957 0.765625)"/>
      <use xlink:href="#HelveticaNeue-Bold-67" transform="translate(1151.709564 0.765625)"/>
      <use xlink:href="#HelveticaNeue-Bold-20" transform="translate(1212.809555 0.765625)"/>
      <use xlink:href="#HelveticaNeue-Bold-63" transform="translate(1240.609543 0.765625)"/>
      <use xlink:href="#HelveticaNeue-Bold-6d" transform="translate(1298.009537 0.765625)"/>
      <use xlink:href="#DejaVuSans-2212" transform="translate(1389.566559 39.046875) scale(0.7)"/>
      <use xlink:href="#DejaVuSans-32" transform="translate(1448.218903 39.046875) scale(0.7)"/>
      <use xlink:href="#HelveticaNeue-Bold-20" transform="translate(1495.48941 0.765625)"/>
      <use xlink:href="#HelveticaNeue-Bold-73" transform="translate(1523.289398 0.765625)"/>
      <use xlink:href="#DejaVuSans-2212" transform="translate(1577.946426 39.046875) scale(0.7)"/>
      <use xlink:href="#DejaVuSans-31" transform="translate(1636.59877 39.046875) scale(0.7)"/>
      <use xlink:href="#HelveticaNeue-Bold-29" transform="translate(1683.869278 0.765625)"/>
     </g>
    </g>
   </g>
   <g id="matplotlib.axis_2">
    <g id="ytick_1">
     <g id="line2d_41">
      <defs>
       <path id="m4d24ee257d" d="M 0 0 
L 6 0 
" style="stroke: #000000; stroke-width: 1.5"/>
      </defs>
      <g>
       <use xlink:href="#m4d24ee257d" x="53.447656" y="481.429375" style="stroke: #000000; stroke-width: 1.5"/>
      </g>
     </g>
     <g id="line2d_42">
      <defs>
       <path id="ma8b1f86f10" d="M 0 0 
L -6 0 
" style="stroke: #000000; stroke-width: 1.5"/>
      </defs>
      <g>
       <use xlink:href="#ma8b1f86f10" x="499.847656" y="481.429375" style="stroke: #000000; stroke-width: 1.5"/>
      </g>
     </g>
     <g id="text_7">
      <!-- 0.0 -->
      <g transform="translate(29.1 486.784844) scale(0.15 -0.15)">
       <use xlink:href="#HelveticaNeue-Medium-30"/>
       <use xlink:href="#HelveticaNeue-Medium-2e" x="55.599991"/>
       <use xlink:href="#HelveticaNeue-Medium-30" x="83.399979"/>
      </g>
     </g>
    </g>
    <g id="ytick_2">
     <g id="line2d_43">
      <g>
       <use xlink:href="#m4d24ee257d" x="53.447656" y="421.958824" style="stroke: #000000; stroke-width: 1.5"/>
      </g>
     </g>
     <g id="line2d_44">
      <g>
       <use xlink:href="#ma8b1f86f10" x="499.847656" y="421.958824" style="stroke: #000000; stroke-width: 1.5"/>
      </g>
     </g>
     <g id="text_8">
      <!-- 0.5 -->
      <g transform="translate(29.1 427.314292) scale(0.15 -0.15)">
       <use xlink:href="#HelveticaNeue-Medium-30"/>
       <use xlink:href="#HelveticaNeue-Medium-2e" x="55.599991"/>
       <use xlink:href="#HelveticaNeue-Medium-35" x="83.399979"/>
      </g>
     </g>
    </g>
    <g id="ytick_3">
     <g id="line2d_45">
      <g>
       <use xlink:href="#m4d24ee257d" x="53.447656" y="362.488272" style="stroke: #000000; stroke-width: 1.5"/>
      </g>
     </g>
     <g id="line2d_46">
      <g>
       <use xlink:href="#ma8b1f86f10" x="499.847656" y="362.488272" style="stroke: #000000; stroke-width: 1.5"/>
      </g>
     </g>
     <g id="text_9">
      <!-- 1.0 -->
      <g transform="translate(29.1 367.843741) scale(0.15 -0.15)">
       <defs>
        <path id="HelveticaNeue-Medium-31" d="M 339 3738 
Q 570 3738 787 3776 
Q 1005 3814 1181 3904 
Q 1357 3994 1481 4134 
Q 1606 4275 1645 4480 
L 2240 4480 
L 2240 0 
L 1440 0 
L 1440 3162 
L 339 3162 
L 339 3738 
z
" transform="scale(0.015625)"/>
       </defs>
       <use xlink:href="#HelveticaNeue-Medium-31"/>
       <use xlink:href="#HelveticaNeue-Medium-2e" x="55.599991"/>
       <use xlink:href="#HelveticaNeue-Medium-30" x="83.399979"/>
      </g>
     </g>
    </g>
    <g id="ytick_4">
     <g id="line2d_47">
      <g>
       <use xlink:href="#m4d24ee257d" x="53.447656" y="303.017721" style="stroke: #000000; stroke-width: 1.5"/>
      </g>
     </g>
     <g id="line2d_48">
      <g>
       <use xlink:href="#ma8b1f86f10" x="499.847656" y="303.017721" style="stroke: #000000; stroke-width: 1.5"/>
      </g>
     </g>
     <g id="text_10">
      <!-- 1.5 -->
      <g transform="translate(29.1 308.373189) scale(0.15 -0.15)">
       <use xlink:href="#HelveticaNeue-Medium-31"/>
       <use xlink:href="#HelveticaNeue-Medium-2e" x="55.599991"/>
       <use xlink:href="#HelveticaNeue-Medium-35" x="83.399979"/>
      </g>
     </g>
    </g>
    <g id="ytick_5">
     <g id="line2d_49">
      <g>
       <use xlink:href="#m4d24ee257d" x="53.447656" y="243.547169" style="stroke: #000000; stroke-width: 1.5"/>
      </g>
     </g>
     <g id="line2d_50">
      <g>
       <use xlink:href="#ma8b1f86f10" x="499.847656" y="243.547169" style="stroke: #000000; stroke-width: 1.5"/>
      </g>
     </g>
     <g id="text_11">
      <!-- 2.0 -->
      <g transform="translate(29.1 248.902638) scale(0.15 -0.15)">
       <use xlink:href="#HelveticaNeue-Medium-32"/>
       <use xlink:href="#HelveticaNeue-Medium-2e" x="55.599991"/>
       <use xlink:href="#HelveticaNeue-Medium-30" x="83.399979"/>
      </g>
     </g>
    </g>
    <g id="ytick_6">
     <g id="line2d_51">
      <g>
       <use xlink:href="#m4d24ee257d" x="53.447656" y="184.076618" style="stroke: #000000; stroke-width: 1.5"/>
      </g>
     </g>
     <g id="line2d_52">
      <g>
       <use xlink:href="#ma8b1f86f10" x="499.847656" y="184.076618" style="stroke: #000000; stroke-width: 1.5"/>
      </g>
     </g>
     <g id="text_12">
      <!-- 2.5 -->
      <g transform="translate(29.1 189.432086) scale(0.15 -0.15)">
       <use xlink:href="#HelveticaNeue-Medium-32"/>
       <use xlink:href="#HelveticaNeue-Medium-2e" x="55.599991"/>
       <use xlink:href="#HelveticaNeue-Medium-35" x="83.399979"/>
      </g>
     </g>
    </g>
    <g id="ytick_7">
     <g id="line2d_53">
      <g>
       <use xlink:href="#m4d24ee257d" x="53.447656" y="124.606066" style="stroke: #000000; stroke-width: 1.5"/>
      </g>
     </g>
     <g id="line2d_54">
      <g>
       <use xlink:href="#ma8b1f86f10" x="499.847656" y="124.606066" style="stroke: #000000; stroke-width: 1.5"/>
      </g>
     </g>
     <g id="text_13">
      <!-- 3.0 -->
      <g transform="translate(29.1 129.961535) scale(0.15 -0.15)">
       <defs>
        <path id="HelveticaNeue-Medium-33" d="M 1459 2624 
Q 1638 2618 1817 2650 
Q 1997 2682 2137 2762 
Q 2278 2842 2364 2982 
Q 2451 3123 2451 3328 
Q 2451 3616 2256 3789 
Q 2061 3962 1754 3962 
Q 1562 3962 1421 3885 
Q 1280 3808 1187 3677 
Q 1094 3546 1049 3382 
Q 1005 3219 1011 3046 
L 282 3046 
Q 294 3373 403 3651 
Q 512 3930 701 4134 
Q 890 4339 1158 4454 
Q 1427 4570 1766 4570 
Q 2029 4570 2281 4493 
Q 2534 4416 2736 4269 
Q 2938 4122 3059 3894 
Q 3181 3667 3181 3373 
Q 3181 3034 3027 2781 
Q 2874 2528 2547 2413 
L 2547 2400 
Q 2931 2323 3145 2019 
Q 3360 1715 3360 1280 
Q 3360 960 3232 707 
Q 3104 454 2886 278 
Q 2669 102 2381 6 
Q 2093 -90 1773 -90 
Q 1382 -90 1091 22 
Q 800 134 605 339 
Q 410 544 307 832 
Q 205 1120 198 1472 
L 928 1472 
Q 915 1062 1129 790 
Q 1344 518 1773 518 
Q 2138 518 2384 726 
Q 2630 934 2630 1318 
Q 2630 1581 2528 1734 
Q 2426 1888 2259 1968 
Q 2093 2048 1885 2067 
Q 1677 2086 1459 2080 
L 1459 2624 
z
" transform="scale(0.015625)"/>
       </defs>
       <use xlink:href="#HelveticaNeue-Medium-33"/>
       <use xlink:href="#HelveticaNeue-Medium-2e" x="55.599991"/>
       <use xlink:href="#HelveticaNeue-Medium-30" x="83.399979"/>
      </g>
     </g>
    </g>
    <g id="ytick_8">
     <g id="line2d_55">
      <g>
       <use xlink:href="#m4d24ee257d" x="53.447656" y="65.135515" style="stroke: #000000; stroke-width: 1.5"/>
      </g>
     </g>
     <g id="line2d_56">
      <g>
       <use xlink:href="#ma8b1f86f10" x="499.847656" y="65.135515" style="stroke: #000000; stroke-width: 1.5"/>
      </g>
     </g>
     <g id="text_14">
      <!-- 3.5 -->
      <g transform="translate(29.1 70.490983) scale(0.15 -0.15)">
       <use xlink:href="#HelveticaNeue-Medium-33"/>
       <use xlink:href="#HelveticaNeue-Medium-2e" x="55.599991"/>
       <use xlink:href="#HelveticaNeue-Medium-35" x="83.399979"/>
      </g>
     </g>
    </g>
    <g id="ytick_9">
     <g id="line2d_57">
      <defs>
       <path id="m143b810d2b" d="M 0 0 
L 3 0 
" style="stroke: #000000; stroke-width: 1.2"/>
      </defs>
      <g>
       <use xlink:href="#m143b810d2b" x="53.447656" y="469.535265" style="stroke: #000000; stroke-width: 1.2"/>
      </g>
     </g>
     <g id="line2d_58">
      <defs>
       <path id="m075a3440c9" d="M 0 0 
L -3 0 
" style="stroke: #000000; stroke-width: 1.2"/>
      </defs>
      <g>
       <use xlink:href="#m075a3440c9" x="499.847656" y="469.535265" style="stroke: #000000; stroke-width: 1.2"/>
      </g>
     </g>
    </g>
    <g id="ytick_10">
     <g id="line2d_59">
      <g>
       <use xlink:href="#m143b810d2b" x="53.447656" y="457.641154" style="stroke: #000000; stroke-width: 1.2"/>
      </g>
     </g>
     <g id="line2d_60">
      <g>
       <use xlink:href="#m075a3440c9" x="499.847656" y="457.641154" style="stroke: #000000; stroke-width: 1.2"/>
      </g>
     </g>
    </g>
    <g id="ytick_11">
     <g id="line2d_61">
      <g>
       <use xlink:href="#m143b810d2b" x="53.447656" y="445.747044" style="stroke: #000000; stroke-width: 1.2"/>
      </g>
     </g>
     <g id="line2d_62">
      <g>
       <use xlink:href="#m075a3440c9" x="499.847656" y="445.747044" style="stroke: #000000; stroke-width: 1.2"/>
      </g>
     </g>
    </g>
    <g id="ytick_12">
     <g id="line2d_63">
      <g>
       <use xlink:href="#m143b810d2b" x="53.447656" y="433.852934" style="stroke: #000000; stroke-width: 1.2"/>
      </g>
     </g>
     <g id="line2d_64">
      <g>
       <use xlink:href="#m075a3440c9" x="499.847656" y="433.852934" style="stroke: #000000; stroke-width: 1.2"/>
      </g>
     </g>
    </g>
    <g id="ytick_13">
     <g id="line2d_65">
      <g>
       <use xlink:href="#m143b810d2b" x="53.447656" y="410.064713" style="stroke: #000000; stroke-width: 1.2"/>
      </g>
     </g>
     <g id="line2d_66">
      <g>
       <use xlink:href="#m075a3440c9" x="499.847656" y="410.064713" style="stroke: #000000; stroke-width: 1.2"/>
      </g>
     </g>
    </g>
    <g id="ytick_14">
     <g id="line2d_67">
      <g>
       <use xlink:href="#m143b810d2b" x="53.447656" y="398.170603" style="stroke: #000000; stroke-width: 1.2"/>
      </g>
     </g>
     <g id="line2d_68">
      <g>
       <use xlink:href="#m075a3440c9" x="499.847656" y="398.170603" style="stroke: #000000; stroke-width: 1.2"/>
      </g>
     </g>
    </g>
    <g id="ytick_15">
     <g id="line2d_69">
      <g>
       <use xlink:href="#m143b810d2b" x="53.447656" y="386.276493" style="stroke: #000000; stroke-width: 1.2"/>
      </g>
     </g>
     <g id="line2d_70">
      <g>
       <use xlink:href="#m075a3440c9" x="499.847656" y="386.276493" style="stroke: #000000; stroke-width: 1.2"/>
      </g>
     </g>
    </g>
    <g id="ytick_16">
     <g id="line2d_71">
      <g>
       <use xlink:href="#m143b810d2b" x="53.447656" y="374.382382" style="stroke: #000000; stroke-width: 1.2"/>
      </g>
     </g>
     <g id="line2d_72">
      <g>
       <use xlink:href="#m075a3440c9" x="499.847656" y="374.382382" style="stroke: #000000; stroke-width: 1.2"/>
      </g>
     </g>
    </g>
    <g id="ytick_17">
     <g id="line2d_73">
      <g>
       <use xlink:href="#m143b810d2b" x="53.447656" y="350.594162" style="stroke: #000000; stroke-width: 1.2"/>
      </g>
     </g>
     <g id="line2d_74">
      <g>
       <use xlink:href="#m075a3440c9" x="499.847656" y="350.594162" style="stroke: #000000; stroke-width: 1.2"/>
      </g>
     </g>
    </g>
    <g id="ytick_18">
     <g id="line2d_75">
      <g>
       <use xlink:href="#m143b810d2b" x="53.447656" y="338.700051" style="stroke: #000000; stroke-width: 1.2"/>
      </g>
     </g>
     <g id="line2d_76">
      <g>
       <use xlink:href="#m075a3440c9" x="499.847656" y="338.700051" style="stroke: #000000; stroke-width: 1.2"/>
      </g>
     </g>
    </g>
    <g id="ytick_19">
     <g id="line2d_77">
      <g>
       <use xlink:href="#m143b810d2b" x="53.447656" y="326.805941" style="stroke: #000000; stroke-width: 1.2"/>
      </g>
     </g>
     <g id="line2d_78">
      <g>
       <use xlink:href="#m075a3440c9" x="499.847656" y="326.805941" style="stroke: #000000; stroke-width: 1.2"/>
      </g>
     </g>
    </g>
    <g id="ytick_20">
     <g id="line2d_79">
      <g>
       <use xlink:href="#m143b810d2b" x="53.447656" y="314.911831" style="stroke: #000000; stroke-width: 1.2"/>
      </g>
     </g>
     <g id="line2d_80">
      <g>
       <use xlink:href="#m075a3440c9" x="499.847656" y="314.911831" style="stroke: #000000; stroke-width: 1.2"/>
      </g>
     </g>
    </g>
    <g id="ytick_21">
     <g id="line2d_81">
      <g>
       <use xlink:href="#m143b810d2b" x="53.447656" y="291.12361" style="stroke: #000000; stroke-width: 1.2"/>
      </g>
     </g>
     <g id="line2d_82">
      <g>
       <use xlink:href="#m075a3440c9" x="499.847656" y="291.12361" style="stroke: #000000; stroke-width: 1.2"/>
      </g>
     </g>
    </g>
    <g id="ytick_22">
     <g id="line2d_83">
      <g>
       <use xlink:href="#m143b810d2b" x="53.447656" y="279.2295" style="stroke: #000000; stroke-width: 1.2"/>
      </g>
     </g>
     <g id="line2d_84">
      <g>
       <use xlink:href="#m075a3440c9" x="499.847656" y="279.2295" style="stroke: #000000; stroke-width: 1.2"/>
      </g>
     </g>
    </g>
    <g id="ytick_23">
     <g id="line2d_85">
      <g>
       <use xlink:href="#m143b810d2b" x="53.447656" y="267.33539" style="stroke: #000000; stroke-width: 1.2"/>
      </g>
     </g>
     <g id="line2d_86">
      <g>
       <use xlink:href="#m075a3440c9" x="499.847656" y="267.33539" style="stroke: #000000; stroke-width: 1.2"/>
      </g>
     </g>
    </g>
    <g id="ytick_24">
     <g id="line2d_87">
      <g>
       <use xlink:href="#m143b810d2b" x="53.447656" y="255.441279" style="stroke: #000000; stroke-width: 1.2"/>
      </g>
     </g>
     <g id="line2d_88">
      <g>
       <use xlink:href="#m075a3440c9" x="499.847656" y="255.441279" style="stroke: #000000; stroke-width: 1.2"/>
      </g>
     </g>
    </g>
    <g id="ytick_25">
     <g id="line2d_89">
      <g>
       <use xlink:href="#m143b810d2b" x="53.447656" y="231.653059" style="stroke: #000000; stroke-width: 1.2"/>
      </g>
     </g>
     <g id="line2d_90">
      <g>
       <use xlink:href="#m075a3440c9" x="499.847656" y="231.653059" style="stroke: #000000; stroke-width: 1.2"/>
      </g>
     </g>
    </g>
    <g id="ytick_26">
     <g id="line2d_91">
      <g>
       <use xlink:href="#m143b810d2b" x="53.447656" y="219.758948" style="stroke: #000000; stroke-width: 1.2"/>
      </g>
     </g>
     <g id="line2d_92">
      <g>
       <use xlink:href="#m075a3440c9" x="499.847656" y="219.758948" style="stroke: #000000; stroke-width: 1.2"/>
      </g>
     </g>
    </g>
    <g id="ytick_27">
     <g id="line2d_93">
      <g>
       <use xlink:href="#m143b810d2b" x="53.447656" y="207.864838" style="stroke: #000000; stroke-width: 1.2"/>
      </g>
     </g>
     <g id="line2d_94">
      <g>
       <use xlink:href="#m075a3440c9" x="499.847656" y="207.864838" style="stroke: #000000; stroke-width: 1.2"/>
      </g>
     </g>
    </g>
    <g id="ytick_28">
     <g id="line2d_95">
      <g>
       <use xlink:href="#m143b810d2b" x="53.447656" y="195.970728" style="stroke: #000000; stroke-width: 1.2"/>
      </g>
     </g>
     <g id="line2d_96">
      <g>
       <use xlink:href="#m075a3440c9" x="499.847656" y="195.970728" style="stroke: #000000; stroke-width: 1.2"/>
      </g>
     </g>
    </g>
    <g id="ytick_29">
     <g id="line2d_97">
      <g>
       <use xlink:href="#m143b810d2b" x="53.447656" y="172.182507" style="stroke: #000000; stroke-width: 1.2"/>
      </g>
     </g>
     <g id="line2d_98">
      <g>
       <use xlink:href="#m075a3440c9" x="499.847656" y="172.182507" style="stroke: #000000; stroke-width: 1.2"/>
      </g>
     </g>
    </g>
    <g id="ytick_30">
     <g id="line2d_99">
      <g>
       <use xlink:href="#m143b810d2b" x="53.447656" y="160.288397" style="stroke: #000000; stroke-width: 1.2"/>
      </g>
     </g>
     <g id="line2d_100">
      <g>
       <use xlink:href="#m075a3440c9" x="499.847656" y="160.288397" style="stroke: #000000; stroke-width: 1.2"/>
      </g>
     </g>
    </g>
    <g id="ytick_31">
     <g id="line2d_101">
      <g>
       <use xlink:href="#m143b810d2b" x="53.447656" y="148.394287" style="stroke: #000000; stroke-width: 1.2"/>
      </g>
     </g>
     <g id="line2d_102">
      <g>
       <use xlink:href="#m075a3440c9" x="499.847656" y="148.394287" style="stroke: #000000; stroke-width: 1.2"/>
      </g>
     </g>
    </g>
    <g id="ytick_32">
     <g id="line2d_103">
      <g>
       <use xlink:href="#m143b810d2b" x="53.447656" y="136.500176" style="stroke: #000000; stroke-width: 1.2"/>
      </g>
     </g>
     <g id="line2d_104">
      <g>
       <use xlink:href="#m075a3440c9" x="499.847656" y="136.500176" style="stroke: #000000; stroke-width: 1.2"/>
      </g>
     </g>
    </g>
    <g id="ytick_33">
     <g id="line2d_105">
      <g>
       <use xlink:href="#m143b810d2b" x="53.447656" y="112.711956" style="stroke: #000000; stroke-width: 1.2"/>
      </g>
     </g>
     <g id="line2d_106">
      <g>
       <use xlink:href="#m075a3440c9" x="499.847656" y="112.711956" style="stroke: #000000; stroke-width: 1.2"/>
      </g>
     </g>
    </g>
    <g id="ytick_34">
     <g id="line2d_107">
      <g>
       <use xlink:href="#m143b810d2b" x="53.447656" y="100.817845" style="stroke: #000000; stroke-width: 1.2"/>
      </g>
     </g>
     <g id="line2d_108">
      <g>
       <use xlink:href="#m075a3440c9" x="499.847656" y="100.817845" style="stroke: #000000; stroke-width: 1.2"/>
      </g>
     </g>
    </g>
    <g id="ytick_35">
     <g id="line2d_109">
      <g>
       <use xlink:href="#m143b810d2b" x="53.447656" y="88.923735" style="stroke: #000000; stroke-width: 1.2"/>
      </g>
     </g>
     <g id="line2d_110">
      <g>
       <use xlink:href="#m075a3440c9" x="499.847656" y="88.923735" style="stroke: #000000; stroke-width: 1.2"/>
      </g>
     </g>
    </g>
    <g id="ytick_36">
     <g id="line2d_111">
      <g>
       <use xlink:href="#m143b810d2b" x="53.447656" y="77.029625" style="stroke: #000000; stroke-width: 1.2"/>
      </g>
     </g>
     <g id="line2d_112">
      <g>
       <use xlink:href="#m075a3440c9" x="499.847656" y="77.029625" style="stroke: #000000; stroke-width: 1.2"/>
      </g>
     </g>
    </g>
    <g id="ytick_37">
     <g id="line2d_113">
      <g>
       <use xlink:href="#m143b810d2b" x="53.447656" y="53.241404" style="stroke: #000000; stroke-width: 1.2"/>
      </g>
     </g>
     <g id="line2d_114">
      <g>
       <use xlink:href="#m075a3440c9" x="499.847656" y="53.241404" style="stroke: #000000; stroke-width: 1.2"/>
      </g>
     </g>
    </g>
    <g id="ytick_38">
     <g id="line2d_115">
      <g>
       <use xlink:href="#m143b810d2b" x="53.447656" y="41.347294" style="stroke: #000000; stroke-width: 1.2"/>
      </g>
     </g>
     <g id="line2d_116">
      <g>
       <use xlink:href="#m075a3440c9" x="499.847656" y="41.347294" style="stroke: #000000; stroke-width: 1.2"/>
      </g>
     </g>
    </g>
    <g id="text_15">
     <!-- Probability Density -->
     <g transform="translate(21.48125 349.094375) rotate(-90) scale(0.2 -0.2)">
      <defs>
       <path id="HelveticaNeue-Bold-50" d="M 1446 2419 
L 1446 3789 
L 2227 3789 
Q 2400 3789 2560 3763 
Q 2720 3738 2841 3664 
Q 2963 3590 3036 3456 
Q 3110 3322 3110 3104 
Q 3110 2886 3036 2752 
Q 2963 2618 2841 2544 
Q 2720 2470 2560 2444 
Q 2400 2419 2227 2419 
L 1446 2419 
z
M 442 4570 
L 442 0 
L 1446 0 
L 1446 1638 
L 2502 1638 
Q 2931 1638 3232 1763 
Q 3533 1888 3721 2093 
Q 3910 2298 3996 2563 
Q 4083 2829 4083 3104 
Q 4083 3386 3996 3648 
Q 3910 3910 3721 4115 
Q 3533 4320 3232 4445 
Q 2931 4570 2502 4570 
L 442 4570 
z
" transform="scale(0.015625)"/>
       <path id="HelveticaNeue-Bold-6f" d="M 1152 1651 
Q 1152 1850 1190 2042 
Q 1229 2234 1321 2381 
Q 1414 2528 1568 2621 
Q 1722 2714 1952 2714 
Q 2182 2714 2339 2621 
Q 2496 2528 2589 2381 
Q 2682 2234 2720 2042 
Q 2758 1850 2758 1651 
Q 2758 1453 2720 1264 
Q 2682 1075 2589 924 
Q 2496 774 2339 684 
Q 2182 595 1952 595 
Q 1722 595 1568 684 
Q 1414 774 1321 924 
Q 1229 1075 1190 1264 
Q 1152 1453 1152 1651 
z
M 243 1651 
Q 243 1254 364 934 
Q 486 614 710 387 
Q 934 160 1248 38 
Q 1562 -83 1952 -83 
Q 2342 -83 2659 38 
Q 2976 160 3200 387 
Q 3424 614 3545 934 
Q 3667 1254 3667 1651 
Q 3667 2048 3545 2371 
Q 3424 2694 3200 2921 
Q 2976 3149 2659 3273 
Q 2342 3398 1952 3398 
Q 1562 3398 1248 3273 
Q 934 3149 710 2921 
Q 486 2694 364 2371 
Q 243 2048 243 1651 
z
" transform="scale(0.015625)"/>
       <path id="HelveticaNeue-Bold-62" d="M 2771 1651 
Q 2771 1446 2726 1254 
Q 2682 1062 2586 915 
Q 2490 768 2346 681 
Q 2202 595 1997 595 
Q 1798 595 1651 681 
Q 1504 768 1408 915 
Q 1312 1062 1267 1254 
Q 1222 1446 1222 1651 
Q 1222 1862 1267 2054 
Q 1312 2246 1408 2393 
Q 1504 2541 1651 2627 
Q 1798 2714 1997 2714 
Q 2202 2714 2346 2627 
Q 2490 2541 2586 2393 
Q 2682 2246 2726 2054 
Q 2771 1862 2771 1651 
z
M 346 4570 
L 346 0 
L 1210 0 
L 1210 422 
L 1222 422 
Q 1370 147 1658 32 
Q 1946 -83 2310 -83 
Q 2560 -83 2803 19 
Q 3046 122 3241 333 
Q 3437 544 3558 873 
Q 3680 1203 3680 1658 
Q 3680 2112 3558 2441 
Q 3437 2771 3241 2982 
Q 3046 3194 2803 3296 
Q 2560 3398 2310 3398 
Q 2003 3398 1718 3280 
Q 1434 3162 1267 2906 
L 1254 2906 
L 1254 4570 
L 346 4570 
z
" transform="scale(0.015625)"/>
       <path id="HelveticaNeue-Bold-61" d="M 307 2291 
L 1216 2291 
Q 1242 2560 1395 2675 
Q 1549 2790 1818 2790 
Q 1939 2790 2044 2774 
Q 2150 2758 2230 2710 
Q 2310 2662 2358 2576 
Q 2406 2490 2406 2342 
Q 2413 2202 2323 2128 
Q 2234 2054 2080 2016 
Q 1926 1978 1728 1958 
Q 1530 1939 1325 1907 
Q 1120 1875 918 1820 
Q 717 1766 560 1657 
Q 403 1549 304 1366 
Q 205 1184 205 902 
Q 205 646 291 460 
Q 378 275 531 153 
Q 685 32 889 -25 
Q 1094 -83 1331 -83 
Q 1638 -83 1932 6 
Q 2227 96 2445 320 
Q 2451 237 2467 157 
Q 2483 77 2509 0 
L 3430 0 
Q 3366 102 3340 307 
Q 3315 512 3315 736 
L 3315 2458 
Q 3315 2758 3180 2940 
Q 3046 3123 2835 3225 
Q 2624 3328 2368 3363 
Q 2112 3398 1862 3398 
Q 1587 3398 1315 3344 
Q 1043 3290 825 3162 
Q 608 3034 467 2822 
Q 326 2611 307 2291 
z
M 2406 1619 
L 2406 1280 
Q 2406 1203 2390 1075 
Q 2374 947 2304 822 
Q 2234 698 2086 608 
Q 1939 518 1670 518 
Q 1562 518 1459 537 
Q 1357 557 1280 605 
Q 1203 653 1158 736 
Q 1114 819 1114 941 
Q 1114 1069 1158 1152 
Q 1203 1235 1276 1289 
Q 1350 1344 1449 1376 
Q 1549 1408 1651 1427 
Q 1760 1446 1869 1459 
Q 1978 1472 2077 1491 
Q 2176 1510 2262 1539 
Q 2349 1568 2406 1619 
z
" transform="scale(0.015625)"/>
       <path id="HelveticaNeue-Bold-69" d="M 1280 3821 
L 1280 4570 
L 371 4570 
L 371 3821 
L 1280 3821 
z
M 371 3309 
L 371 0 
L 1280 0 
L 1280 3309 
L 371 3309 
z
" transform="scale(0.015625)"/>
       <path id="HelveticaNeue-Bold-74" d="M 1498 3309 
L 1498 4301 
L 589 4301 
L 589 3309 
L 38 3309 
L 38 2701 
L 589 2701 
L 589 749 
Q 589 499 672 345 
Q 755 192 899 109 
Q 1043 26 1232 -3 
Q 1421 -32 1632 -32 
Q 1766 -32 1907 -25 
Q 2048 -19 2163 0 
L 2163 704 
Q 2099 691 2028 684 
Q 1958 678 1882 678 
Q 1651 678 1574 755 
Q 1498 832 1498 1062 
L 1498 2701 
L 2163 2701 
L 2163 3309 
L 1498 3309 
z
" transform="scale(0.015625)"/>
       <path id="HelveticaNeue-Bold-79" d="M 1978 -410 
L 3360 3309 
L 2419 3309 
L 1696 1043 
L 1683 1043 
L 934 3309 
L -32 3309 
L 1126 205 
Q 1165 109 1165 0 
Q 1165 -147 1078 -268 
Q 992 -390 813 -410 
Q 678 -416 544 -403 
Q 410 -390 282 -378 
L 282 -1126 
Q 422 -1139 560 -1148 
Q 698 -1158 838 -1158 
Q 1306 -1158 1568 -985 
Q 1830 -813 1978 -410 
z
" transform="scale(0.015625)"/>
       <path id="HelveticaNeue-Bold-44" d="M 1446 845 
L 1446 3725 
L 2163 3725 
Q 2534 3725 2787 3619 
Q 3040 3514 3193 3315 
Q 3347 3117 3414 2838 
Q 3482 2560 3482 2214 
Q 3482 1837 3386 1574 
Q 3290 1312 3130 1149 
Q 2970 986 2765 915 
Q 2560 845 2342 845 
L 1446 845 
z
M 442 4570 
L 442 0 
L 2413 0 
Q 2938 0 3325 176 
Q 3712 352 3971 659 
Q 4230 966 4358 1388 
Q 4486 1811 4486 2310 
Q 4486 2880 4329 3302 
Q 4173 3725 3894 4006 
Q 3616 4288 3235 4429 
Q 2854 4570 2413 4570 
L 442 4570 
z
" transform="scale(0.015625)"/>
       <path id="HelveticaNeue-Bold-6e" d="M 346 3309 
L 346 0 
L 1254 0 
L 1254 1734 
Q 1254 2240 1420 2461 
Q 1587 2682 1958 2682 
Q 2285 2682 2413 2480 
Q 2541 2278 2541 1869 
L 2541 0 
L 3450 0 
L 3450 2035 
Q 3450 2342 3395 2595 
Q 3341 2848 3206 3024 
Q 3072 3200 2838 3299 
Q 2605 3398 2240 3398 
Q 1952 3398 1677 3267 
Q 1402 3136 1229 2848 
L 1210 2848 
L 1210 3309 
L 346 3309 
z
" transform="scale(0.015625)"/>
      </defs>
      <use xlink:href="#HelveticaNeue-Bold-50"/>
      <use xlink:href="#HelveticaNeue-Bold-72" x="66.699997"/>
      <use xlink:href="#HelveticaNeue-Bold-6f" x="103.849991"/>
      <use xlink:href="#HelveticaNeue-Bold-62" x="164.949982"/>
      <use xlink:href="#HelveticaNeue-Bold-61" x="226.049973"/>
      <use xlink:href="#HelveticaNeue-Bold-62" x="283.449966"/>
      <use xlink:href="#HelveticaNeue-Bold-69" x="344.549957"/>
      <use xlink:href="#HelveticaNeue-Bold-6c" x="370.349945"/>
      <use xlink:href="#HelveticaNeue-Bold-69" x="396.149933"/>
      <use xlink:href="#HelveticaNeue-Bold-74" x="421.949921"/>
      <use xlink:href="#HelveticaNeue-Bold-79" x="457.149918"/>
      <use xlink:href="#HelveticaNeue-Bold-20" x="509.049911"/>
      <use xlink:href="#HelveticaNeue-Bold-44" x="536.849899"/>
      <use xlink:href="#HelveticaNeue-Bold-65" x="610.94989"/>
      <use xlink:href="#HelveticaNeue-Bold-6e" x="668.349884"/>
      <use xlink:href="#HelveticaNeue-Bold-73" x="727.649872"/>
      <use xlink:href="#HelveticaNeue-Bold-69" x="781.349869"/>
      <use xlink:href="#HelveticaNeue-Bold-74" x="807.149857"/>
      <use xlink:href="#HelveticaNeue-Bold-79" x="842.349854"/>
     </g>
    </g>
   </g>
   <g id="patch_4">
    <path d="M 53.447656 481.429375 
L 53.447656 37.909375 
" style="fill: none; stroke: #000000; stroke-width: 0.8; stroke-linejoin: miter; stroke-linecap: square"/>
   </g>
   <g id="patch_5">
    <path d="M 499.847656 481.429375 
L 499.847656 37.909375 
" style="fill: none; stroke: #000000; stroke-width: 0.8; stroke-linejoin: miter; stroke-linecap: square"/>
   </g>
   <g id="patch_6">
    <path d="M 53.447656 481.429375 
L 499.847656 481.429375 
" style="fill: none; stroke: #000000; stroke-width: 0.8; stroke-linejoin: miter; stroke-linecap: square"/>
   </g>
   <g id="patch_7">
    <path d="M 53.447656 37.909375 
L 499.847656 37.909375 
" style="fill: none; stroke: #000000; stroke-width: 0.8; stroke-linejoin: miter; stroke-linecap: square"/>
   </g>
   <g id="text_16">
    <!--  Model: wabs*powerlaw -->
    <g transform="translate(53.447656 22.909375) scale(0.22 -0.22)">
     <defs>
      <path id="HelveticaNeue-Bold-4d" d="M 442 4570 
L 442 0 
L 1382 0 
L 1382 3206 
L 1395 3206 
L 2515 0 
L 3290 0 
L 4410 3238 
L 4422 3238 
L 4422 0 
L 5363 0 
L 5363 4570 
L 3949 4570 
L 2938 1427 
L 2925 1427 
L 1856 4570 
L 442 4570 
z
" transform="scale(0.015625)"/>
      <path id="HelveticaNeue-Bold-64" d="M 2694 1664 
Q 2694 1459 2656 1267 
Q 2618 1075 2528 924 
Q 2438 774 2288 684 
Q 2138 595 1914 595 
Q 1702 595 1552 688 
Q 1402 781 1302 931 
Q 1203 1082 1158 1274 
Q 1114 1466 1114 1658 
Q 1114 1862 1155 2051 
Q 1197 2240 1289 2387 
Q 1382 2534 1536 2624 
Q 1690 2714 1914 2714 
Q 2138 2714 2285 2624 
Q 2432 2534 2525 2390 
Q 2618 2246 2656 2057 
Q 2694 1869 2694 1664 
z
M 2707 422 
L 2707 0 
L 3571 0 
L 3571 4570 
L 2662 4570 
L 2662 2906 
L 2650 2906 
Q 2496 3149 2230 3273 
Q 1965 3398 1670 3398 
Q 1306 3398 1030 3254 
Q 755 3110 572 2873 
Q 390 2637 297 2326 
Q 205 2016 205 1683 
Q 205 1338 297 1018 
Q 390 698 572 451 
Q 755 205 1036 61 
Q 1318 -83 1690 -83 
Q 2016 -83 2275 35 
Q 2534 154 2694 422 
L 2707 422 
z
" transform="scale(0.015625)"/>
      <path id="HelveticaNeue-Bold-3a" d="M 1395 2266 
L 1395 3251 
L 390 3251 
L 390 2266 
L 1395 2266 
z
M 390 986 
L 390 0 
L 1395 0 
L 1395 986 
L 390 986 
z
" transform="scale(0.015625)"/>
      <path id="HelveticaNeue-Bold-77" d="M 4128 0 
L 5171 3309 
L 4237 3309 
L 3629 1069 
L 3616 1069 
L 3053 3309 
L 2170 3309 
L 1619 1062 
L 1606 1062 
L 998 3309 
L 38 3309 
L 1088 0 
L 2029 0 
L 2592 2221 
L 2605 2221 
L 3194 0 
L 4128 0 
z
" transform="scale(0.015625)"/>
      <path id="HelveticaNeue-Bold-2a" d="M 1549 3770 
L 1549 4570 
L 1037 4570 
L 1037 3770 
L 314 4051 
L 141 3558 
L 883 3309 
L 410 2682 
L 838 2368 
L 1286 3027 
L 1760 2368 
L 2182 2682 
L 1709 3309 
L 2464 3558 
L 2291 4051 
L 1549 3770 
z
" transform="scale(0.015625)"/>
      <path id="HelveticaNeue-Bold-70" d="M 2016 595 
Q 1798 595 1644 684 
Q 1491 774 1398 918 
Q 1306 1062 1264 1254 
Q 1222 1446 1222 1645 
Q 1222 1850 1260 2042 
Q 1299 2234 1392 2381 
Q 1485 2528 1635 2621 
Q 1786 2714 2010 2714 
Q 2227 2714 2377 2621 
Q 2528 2528 2624 2377 
Q 2720 2227 2761 2035 
Q 2803 1843 2803 1645 
Q 2803 1446 2764 1254 
Q 2726 1062 2633 918 
Q 2541 774 2390 684 
Q 2240 595 2016 595 
z
M 346 3309 
L 346 -1158 
L 1254 -1158 
L 1254 410 
L 1267 410 
Q 1434 166 1693 41 
Q 1952 -83 2259 -83 
Q 2624 -83 2896 57 
Q 3168 198 3350 435 
Q 3533 672 3622 979 
Q 3712 1286 3712 1619 
Q 3712 1971 3622 2294 
Q 3533 2618 3347 2861 
Q 3162 3104 2880 3251 
Q 2598 3398 2208 3398 
Q 1901 3398 1645 3276 
Q 1389 3155 1222 2886 
L 1210 2886 
L 1210 3309 
L 346 3309 
z
" transform="scale(0.015625)"/>
     </defs>
     <use xlink:href="#HelveticaNeue-Bold-20"/>
     <use xlink:href="#HelveticaNeue-Bold-4d" x="27.799988"/>
     <use xlink:href="#HelveticaNeue-Bold-6f" x="118.499969"/>
     <use xlink:href="#HelveticaNeue-Bold-64" x="179.59996"/>
     <use xlink:href="#HelveticaNeue-Bold-65" x="240.699951"/>
     <use xlink:href="#HelveticaNeue-Bold-6c" x="298.099945"/>
     <use xlink:href="#HelveticaNeue-Bold-3a" x="323.899933"/>
     <use xlink:href="#HelveticaNeue-Bold-20" x="351.699921"/>
     <use xlink:href="#HelveticaNeue-Bold-77" x="379.499908"/>
     <use xlink:href="#HelveticaNeue-Bold-61" x="460.899902"/>
     <use xlink:href="#HelveticaNeue-Bold-62" x="518.299896"/>
     <use xlink:href="#HelveticaNeue-Bold-73" x="579.399887"/>
     <use xlink:href="#HelveticaNeue-Bold-2a" x="633.099884"/>
     <use xlink:href="#HelveticaNeue-Bold-70" x="673.799881"/>
     <use xlink:href="#HelveticaNeue-Bold-6f" x="734.899872"/>
     <use xlink:href="#HelveticaNeue-Bold-77" x="795.999863"/>
     <use xlink:href="#HelveticaNeue-Bold-65" x="877.399857"/>
     <use xlink:href="#HelveticaNeue-Bold-72" x="934.79985"/>
     <use xlink:href="#HelveticaNeue-Bold-6c" x="973.699844"/>
     <use xlink:href="#HelveticaNeue-Bold-61" x="999.499832"/>
     <use xlink:href="#HelveticaNeue-Bold-77" x="1056.899826"/>
    </g>
   </g>
   <g id="LineCollection_1">
    <path d="M 281.530806 481.429375 
L 281.530806 -1 
" clip-path="url(#p6173a1606d)" style="fill: none; stroke: #000000; stroke-width: 3"/>
   </g>
   <g id="LineCollection_2">
    <path d="M 229.206275 481.429375 
L 229.206275 -1 
" clip-path="url(#p6173a1606d)" style="fill: none; stroke-dasharray: 11.1,4.8; stroke-dashoffset: 0; stroke: #000000; stroke-width: 3"/>
   </g>
   <g id="LineCollection_3">
    <path d="M 338.907753 481.429375 
L 338.907753 -1 
" clip-path="url(#p6173a1606d)" style="fill: none; stroke-dasharray: 11.1,4.8; stroke-dashoffset: 0; stroke: #000000; stroke-width: 3"/>
   </g>
   <g id="legend_1">
    <g id="patch_8">
     <path d="M 376.623594 102.889375 
L 487.247656 102.889375 
Q 490.847656 102.889375 490.847656 99.289375 
L 490.847656 50.509375 
Q 490.847656 46.909375 487.247656 46.909375 
L 376.623594 46.909375 
Q 373.023594 46.909375 373.023594 50.509375 
L 373.023594 99.289375 
Q 373.023594 102.889375 376.623594 102.889375 
z
" style="fill: #ffffff; opacity: 0.9; stroke: #cccccc; stroke-linejoin: miter"/>
    </g>
    <g id="line2d_117">
     <path d="M 385.623594 60.6625 
L 398.223594 60.6625 
L 410.823594 60.6625 
" style="fill: none; stroke: #000000; stroke-width: 3"/>
    </g>
    <g id="text_17">
     <!-- Mean -->
     <g transform="translate(430.623594 66.9625) scale(0.18 -0.18)">
      <defs>
       <path id="HelveticaNeue-Medium-4d" d="M 474 4570 
L 1600 4570 
L 2861 992 
L 2874 992 
L 4102 4570 
L 5216 4570 
L 5216 0 
L 4454 0 
L 4454 3526 
L 4442 3526 
L 3174 0 
L 2515 0 
L 1248 3526 
L 1235 3526 
L 1235 0 
L 474 0 
L 474 4570 
z
" transform="scale(0.015625)"/>
       <path id="HelveticaNeue-Medium-65" d="M 2656 1946 
Q 2643 2118 2582 2278 
Q 2522 2438 2416 2556 
Q 2310 2675 2160 2748 
Q 2010 2822 1824 2822 
Q 1632 2822 1475 2755 
Q 1318 2688 1206 2569 
Q 1094 2451 1027 2291 
Q 960 2131 954 1946 
L 2656 1946 
z
M 954 1466 
Q 954 1274 1008 1094 
Q 1062 915 1171 780 
Q 1280 646 1446 566 
Q 1613 486 1843 486 
Q 2163 486 2358 624 
Q 2554 762 2650 1037 
L 3341 1037 
Q 3283 768 3142 557 
Q 3002 346 2803 202 
Q 2605 58 2358 -16 
Q 2112 -90 1843 -90 
Q 1453 -90 1152 38 
Q 851 166 643 396 
Q 435 627 329 947 
Q 224 1267 224 1651 
Q 224 2003 336 2320 
Q 448 2637 656 2877 
Q 864 3117 1158 3257 
Q 1453 3398 1824 3398 
Q 2214 3398 2524 3235 
Q 2835 3072 3040 2803 
Q 3245 2534 3337 2185 
Q 3430 1837 3386 1466 
L 954 1466 
z
" transform="scale(0.015625)"/>
       <path id="HelveticaNeue-Medium-61" d="M 3155 736 
Q 3155 602 3190 544 
Q 3226 486 3328 486 
Q 3360 486 3405 486 
Q 3450 486 3507 499 
L 3507 -6 
Q 3469 -19 3408 -35 
Q 3347 -51 3283 -64 
Q 3219 -77 3155 -83 
Q 3091 -90 3046 -90 
Q 2822 -90 2675 0 
Q 2528 90 2483 314 
Q 2266 102 1949 6 
Q 1632 -90 1338 -90 
Q 1114 -90 909 -29 
Q 704 32 547 150 
Q 390 269 297 451 
Q 205 634 205 877 
Q 205 1184 317 1376 
Q 429 1568 611 1677 
Q 794 1786 1021 1834 
Q 1248 1882 1478 1907 
Q 1677 1946 1856 1962 
Q 2035 1978 2172 2016 
Q 2310 2054 2390 2134 
Q 2470 2214 2470 2374 
Q 2470 2515 2403 2604 
Q 2336 2694 2237 2742 
Q 2138 2790 2016 2806 
Q 1894 2822 1786 2822 
Q 1478 2822 1280 2694 
Q 1082 2566 1056 2298 
L 326 2298 
Q 346 2618 480 2829 
Q 614 3040 822 3168 
Q 1030 3296 1292 3347 
Q 1555 3398 1830 3398 
Q 2074 3398 2310 3347 
Q 2547 3296 2736 3181 
Q 2925 3066 3040 2883 
Q 3155 2701 3155 2438 
L 3155 736 
z
M 2426 1658 
Q 2259 1549 2016 1526 
Q 1773 1504 1530 1459 
Q 1414 1440 1305 1405 
Q 1197 1370 1113 1309 
Q 1030 1248 982 1149 
Q 934 1050 934 909 
Q 934 787 1004 704 
Q 1075 621 1174 573 
Q 1274 525 1392 505 
Q 1510 486 1606 486 
Q 1728 486 1869 518 
Q 2010 550 2134 627 
Q 2259 704 2342 822 
Q 2426 941 2426 1114 
L 2426 1658 
z
" transform="scale(0.015625)"/>
       <path id="HelveticaNeue-Medium-6e" d="M 384 3309 
L 1075 3309 
L 1075 2822 
L 1088 2810 
Q 1254 3085 1523 3241 
Q 1792 3398 2118 3398 
Q 2662 3398 2976 3116 
Q 3290 2835 3290 2272 
L 3290 0 
L 2560 0 
L 2560 2080 
Q 2547 2470 2393 2646 
Q 2240 2822 1914 2822 
Q 1728 2822 1581 2755 
Q 1434 2688 1331 2569 
Q 1229 2451 1171 2291 
Q 1114 2131 1114 1952 
L 1114 0 
L 384 0 
L 384 3309 
z
" transform="scale(0.015625)"/>
      </defs>
      <use xlink:href="#HelveticaNeue-Medium-4d"/>
      <use xlink:href="#HelveticaNeue-Medium-65" x="88.899994"/>
      <use xlink:href="#HelveticaNeue-Medium-61" x="144.499985"/>
      <use xlink:href="#HelveticaNeue-Medium-6e" x="200.099976"/>
     </g>
    </g>
    <g id="line2d_118">
     <path d="M 385.623594 85.9525 
L 398.223594 85.9525 
L 410.823594 85.9525 
" style="fill: none; stroke-dasharray: 11.1,4.8; stroke-dashoffset: 0; stroke: #000000; stroke-width: 3"/>
    </g>
    <g id="text_18">
     <!-- 68.2% -->
     <g transform="translate(430.623594 92.2525) scale(0.18 -0.18)">
      <defs>
       <path id="HelveticaNeue-Medium-25" d="M 1101 3296 
Q 1101 3117 1126 2960 
Q 1152 2803 1209 2688 
Q 1267 2573 1360 2505 
Q 1453 2438 1587 2438 
Q 1722 2438 1818 2505 
Q 1914 2573 1971 2688 
Q 2029 2803 2057 2960 
Q 2086 3117 2086 3296 
Q 2086 3456 2064 3609 
Q 2042 3763 1984 3884 
Q 1926 4006 1830 4080 
Q 1734 4154 1587 4154 
Q 1440 4154 1344 4080 
Q 1248 4006 1193 3884 
Q 1139 3763 1120 3609 
Q 1101 3456 1101 3296 
z
M 1594 2022 
Q 1306 2022 1101 2124 
Q 896 2227 768 2400 
Q 640 2573 582 2803 
Q 525 3034 525 3296 
Q 525 3552 585 3785 
Q 646 4019 777 4192 
Q 909 4365 1110 4467 
Q 1312 4570 1594 4570 
Q 1875 4570 2076 4467 
Q 2278 4365 2409 4192 
Q 2541 4019 2601 3785 
Q 2662 3552 2662 3296 
Q 2662 3034 2604 2803 
Q 2547 2573 2419 2400 
Q 2291 2227 2086 2124 
Q 1882 2022 1594 2022 
z
M 4314 1184 
Q 4314 1005 4339 848 
Q 4365 691 4422 576 
Q 4480 461 4573 393 
Q 4666 326 4800 326 
Q 4934 326 5030 393 
Q 5126 461 5184 576 
Q 5242 691 5270 848 
Q 5299 1005 5299 1184 
Q 5299 1344 5276 1497 
Q 5254 1651 5196 1772 
Q 5139 1894 5043 1968 
Q 4947 2042 4800 2042 
Q 4653 2042 4557 1968 
Q 4461 1894 4406 1772 
Q 4352 1651 4333 1497 
Q 4314 1344 4314 1184 
z
M 4806 -90 
Q 4518 -90 4313 12 
Q 4109 115 3981 288 
Q 3853 461 3795 691 
Q 3738 922 3738 1184 
Q 3738 1440 3798 1673 
Q 3859 1907 3990 2080 
Q 4122 2253 4323 2355 
Q 4525 2458 4806 2458 
Q 5088 2458 5289 2355 
Q 5491 2253 5622 2080 
Q 5754 1907 5814 1673 
Q 5875 1440 5875 1184 
Q 5875 922 5817 691 
Q 5760 461 5632 288 
Q 5504 115 5299 12 
Q 5094 -90 4806 -90 
z
M 4154 4634 
L 4640 4634 
L 2163 -154 
L 1664 -154 
L 4154 4634 
z
" transform="scale(0.015625)"/>
      </defs>
      <use xlink:href="#HelveticaNeue-Medium-36"/>
      <use xlink:href="#HelveticaNeue-Medium-38" x="55.599991"/>
      <use xlink:href="#HelveticaNeue-Medium-2e" x="111.199982"/>
      <use xlink:href="#HelveticaNeue-Medium-32" x="138.999969"/>
      <use xlink:href="#HelveticaNeue-Medium-25" x="194.59996"/>
     </g>
    </g>
   </g>
  </g>
 </g>
 <defs>
  <clipPath id="p6173a1606d">
   <rect x="53.447656" y="37.909375" width="446.4" height="443.52"/>
  </clipPath>
 </defs>
</svg>
