<?xml version="1.0" encoding="utf-8" standalone="no"?>
<!DOCTYPE svg PUBLIC "-//W3C//DTD SVG 1.1//EN"
  "http://www.w3.org/Graphics/SVG/1.1/DTD/svg11.dtd">
<svg xmlns:xlink="http://www.w3.org/1999/xlink" width="617.998125pt" height="397.355pt" viewBox="0 0 617.998125 397.355" xmlns="http://www.w3.org/2000/svg" version="1.1">
 <metadata>
  <rdf:RDF xmlns:dc="http://purl.org/dc/elements/1.1/" xmlns:cc="http://creativecommons.org/ns#" xmlns:rdf="http://www.w3.org/1999/02/22-rdf-syntax-ns#">
   <cc:Work>
    <dc:type rdf:resource="http://purl.org/dc/dcmitype/StillImage"/>
    <dc:date>2024-05-26T20:59:00.544130</dc:date>
    <dc:format>image/svg+xml</dc:format>
    <dc:creator>
     <cc:Agent>
      <dc:title>Matplotlib v3.9.0, https://matplotlib.org/</dc:title>
     </cc:Agent>
    </dc:creator>
   </cc:Work>
  </rdf:RDF>
 </metadata>
 <defs>
  <style type="text/css">*{stroke-linejoin: round; stroke-linecap: butt}</style>
 </defs>
 <g id="figure_1">
  <g id="patch_1">
   <path d="M 0 397.355 
L 617.998125 397.355 
L 617.998125 0 
L 0 0 
z
" style="fill: #ffffff"/>
  </g>
  <g id="axes_1">
   <g id="patch_2">
    <path d="M 51.048125 357.535 
L 609.048125 357.535 
L 609.048125 24.895 
L 51.048125 24.895 
z
" style="fill: #ffffff"/>
   </g>
   <g id="matplotlib.axis_1">
    <g id="xtick_1">
     <g id="line2d_1">
      <defs>
       <path id="mc533293e20" d="M 0 1.75 
L 0 -1.75 
" style="stroke: #000000; stroke-width: 0.8"/>
      </defs>
      <g>
       <use xlink:href="#mc533293e20" x="51.048125" y="357.535" style="stroke: #000000; stroke-width: 0.8"/>
      </g>
     </g>
     <g id="line2d_2">
      <g>
       <use xlink:href="#mc533293e20" x="51.048125" y="24.895" style="stroke: #000000; stroke-width: 0.8"/>
      </g>
     </g>
     <g id="text_1">
      <!-- 1.2 -->
      <g transform="translate(44.098906 369.925625) scale(0.1 -0.1)">
       <defs>
        <path id="HelveticaNeue-Medium-31" d="M 339 3738 
Q 570 3738 787 3776 
Q 1005 3814 1181 3904 
Q 1357 3994 1481 4134 
Q 1606 4275 1645 4480 
L 2240 4480 
L 2240 0 
L 1440 0 
L 1440 3162 
L 339 3162 
L 339 3738 
z
" transform="scale(0.015625)"/>
        <path id="HelveticaNeue-Medium-2e" d="M 442 864 
L 1331 864 
L 1331 0 
L 442 0 
L 442 864 
z
" transform="scale(0.015625)"/>
        <path id="HelveticaNeue-Medium-32" d="M 3309 0 
L 250 0 
Q 256 557 518 973 
Q 781 1389 1235 1696 
Q 1453 1856 1689 2006 
Q 1926 2157 2124 2329 
Q 2323 2502 2451 2704 
Q 2579 2906 2586 3168 
Q 2586 3290 2557 3427 
Q 2528 3565 2445 3683 
Q 2362 3802 2214 3882 
Q 2067 3962 1830 3962 
Q 1613 3962 1469 3875 
Q 1325 3789 1238 3638 
Q 1152 3488 1110 3283 
Q 1069 3078 1062 2842 
L 333 2842 
Q 333 3213 432 3529 
Q 531 3846 729 4076 
Q 928 4307 1213 4438 
Q 1498 4570 1875 4570 
Q 2285 4570 2560 4435 
Q 2835 4301 3004 4096 
Q 3174 3891 3244 3651 
Q 3315 3411 3315 3194 
Q 3315 2925 3232 2707 
Q 3149 2490 3008 2307 
Q 2867 2125 2688 1971 
Q 2509 1818 2317 1683 
Q 2125 1549 1933 1427 
Q 1741 1306 1577 1184 
Q 1414 1062 1292 931 
Q 1171 800 1126 653 
L 3309 653 
L 3309 0 
z
" transform="scale(0.015625)"/>
       </defs>
       <use xlink:href="#HelveticaNeue-Medium-31"/>
       <use xlink:href="#HelveticaNeue-Medium-2e" x="55.599991"/>
       <use xlink:href="#HelveticaNeue-Medium-32" x="83.399979"/>
      </g>
     </g>
    </g>
    <g id="xtick_2">
     <g id="line2d_3">
      <g>
       <use xlink:href="#mc533293e20" x="116.695184" y="357.535" style="stroke: #000000; stroke-width: 0.8"/>
      </g>
     </g>
     <g id="line2d_4">
      <g>
       <use xlink:href="#mc533293e20" x="116.695184" y="24.895" style="stroke: #000000; stroke-width: 0.8"/>
      </g>
     </g>
     <g id="text_2">
      <!-- 1.4 -->
      <g transform="translate(109.745965 369.925625) scale(0.1 -0.1)">
       <defs>
        <path id="HelveticaNeue-Medium-34" d="M 717 1638 
L 2074 1638 
L 2074 3610 
L 2061 3610 
L 717 1638 
z
M 3341 1062 
L 2765 1062 
L 2765 0 
L 2074 0 
L 2074 1062 
L 154 1062 
L 154 1786 
L 2074 4480 
L 2765 4480 
L 2765 1638 
L 3341 1638 
L 3341 1062 
z
" transform="scale(0.015625)"/>
       </defs>
       <use xlink:href="#HelveticaNeue-Medium-31"/>
       <use xlink:href="#HelveticaNeue-Medium-2e" x="55.599991"/>
       <use xlink:href="#HelveticaNeue-Medium-34" x="83.399979"/>
      </g>
     </g>
    </g>
    <g id="xtick_3">
     <g id="line2d_5">
      <g>
       <use xlink:href="#mc533293e20" x="182.342243" y="357.535" style="stroke: #000000; stroke-width: 0.8"/>
      </g>
     </g>
     <g id="line2d_6">
      <g>
       <use xlink:href="#mc533293e20" x="182.342243" y="24.895" style="stroke: #000000; stroke-width: 0.8"/>
      </g>
     </g>
     <g id="text_3">
      <!-- 1.6 -->
      <g transform="translate(175.393024 369.925625) scale(0.1 -0.1)">
       <defs>
        <path id="HelveticaNeue-Medium-36" d="M 2528 3347 
Q 2502 3622 2332 3792 
Q 2163 3962 1875 3962 
Q 1677 3962 1533 3888 
Q 1389 3814 1289 3692 
Q 1190 3571 1129 3414 
Q 1069 3258 1030 3085 
Q 992 2912 976 2742 
Q 960 2573 947 2426 
L 960 2413 
Q 1107 2682 1366 2813 
Q 1626 2944 1926 2944 
Q 2259 2944 2521 2829 
Q 2784 2714 2966 2512 
Q 3149 2310 3245 2035 
Q 3341 1760 3341 1440 
Q 3341 1114 3235 835 
Q 3130 557 2931 349 
Q 2733 141 2457 25 
Q 2182 -90 1850 -90 
Q 1357 -90 1040 92 
Q 723 275 540 592 
Q 358 909 288 1334 
Q 218 1760 218 2253 
Q 218 2656 304 3065 
Q 390 3475 588 3811 
Q 787 4147 1110 4358 
Q 1434 4570 1907 4570 
Q 2176 4570 2413 4480 
Q 2650 4390 2832 4230 
Q 3014 4070 3129 3846 
Q 3245 3622 3258 3347 
L 2528 3347 
z
M 1824 518 
Q 2022 518 2169 598 
Q 2317 678 2416 806 
Q 2515 934 2563 1104 
Q 2611 1274 2611 1453 
Q 2611 1632 2563 1798 
Q 2515 1965 2416 2089 
Q 2317 2214 2169 2291 
Q 2022 2368 1824 2368 
Q 1626 2368 1475 2294 
Q 1325 2221 1222 2096 
Q 1120 1971 1069 1804 
Q 1018 1638 1018 1453 
Q 1018 1267 1069 1100 
Q 1120 934 1222 803 
Q 1325 672 1475 595 
Q 1626 518 1824 518 
z
" transform="scale(0.015625)"/>
       </defs>
       <use xlink:href="#HelveticaNeue-Medium-31"/>
       <use xlink:href="#HelveticaNeue-Medium-2e" x="55.599991"/>
       <use xlink:href="#HelveticaNeue-Medium-36" x="83.399979"/>
      </g>
     </g>
    </g>
    <g id="xtick_4">
     <g id="line2d_7">
      <g>
       <use xlink:href="#mc533293e20" x="247.989301" y="357.535" style="stroke: #000000; stroke-width: 0.8"/>
      </g>
     </g>
     <g id="line2d_8">
      <g>
       <use xlink:href="#mc533293e20" x="247.989301" y="24.895" style="stroke: #000000; stroke-width: 0.8"/>
      </g>
     </g>
     <g id="text_4">
      <!-- 1.8 -->
      <g transform="translate(241.040083 369.925625) scale(0.1 -0.1)">
       <defs>
        <path id="HelveticaNeue-Medium-38" d="M 1779 3994 
Q 1485 3994 1280 3818 
Q 1075 3642 1075 3309 
Q 1075 2989 1273 2819 
Q 1472 2650 1779 2650 
Q 2086 2650 2284 2819 
Q 2483 2989 2483 3309 
Q 2483 3642 2278 3818 
Q 2074 3994 1779 3994 
z
M 1779 -90 
Q 1440 -90 1149 6 
Q 858 102 646 284 
Q 435 467 316 729 
Q 198 992 198 1318 
Q 198 1741 419 2029 
Q 640 2317 1018 2413 
L 1018 2426 
Q 710 2541 547 2781 
Q 384 3021 384 3347 
Q 384 3923 745 4246 
Q 1107 4570 1779 4570 
Q 2451 4570 2812 4246 
Q 3174 3923 3174 3347 
Q 3174 3021 3011 2781 
Q 2848 2541 2541 2426 
L 2541 2413 
Q 2918 2317 3139 2029 
Q 3360 1741 3360 1318 
Q 3360 992 3241 729 
Q 3123 467 2912 284 
Q 2701 102 2409 6 
Q 2118 -90 1779 -90 
z
M 1779 486 
Q 2144 486 2387 704 
Q 2630 922 2630 1318 
Q 2630 1690 2387 1898 
Q 2144 2106 1779 2106 
Q 1414 2106 1171 1898 
Q 928 1690 928 1318 
Q 928 922 1171 704 
Q 1414 486 1779 486 
z
" transform="scale(0.015625)"/>
       </defs>
       <use xlink:href="#HelveticaNeue-Medium-31"/>
       <use xlink:href="#HelveticaNeue-Medium-2e" x="55.599991"/>
       <use xlink:href="#HelveticaNeue-Medium-38" x="83.399979"/>
      </g>
     </g>
    </g>
    <g id="xtick_5">
     <g id="line2d_9">
      <g>
       <use xlink:href="#mc533293e20" x="313.63636" y="357.535" style="stroke: #000000; stroke-width: 0.8"/>
      </g>
     </g>
     <g id="line2d_10">
      <g>
       <use xlink:href="#mc533293e20" x="313.63636" y="24.895" style="stroke: #000000; stroke-width: 0.8"/>
      </g>
     </g>
     <g id="text_5">
      <!-- 2.0 -->
      <g transform="translate(306.687142 369.925625) scale(0.1 -0.1)">
       <defs>
        <path id="HelveticaNeue-Medium-30" d="M 1779 4570 
Q 2259 4570 2563 4349 
Q 2867 4128 3036 3785 
Q 3206 3443 3267 3033 
Q 3328 2624 3328 2240 
Q 3328 1856 3267 1446 
Q 3206 1037 3036 694 
Q 2867 352 2563 131 
Q 2259 -90 1779 -90 
Q 1299 -90 995 131 
Q 691 352 521 694 
Q 352 1037 291 1446 
Q 230 1856 230 2240 
Q 230 2624 291 3033 
Q 352 3443 521 3785 
Q 691 4128 995 4349 
Q 1299 4570 1779 4570 
z
M 1779 518 
Q 2016 518 2176 656 
Q 2336 794 2429 1027 
Q 2522 1261 2560 1574 
Q 2598 1888 2598 2240 
Q 2598 2592 2560 2902 
Q 2522 3213 2429 3449 
Q 2336 3686 2176 3824 
Q 2016 3962 1779 3962 
Q 1536 3962 1379 3824 
Q 1222 3686 1129 3449 
Q 1037 3213 998 2902 
Q 960 2592 960 2240 
Q 960 1888 998 1574 
Q 1037 1261 1129 1027 
Q 1222 794 1379 656 
Q 1536 518 1779 518 
z
" transform="scale(0.015625)"/>
       </defs>
       <use xlink:href="#HelveticaNeue-Medium-32"/>
       <use xlink:href="#HelveticaNeue-Medium-2e" x="55.599991"/>
       <use xlink:href="#HelveticaNeue-Medium-30" x="83.399979"/>
      </g>
     </g>
    </g>
    <g id="xtick_6">
     <g id="line2d_11">
      <g>
       <use xlink:href="#mc533293e20" x="379.283419" y="357.535" style="stroke: #000000; stroke-width: 0.8"/>
      </g>
     </g>
     <g id="line2d_12">
      <g>
       <use xlink:href="#mc533293e20" x="379.283419" y="24.895" style="stroke: #000000; stroke-width: 0.8"/>
      </g>
     </g>
     <g id="text_6">
      <!-- 2.2 -->
      <g transform="translate(372.3342 369.925625) scale(0.1 -0.1)">
       <use xlink:href="#HelveticaNeue-Medium-32"/>
       <use xlink:href="#HelveticaNeue-Medium-2e" x="55.599991"/>
       <use xlink:href="#HelveticaNeue-Medium-32" x="83.399979"/>
      </g>
     </g>
    </g>
    <g id="xtick_7">
     <g id="line2d_13">
      <g>
       <use xlink:href="#mc533293e20" x="444.930478" y="357.535" style="stroke: #000000; stroke-width: 0.8"/>
      </g>
     </g>
     <g id="line2d_14">
      <g>
       <use xlink:href="#mc533293e20" x="444.930478" y="24.895" style="stroke: #000000; stroke-width: 0.8"/>
      </g>
     </g>
     <g id="text_7">
      <!-- 2.4 -->
      <g transform="translate(437.981259 369.925625) scale(0.1 -0.1)">
       <use xlink:href="#HelveticaNeue-Medium-32"/>
       <use xlink:href="#HelveticaNeue-Medium-2e" x="55.599991"/>
       <use xlink:href="#HelveticaNeue-Medium-34" x="83.399979"/>
      </g>
     </g>
    </g>
    <g id="xtick_8">
     <g id="line2d_15">
      <g>
       <use xlink:href="#mc533293e20" x="510.577537" y="357.535" style="stroke: #000000; stroke-width: 0.8"/>
      </g>
     </g>
     <g id="line2d_16">
      <g>
       <use xlink:href="#mc533293e20" x="510.577537" y="24.895" style="stroke: #000000; stroke-width: 0.8"/>
      </g>
     </g>
     <g id="text_8">
      <!-- 2.6 -->
      <g transform="translate(503.628318 369.925625) scale(0.1 -0.1)">
       <use xlink:href="#HelveticaNeue-Medium-32"/>
       <use xlink:href="#HelveticaNeue-Medium-2e" x="55.599991"/>
       <use xlink:href="#HelveticaNeue-Medium-36" x="83.399979"/>
      </g>
     </g>
    </g>
    <g id="xtick_9">
     <g id="line2d_17">
      <g>
       <use xlink:href="#mc533293e20" x="576.224596" y="357.535" style="stroke: #000000; stroke-width: 0.8"/>
      </g>
     </g>
     <g id="line2d_18">
      <g>
       <use xlink:href="#mc533293e20" x="576.224596" y="24.895" style="stroke: #000000; stroke-width: 0.8"/>
      </g>
     </g>
     <g id="text_9">
      <!-- 2.8 -->
      <g transform="translate(569.275377 369.925625) scale(0.1 -0.1)">
       <use xlink:href="#HelveticaNeue-Medium-32"/>
       <use xlink:href="#HelveticaNeue-Medium-2e" x="55.599991"/>
       <use xlink:href="#HelveticaNeue-Medium-38" x="83.399979"/>
      </g>
     </g>
    </g>
    <g id="text_10">
     <!-- Parameter: PhoIndex -->
     <g transform="translate(249.758125 387.26) scale(0.16 -0.16)">
      <defs>
       <path id="HelveticaNeue-Bold-50" d="M 1446 2419 
L 1446 3789 
L 2227 3789 
Q 2400 3789 2560 3763 
Q 2720 3738 2841 3664 
Q 2963 3590 3036 3456 
Q 3110 3322 3110 3104 
Q 3110 2886 3036 2752 
Q 2963 2618 2841 2544 
Q 2720 2470 2560 2444 
Q 2400 2419 2227 2419 
L 1446 2419 
z
M 442 4570 
L 442 0 
L 1446 0 
L 1446 1638 
L 2502 1638 
Q 2931 1638 3232 1763 
Q 3533 1888 3721 2093 
Q 3910 2298 3996 2563 
Q 4083 2829 4083 3104 
Q 4083 3386 3996 3648 
Q 3910 3910 3721 4115 
Q 3533 4320 3232 4445 
Q 2931 4570 2502 4570 
L 442 4570 
z
" transform="scale(0.015625)"/>
       <path id="HelveticaNeue-Bold-61" d="M 307 2291 
L 1216 2291 
Q 1242 2560 1395 2675 
Q 1549 2790 1818 2790 
Q 1939 2790 2044 2774 
Q 2150 2758 2230 2710 
Q 2310 2662 2358 2576 
Q 2406 2490 2406 2342 
Q 2413 2202 2323 2128 
Q 2234 2054 2080 2016 
Q 1926 1978 1728 1958 
Q 1530 1939 1325 1907 
Q 1120 1875 918 1820 
Q 717 1766 560 1657 
Q 403 1549 304 1366 
Q 205 1184 205 902 
Q 205 646 291 460 
Q 378 275 531 153 
Q 685 32 889 -25 
Q 1094 -83 1331 -83 
Q 1638 -83 1932 6 
Q 2227 96 2445 320 
Q 2451 237 2467 157 
Q 2483 77 2509 0 
L 3430 0 
Q 3366 102 3340 307 
Q 3315 512 3315 736 
L 3315 2458 
Q 3315 2758 3180 2940 
Q 3046 3123 2835 3225 
Q 2624 3328 2368 3363 
Q 2112 3398 1862 3398 
Q 1587 3398 1315 3344 
Q 1043 3290 825 3162 
Q 608 3034 467 2822 
Q 326 2611 307 2291 
z
M 2406 1619 
L 2406 1280 
Q 2406 1203 2390 1075 
Q 2374 947 2304 822 
Q 2234 698 2086 608 
Q 1939 518 1670 518 
Q 1562 518 1459 537 
Q 1357 557 1280 605 
Q 1203 653 1158 736 
Q 1114 819 1114 941 
Q 1114 1069 1158 1152 
Q 1203 1235 1276 1289 
Q 1350 1344 1449 1376 
Q 1549 1408 1651 1427 
Q 1760 1446 1869 1459 
Q 1978 1472 2077 1491 
Q 2176 1510 2262 1539 
Q 2349 1568 2406 1619 
z
" transform="scale(0.015625)"/>
       <path id="HelveticaNeue-Bold-72" d="M 346 3309 
L 346 0 
L 1254 0 
L 1254 1491 
Q 1254 1715 1299 1907 
Q 1344 2099 1449 2243 
Q 1555 2387 1728 2470 
Q 1901 2554 2150 2554 
Q 2234 2554 2323 2544 
Q 2413 2534 2477 2522 
L 2477 3366 
Q 2368 3398 2278 3398 
Q 2106 3398 1946 3347 
Q 1786 3296 1645 3203 
Q 1504 3110 1395 2979 
Q 1286 2848 1222 2694 
L 1210 2694 
L 1210 3309 
L 346 3309 
z
" transform="scale(0.015625)"/>
       <path id="HelveticaNeue-Bold-6d" d="M 371 3309 
L 371 0 
L 1280 0 
L 1280 1920 
Q 1280 2163 1350 2313 
Q 1421 2464 1520 2544 
Q 1619 2624 1724 2653 
Q 1830 2682 1894 2682 
Q 2112 2682 2224 2608 
Q 2336 2534 2384 2412 
Q 2432 2291 2438 2147 
Q 2445 2003 2445 1856 
L 2445 0 
L 3354 0 
L 3354 1843 
Q 3354 1997 3376 2147 
Q 3398 2298 3465 2416 
Q 3533 2534 3651 2608 
Q 3770 2682 3962 2682 
Q 4154 2682 4266 2618 
Q 4378 2554 4435 2445 
Q 4493 2336 4505 2189 
Q 4518 2042 4518 1875 
L 4518 0 
L 5427 0 
L 5427 2214 
Q 5427 2534 5337 2761 
Q 5248 2989 5088 3129 
Q 4928 3270 4704 3334 
Q 4480 3398 4218 3398 
Q 3872 3398 3619 3232 
Q 3366 3066 3219 2848 
Q 3085 3155 2825 3276 
Q 2566 3398 2253 3398 
Q 1926 3398 1673 3257 
Q 1421 3117 1242 2861 
L 1229 2861 
L 1229 3309 
L 371 3309 
z
" transform="scale(0.015625)"/>
       <path id="HelveticaNeue-Bold-65" d="M 2573 2010 
L 1094 2010 
Q 1101 2106 1136 2227 
Q 1171 2349 1257 2457 
Q 1344 2566 1488 2640 
Q 1632 2714 1850 2714 
Q 2182 2714 2345 2534 
Q 2509 2355 2573 2010 
z
M 1094 1434 
L 3482 1434 
Q 3507 1818 3417 2170 
Q 3328 2522 3126 2797 
Q 2925 3072 2611 3235 
Q 2298 3398 1875 3398 
Q 1498 3398 1187 3264 
Q 877 3130 653 2896 
Q 429 2662 307 2342 
Q 186 2022 186 1651 
Q 186 1267 304 947 
Q 422 627 640 396 
Q 858 166 1171 41 
Q 1485 -83 1875 -83 
Q 2438 -83 2835 173 
Q 3232 429 3424 1024 
L 2624 1024 
Q 2579 870 2380 732 
Q 2182 595 1907 595 
Q 1523 595 1318 793 
Q 1114 992 1094 1434 
z
" transform="scale(0.015625)"/>
       <path id="HelveticaNeue-Bold-74" d="M 1498 3309 
L 1498 4301 
L 589 4301 
L 589 3309 
L 38 3309 
L 38 2701 
L 589 2701 
L 589 749 
Q 589 499 672 345 
Q 755 192 899 109 
Q 1043 26 1232 -3 
Q 1421 -32 1632 -32 
Q 1766 -32 1907 -25 
Q 2048 -19 2163 0 
L 2163 704 
Q 2099 691 2028 684 
Q 1958 678 1882 678 
Q 1651 678 1574 755 
Q 1498 832 1498 1062 
L 1498 2701 
L 2163 2701 
L 2163 3309 
L 1498 3309 
z
" transform="scale(0.015625)"/>
       <path id="HelveticaNeue-Bold-3a" d="M 1395 2266 
L 1395 3251 
L 390 3251 
L 390 2266 
L 1395 2266 
z
M 390 986 
L 390 0 
L 1395 0 
L 1395 986 
L 390 986 
z
" transform="scale(0.015625)"/>
       <path id="HelveticaNeue-Bold-20" transform="scale(0.015625)"/>
       <path id="HelveticaNeue-Bold-68" d="M 346 4570 
L 346 0 
L 1254 0 
L 1254 1734 
Q 1254 2240 1420 2461 
Q 1587 2682 1958 2682 
Q 2285 2682 2413 2480 
Q 2541 2278 2541 1869 
L 2541 0 
L 3450 0 
L 3450 2035 
Q 3450 2342 3395 2595 
Q 3341 2848 3206 3024 
Q 3072 3200 2838 3299 
Q 2605 3398 2240 3398 
Q 1984 3398 1715 3267 
Q 1446 3136 1274 2848 
L 1254 2848 
L 1254 4570 
L 346 4570 
z
" transform="scale(0.015625)"/>
       <path id="HelveticaNeue-Bold-6f" d="M 1152 1651 
Q 1152 1850 1190 2042 
Q 1229 2234 1321 2381 
Q 1414 2528 1568 2621 
Q 1722 2714 1952 2714 
Q 2182 2714 2339 2621 
Q 2496 2528 2589 2381 
Q 2682 2234 2720 2042 
Q 2758 1850 2758 1651 
Q 2758 1453 2720 1264 
Q 2682 1075 2589 924 
Q 2496 774 2339 684 
Q 2182 595 1952 595 
Q 1722 595 1568 684 
Q 1414 774 1321 924 
Q 1229 1075 1190 1264 
Q 1152 1453 1152 1651 
z
M 243 1651 
Q 243 1254 364 934 
Q 486 614 710 387 
Q 934 160 1248 38 
Q 1562 -83 1952 -83 
Q 2342 -83 2659 38 
Q 2976 160 3200 387 
Q 3424 614 3545 934 
Q 3667 1254 3667 1651 
Q 3667 2048 3545 2371 
Q 3424 2694 3200 2921 
Q 2976 3149 2659 3273 
Q 2342 3398 1952 3398 
Q 1562 3398 1248 3273 
Q 934 3149 710 2921 
Q 486 2694 364 2371 
Q 243 2048 243 1651 
z
" transform="scale(0.015625)"/>
       <path id="HelveticaNeue-Bold-49" d="M 442 4570 
L 442 0 
L 1446 0 
L 1446 4570 
L 442 4570 
z
" transform="scale(0.015625)"/>
       <path id="HelveticaNeue-Bold-6e" d="M 346 3309 
L 346 0 
L 1254 0 
L 1254 1734 
Q 1254 2240 1420 2461 
Q 1587 2682 1958 2682 
Q 2285 2682 2413 2480 
Q 2541 2278 2541 1869 
L 2541 0 
L 3450 0 
L 3450 2035 
Q 3450 2342 3395 2595 
Q 3341 2848 3206 3024 
Q 3072 3200 2838 3299 
Q 2605 3398 2240 3398 
Q 1952 3398 1677 3267 
Q 1402 3136 1229 2848 
L 1210 2848 
L 1210 3309 
L 346 3309 
z
" transform="scale(0.015625)"/>
       <path id="HelveticaNeue-Bold-64" d="M 2694 1664 
Q 2694 1459 2656 1267 
Q 2618 1075 2528 924 
Q 2438 774 2288 684 
Q 2138 595 1914 595 
Q 1702 595 1552 688 
Q 1402 781 1302 931 
Q 1203 1082 1158 1274 
Q 1114 1466 1114 1658 
Q 1114 1862 1155 2051 
Q 1197 2240 1289 2387 
Q 1382 2534 1536 2624 
Q 1690 2714 1914 2714 
Q 2138 2714 2285 2624 
Q 2432 2534 2525 2390 
Q 2618 2246 2656 2057 
Q 2694 1869 2694 1664 
z
M 2707 422 
L 2707 0 
L 3571 0 
L 3571 4570 
L 2662 4570 
L 2662 2906 
L 2650 2906 
Q 2496 3149 2230 3273 
Q 1965 3398 1670 3398 
Q 1306 3398 1030 3254 
Q 755 3110 572 2873 
Q 390 2637 297 2326 
Q 205 2016 205 1683 
Q 205 1338 297 1018 
Q 390 698 572 451 
Q 755 205 1036 61 
Q 1318 -83 1690 -83 
Q 2016 -83 2275 35 
Q 2534 154 2694 422 
L 2707 422 
z
" transform="scale(0.015625)"/>
       <path id="HelveticaNeue-Bold-78" d="M 1190 1741 
L 0 0 
L 1018 0 
L 1709 1043 
L 2400 0 
L 3437 0 
L 2214 1760 
L 3302 3309 
L 2298 3309 
L 1722 2445 
L 1139 3309 
L 102 3309 
L 1190 1741 
z
" transform="scale(0.015625)"/>
      </defs>
      <use xlink:href="#HelveticaNeue-Bold-50"/>
      <use xlink:href="#HelveticaNeue-Bold-61" x="66.699997"/>
      <use xlink:href="#HelveticaNeue-Bold-72" x="124.099991"/>
      <use xlink:href="#HelveticaNeue-Bold-61" x="162.999985"/>
      <use xlink:href="#HelveticaNeue-Bold-6d" x="220.399979"/>
      <use xlink:href="#HelveticaNeue-Bold-65" x="310.999969"/>
      <use xlink:href="#HelveticaNeue-Bold-74" x="368.399963"/>
      <use xlink:href="#HelveticaNeue-Bold-65" x="403.59996"/>
      <use xlink:href="#HelveticaNeue-Bold-72" x="460.999954"/>
      <use xlink:href="#HelveticaNeue-Bold-3a" x="499.899948"/>
      <use xlink:href="#HelveticaNeue-Bold-20" x="527.699936"/>
      <use xlink:href="#HelveticaNeue-Bold-50" x="555.499924"/>
      <use xlink:href="#HelveticaNeue-Bold-68" x="622.199921"/>
      <use xlink:href="#HelveticaNeue-Bold-6f" x="681.499908"/>
      <use xlink:href="#HelveticaNeue-Bold-49" x="742.599899"/>
      <use xlink:href="#HelveticaNeue-Bold-6e" x="772.099884"/>
      <use xlink:href="#HelveticaNeue-Bold-64" x="831.399872"/>
      <use xlink:href="#HelveticaNeue-Bold-65" x="892.499863"/>
      <use xlink:href="#HelveticaNeue-Bold-78" x="949.899857"/>
     </g>
    </g>
   </g>
   <g id="matplotlib.axis_2">
    <g id="ytick_1">
     <g id="line2d_19">
      <defs>
       <path id="mc53cd410f9" d="M 1.75 0 
L -1.75 -0 
" style="stroke: #000000; stroke-width: 0.8"/>
      </defs>
      <g>
       <use xlink:href="#mc53cd410f9" x="51.048125" y="349.849746" style="stroke: #000000; stroke-width: 0.8"/>
      </g>
     </g>
     <g id="line2d_20">
      <g>
       <use xlink:href="#mc53cd410f9" x="609.048125" y="349.849746" style="stroke: #000000; stroke-width: 0.8"/>
      </g>
     </g>
     <g id="text_11">
      <!-- 604 -->
      <g transform="translate(29.12 353.420058) scale(0.1 -0.1)">
       <use xlink:href="#HelveticaNeue-Medium-36"/>
       <use xlink:href="#HelveticaNeue-Medium-30" x="55.599991"/>
       <use xlink:href="#HelveticaNeue-Medium-34" x="111.199982"/>
      </g>
     </g>
    </g>
    <g id="ytick_2">
     <g id="line2d_21">
      <g>
       <use xlink:href="#mc53cd410f9" x="51.048125" y="310.138819" style="stroke: #000000; stroke-width: 0.8"/>
      </g>
     </g>
     <g id="line2d_22">
      <g>
       <use xlink:href="#mc53cd410f9" x="609.048125" y="310.138819" style="stroke: #000000; stroke-width: 0.8"/>
      </g>
     </g>
     <g id="text_12">
      <!-- 606 -->
      <g transform="translate(29.12 313.709131) scale(0.1 -0.1)">
       <use xlink:href="#HelveticaNeue-Medium-36"/>
       <use xlink:href="#HelveticaNeue-Medium-30" x="55.599991"/>
       <use xlink:href="#HelveticaNeue-Medium-36" x="111.199982"/>
      </g>
     </g>
    </g>
    <g id="ytick_3">
     <g id="line2d_23">
      <g>
       <use xlink:href="#mc53cd410f9" x="51.048125" y="270.427892" style="stroke: #000000; stroke-width: 0.8"/>
      </g>
     </g>
     <g id="line2d_24">
      <g>
       <use xlink:href="#mc53cd410f9" x="609.048125" y="270.427892" style="stroke: #000000; stroke-width: 0.8"/>
      </g>
     </g>
     <g id="text_13">
      <!-- 608 -->
      <g transform="translate(29.12 273.998204) scale(0.1 -0.1)">
       <use xlink:href="#HelveticaNeue-Medium-36"/>
       <use xlink:href="#HelveticaNeue-Medium-30" x="55.599991"/>
       <use xlink:href="#HelveticaNeue-Medium-38" x="111.199982"/>
      </g>
     </g>
    </g>
    <g id="ytick_4">
     <g id="line2d_25">
      <g>
       <use xlink:href="#mc53cd410f9" x="51.048125" y="230.716965" style="stroke: #000000; stroke-width: 0.8"/>
      </g>
     </g>
     <g id="line2d_26">
      <g>
       <use xlink:href="#mc53cd410f9" x="609.048125" y="230.716965" style="stroke: #000000; stroke-width: 0.8"/>
      </g>
     </g>
     <g id="text_14">
      <!-- 610 -->
      <g transform="translate(29.12 234.287277) scale(0.1 -0.1)">
       <use xlink:href="#HelveticaNeue-Medium-36"/>
       <use xlink:href="#HelveticaNeue-Medium-31" x="55.599991"/>
       <use xlink:href="#HelveticaNeue-Medium-30" x="111.199982"/>
      </g>
     </g>
    </g>
    <g id="ytick_5">
     <g id="line2d_27">
      <g>
       <use xlink:href="#mc53cd410f9" x="51.048125" y="191.006038" style="stroke: #000000; stroke-width: 0.8"/>
      </g>
     </g>
     <g id="line2d_28">
      <g>
       <use xlink:href="#mc53cd410f9" x="609.048125" y="191.006038" style="stroke: #000000; stroke-width: 0.8"/>
      </g>
     </g>
     <g id="text_15">
      <!-- 612 -->
      <g transform="translate(29.12 194.57635) scale(0.1 -0.1)">
       <use xlink:href="#HelveticaNeue-Medium-36"/>
       <use xlink:href="#HelveticaNeue-Medium-31" x="55.599991"/>
       <use xlink:href="#HelveticaNeue-Medium-32" x="111.199982"/>
      </g>
     </g>
    </g>
    <g id="ytick_6">
     <g id="line2d_29">
      <g>
       <use xlink:href="#mc53cd410f9" x="51.048125" y="151.295111" style="stroke: #000000; stroke-width: 0.8"/>
      </g>
     </g>
     <g id="line2d_30">
      <g>
       <use xlink:href="#mc53cd410f9" x="609.048125" y="151.295111" style="stroke: #000000; stroke-width: 0.8"/>
      </g>
     </g>
     <g id="text_16">
      <!-- 614 -->
      <g transform="translate(29.12 154.865423) scale(0.1 -0.1)">
       <use xlink:href="#HelveticaNeue-Medium-36"/>
       <use xlink:href="#HelveticaNeue-Medium-31" x="55.599991"/>
       <use xlink:href="#HelveticaNeue-Medium-34" x="111.199982"/>
      </g>
     </g>
    </g>
    <g id="ytick_7">
     <g id="line2d_31">
      <g>
       <use xlink:href="#mc53cd410f9" x="51.048125" y="111.584184" style="stroke: #000000; stroke-width: 0.8"/>
      </g>
     </g>
     <g id="line2d_32">
      <g>
       <use xlink:href="#mc53cd410f9" x="609.048125" y="111.584184" style="stroke: #000000; stroke-width: 0.8"/>
      </g>
     </g>
     <g id="text_17">
      <!-- 616 -->
      <g transform="translate(29.12 115.154496) scale(0.1 -0.1)">
       <use xlink:href="#HelveticaNeue-Medium-36"/>
       <use xlink:href="#HelveticaNeue-Medium-31" x="55.599991"/>
       <use xlink:href="#HelveticaNeue-Medium-36" x="111.199982"/>
      </g>
     </g>
    </g>
    <g id="ytick_8">
     <g id="line2d_33">
      <g>
       <use xlink:href="#mc53cd410f9" x="51.048125" y="71.873257" style="stroke: #000000; stroke-width: 0.8"/>
      </g>
     </g>
     <g id="line2d_34">
      <g>
       <use xlink:href="#mc53cd410f9" x="609.048125" y="71.873257" style="stroke: #000000; stroke-width: 0.8"/>
      </g>
     </g>
     <g id="text_18">
      <!-- 618 -->
      <g transform="translate(29.12 75.443569) scale(0.1 -0.1)">
       <use xlink:href="#HelveticaNeue-Medium-36"/>
       <use xlink:href="#HelveticaNeue-Medium-31" x="55.599991"/>
       <use xlink:href="#HelveticaNeue-Medium-38" x="111.199982"/>
      </g>
     </g>
    </g>
    <g id="ytick_9">
     <g id="line2d_35">
      <g>
       <use xlink:href="#mc53cd410f9" x="51.048125" y="32.16233" style="stroke: #000000; stroke-width: 0.8"/>
      </g>
     </g>
     <g id="line2d_36">
      <g>
       <use xlink:href="#mc53cd410f9" x="609.048125" y="32.16233" style="stroke: #000000; stroke-width: 0.8"/>
      </g>
     </g>
     <g id="text_19">
      <!-- 620 -->
      <g transform="translate(29.12 35.732642) scale(0.1 -0.1)">
       <use xlink:href="#HelveticaNeue-Medium-36"/>
       <use xlink:href="#HelveticaNeue-Medium-32" x="55.599991"/>
       <use xlink:href="#HelveticaNeue-Medium-30" x="111.199982"/>
      </g>
     </g>
    </g>
    <g id="text_20">
     <!-- Statistic: $\chi$$^{2}$ -->
     <g transform="translate(21.76 235.535) rotate(-90) scale(0.16 -0.16)">
      <defs>
       <path id="HelveticaNeue-Bold-53" d="M 1126 1517 
L 154 1517 
Q 147 1094 307 787 
Q 467 480 739 281 
Q 1011 83 1366 -9 
Q 1722 -102 2099 -102 
Q 2566 -102 2921 6 
Q 3277 115 3517 310 
Q 3757 506 3878 774 
Q 4000 1043 4000 1357 
Q 4000 1741 3837 1987 
Q 3674 2234 3450 2381 
Q 3226 2528 2998 2595 
Q 2771 2662 2643 2688 
Q 2214 2797 1948 2867 
Q 1683 2938 1532 3008 
Q 1382 3078 1331 3161 
Q 1280 3245 1280 3379 
Q 1280 3526 1344 3622 
Q 1408 3718 1507 3782 
Q 1606 3846 1728 3872 
Q 1850 3898 1971 3898 
Q 2157 3898 2313 3866 
Q 2470 3834 2592 3757 
Q 2714 3680 2787 3545 
Q 2861 3411 2874 3206 
L 3846 3206 
Q 3846 3603 3696 3881 
Q 3546 4160 3290 4339 
Q 3034 4518 2704 4598 
Q 2374 4678 2016 4678 
Q 1709 4678 1401 4595 
Q 1094 4512 851 4339 
Q 608 4166 457 3907 
Q 307 3648 307 3296 
Q 307 2982 425 2761 
Q 544 2541 736 2393 
Q 928 2246 1171 2153 
Q 1414 2061 1670 1997 
Q 1920 1926 2163 1868 
Q 2406 1811 2598 1734 
Q 2790 1658 2908 1542 
Q 3027 1427 3027 1242 
Q 3027 1069 2937 957 
Q 2848 845 2713 781 
Q 2579 717 2425 694 
Q 2272 672 2138 672 
Q 1939 672 1753 720 
Q 1568 768 1430 867 
Q 1293 966 1209 1126 
Q 1126 1286 1126 1517 
z
" transform="scale(0.015625)"/>
       <path id="HelveticaNeue-Bold-69" d="M 1280 3821 
L 1280 4570 
L 371 4570 
L 371 3821 
L 1280 3821 
z
M 371 3309 
L 371 0 
L 1280 0 
L 1280 3309 
L 371 3309 
z
" transform="scale(0.015625)"/>
       <path id="HelveticaNeue-Bold-73" d="M 1050 1075 
L 186 1075 
Q 198 742 336 521 
Q 474 301 688 166 
Q 902 32 1177 -25 
Q 1453 -83 1741 -83 
Q 2022 -83 2294 -28 
Q 2566 26 2777 160 
Q 2989 294 3120 515 
Q 3251 736 3251 1062 
Q 3251 1293 3161 1449 
Q 3072 1606 2925 1712 
Q 2778 1818 2589 1882 
Q 2400 1946 2202 1990 
Q 2010 2035 1824 2073 
Q 1638 2112 1494 2160 
Q 1350 2208 1260 2285 
Q 1171 2362 1171 2483 
Q 1171 2586 1222 2646 
Q 1274 2707 1347 2739 
Q 1421 2771 1510 2780 
Q 1600 2790 1677 2790 
Q 1920 2790 2099 2697 
Q 2278 2605 2298 2342 
L 3162 2342 
Q 3136 2650 3005 2851 
Q 2874 3053 2675 3174 
Q 2477 3296 2224 3347 
Q 1971 3398 1702 3398 
Q 1434 3398 1178 3350 
Q 922 3302 717 3184 
Q 512 3066 387 2861 
Q 262 2656 262 2336 
Q 262 2118 352 1968 
Q 442 1818 589 1718 
Q 736 1619 925 1558 
Q 1114 1498 1312 1453 
Q 1798 1350 2070 1248 
Q 2342 1146 2342 941 
Q 2342 819 2284 739 
Q 2227 659 2140 611 
Q 2054 563 1948 540 
Q 1843 518 1747 518 
Q 1613 518 1488 550 
Q 1363 582 1267 649 
Q 1171 717 1110 822 
Q 1050 928 1050 1075 
z
" transform="scale(0.015625)"/>
       <path id="HelveticaNeue-Bold-63" d="M 2598 2144 
L 3488 2144 
Q 3469 2464 3334 2697 
Q 3200 2931 2985 3088 
Q 2771 3245 2499 3321 
Q 2227 3398 1933 3398 
Q 1530 3398 1216 3264 
Q 902 3130 684 2890 
Q 467 2650 355 2320 
Q 243 1990 243 1606 
Q 243 1235 364 924 
Q 486 614 704 390 
Q 922 166 1232 41 
Q 1542 -83 1914 -83 
Q 2573 -83 2995 262 
Q 3418 608 3507 1267 
L 2630 1267 
Q 2586 960 2410 777 
Q 2234 595 1907 595 
Q 1696 595 1549 691 
Q 1402 787 1315 937 
Q 1229 1088 1190 1273 
Q 1152 1459 1152 1638 
Q 1152 1824 1190 2013 
Q 1229 2202 1321 2358 
Q 1414 2515 1561 2614 
Q 1709 2714 1926 2714 
Q 2509 2714 2598 2144 
z
" transform="scale(0.015625)"/>
       <path id="DejaVuSans-Oblique-3c7" d="M 1922 -781 
L 1691 416 
L 394 -1334 
L -284 -1334 
L 1553 1141 
L 1269 2613 
Q 1194 3006 713 3006 
L 559 3006 
L 653 3500 
L 872 3494 
Q 1675 3472 1775 2950 
L 2006 1753 
L 3303 3503 
L 3981 3503 
L 2144 1028 
L 2428 -444 
Q 2503 -838 2984 -838 
L 3138 -838 
L 3044 -1331 
L 2825 -1325 
Q 2022 -1303 1922 -781 
z
" transform="scale(0.015625)"/>
       <path id="DejaVuSans-32" d="M 1228 531 
L 3431 531 
L 3431 0 
L 469 0 
L 469 531 
Q 828 903 1448 1529 
Q 2069 2156 2228 2338 
Q 2531 2678 2651 2914 
Q 2772 3150 2772 3378 
Q 2772 3750 2511 3984 
Q 2250 4219 1831 4219 
Q 1534 4219 1204 4116 
Q 875 4013 500 3803 
L 500 4441 
Q 881 4594 1212 4672 
Q 1544 4750 1819 4750 
Q 2544 4750 2975 4387 
Q 3406 4025 3406 3419 
Q 3406 3131 3298 2873 
Q 3191 2616 2906 2266 
Q 2828 2175 2409 1742 
Q 1991 1309 1228 531 
z
" transform="scale(0.015625)"/>
      </defs>
      <use xlink:href="#HelveticaNeue-Bold-53" transform="translate(0 0.765625)"/>
      <use xlink:href="#HelveticaNeue-Bold-74" transform="translate(64.899994 0.765625)"/>
      <use xlink:href="#HelveticaNeue-Bold-61" transform="translate(100.099991 0.765625)"/>
      <use xlink:href="#HelveticaNeue-Bold-74" transform="translate(157.499985 0.765625)"/>
      <use xlink:href="#HelveticaNeue-Bold-69" transform="translate(192.699982 0.765625)"/>
      <use xlink:href="#HelveticaNeue-Bold-73" transform="translate(218.499969 0.765625)"/>
      <use xlink:href="#HelveticaNeue-Bold-74" transform="translate(272.199966 0.765625)"/>
      <use xlink:href="#HelveticaNeue-Bold-69" transform="translate(307.399963 0.765625)"/>
      <use xlink:href="#HelveticaNeue-Bold-63" transform="translate(333.199951 0.765625)"/>
      <use xlink:href="#HelveticaNeue-Bold-3a" transform="translate(390.599945 0.765625)"/>
      <use xlink:href="#HelveticaNeue-Bold-20" transform="translate(418.399933 0.765625)"/>
      <use xlink:href="#DejaVuSans-Oblique-3c7" transform="translate(446.199921 0.765625)"/>
      <use xlink:href="#DejaVuSans-32" transform="translate(506.336639 39.046875) scale(0.7)"/>
     </g>
    </g>
   </g>
   <g id="line2d_37">
    <path d="M 51.048125 24.895 
L 53.838125 33.262136 
L 57.186125 42.55983 
L 59.976125 49.691314 
L 62.766125 56.258149 
L 65.556125 62.256446 
L 68.346125 67.682276 
L 70.578125 71.608126 
L 72.810125 75.163574 
L 75.042125 78.346512 
L 77.274125 81.155226 
L 79.506125 83.586984 
L 81.738125 85.640362 
L 83.970125 87.313152 
L 85.644125 88.316645 
L 87.318125 89.104141 
L 88.992125 89.674414 
L 90.666125 90.026836 
L 92.340125 90.160406 
L 94.014125 90.074059 
L 95.688125 89.76711 
L 97.362125 89.238458 
L 97.920125 89.012876 
L 98.478125 145.827189 
L 101.268125 151.657174 
L 104.058125 156.935087 
L 106.848125 161.651446 
L 109.080125 165.01868 
L 111.312125 168.022792 
L 113.544125 170.661909 
L 115.776125 172.933749 
L 118.008125 174.835762 
L 119.682125 176.018164 
L 121.356125 176.990159 
L 123.030125 177.75093 
L 124.704125 178.299508 
L 126.378125 178.634922 
L 128.052125 178.756186 
L 129.726125 178.662309 
L 131.400125 178.352292 
L 133.074125 177.82513 
L 134.748125 177.079812 
L 136.422125 176.11532 
L 138.096125 174.930632 
L 139.770125 173.524716 
L 142.002125 171.304239 
L 142.560125 230.203387 
L 145.350125 234.530771 
L 147.582125 237.608065 
L 149.814125 240.341172 
L 152.046125 242.727983 
L 154.278125 244.766348 
L 156.510125 246.454096 
L 158.742125 247.789034 
L 160.416125 248.557376 
L 162.090125 249.125076 
L 163.764125 249.491184 
L 165.438125 249.654745 
L 167.112125 249.614797 
L 168.786125 249.370369 
L 170.460125 248.920486 
L 172.134125 248.264162 
L 173.808125 247.400408 
L 175.482125 246.328227 
L 177.156125 245.046613 
L 179.388125 243.01026 
L 181.620125 240.597366 
L 183.852125 237.80549 
L 186.084125 234.632171 
L 187.758125 232.000365 
L 188.316125 293.665671 
L 190.548125 296.043807 
L 192.780125 298.101076 
L 195.012125 299.824672 
L 197.244125 301.215865 
L 198.918125 302.039888 
L 200.592125 302.67487 
L 202.266125 303.119896 
L 203.940125 303.374042 
L 205.614125 303.436376 
L 207.288125 303.305961 
L 208.962125 302.981851 
L 210.636125 302.46309 
L 212.310125 301.748719 
L 213.984125 300.837767 
L 215.658125 299.729258 
L 217.890125 297.942232 
L 220.122125 295.799887 
L 222.354125 293.299842 
L 224.586125 290.439694 
L 226.818125 287.217011 
L 229.050125 283.629342 
L 231.282125 279.674206 
L 234.072125 274.209719 
L 235.188125 271.860957 
L 235.746125 335.968029 
L 237.978125 337.293432 
L 240.210125 338.307162 
L 241.884125 338.858238 
L 243.558125 339.229938 
L 245.232125 339.421374 
L 246.906125 339.43164 
L 248.580125 339.259821 
L 250.254125 338.904995 
L 251.928125 338.366231 
L 253.602125 337.64259 
L 255.834125 336.388509 
L 258.066125 334.801803 
L 260.298125 332.880177 
L 262.530125 330.621308 
L 264.762125 328.022847 
L 266.994125 325.08242 
L 269.226125 321.797624 
L 271.458125 318.16603 
L 274.248125 313.135107 
L 277.038125 307.553613 
L 279.828125 301.416625 
L 282.618125 294.719152 
L 284.292125 290.429535 
L 284.850125 357.147208 
L 287.082125 357.48076 
L 288.756125 357.534106 
L 290.430125 357.416542 
L 292.104125 357.12587 
L 293.778125 356.661981 
L 296.010125 355.772475 
L 298.242125 354.571321 
L 300.474125 353.056316 
L 302.706125 351.225212 
L 304.938125 349.075732 
L 307.170125 346.605573 
L 309.402125 343.812402 
L 311.634125 340.693856 
L 313.866125 337.247546 
L 316.656125 332.475049 
L 319.446125 327.181846 
L 322.236125 321.363076 
L 325.026125 315.013806 
L 327.816125 308.129029 
L 330.606125 300.70367 
L 333.396125 292.732579 
L 335.070125 287.685803 
L 335.628125 357.495516 
L 337.860125 356.931923 
L 340.092125 356.085418 
L 342.324125 354.942651 
L 344.556125 353.503654 
L 346.788125 351.766932 
L 349.020125 349.730256 
L 351.252125 347.391369 
L 353.484125 344.747981 
L 355.716125 341.797773 
L 357.948125 338.538398 
L 360.738125 334.02578 
L 363.528125 329.021649 
L 366.318125 323.521211 
L 369.108125 317.519598 
L 371.898125 311.011865 
L 374.688125 303.99299 
L 378.036125 294.888447 
L 381.384125 285.031556 
L 384.732125 274.413199 
L 387.522125 264.987956 
L 388.080125 337.525852 
L 390.312125 336.198197 
L 392.544125 334.604173 
L 394.776125 332.72785 
L 397.008125 330.567609 
L 399.240125 328.121302 
L 401.472125 325.386694 
L 404.262125 321.559154 
L 407.052125 317.272757 
L 409.842125 312.522874 
L 412.632125 307.304776 
L 415.422125 301.613657 
L 418.212125 295.444628 
L 421.002125 288.79272 
L 424.350125 280.165913 
L 427.698125 270.8276 
L 431.046125 260.768729 
L 434.394125 249.980076 
L 437.742125 238.45225 
L 441.090125 226.175685 
L 441.648125 224.056115 
L 442.206125 297.932416 
L 444.438125 295.843967 
L 446.670125 293.490563 
L 448.902125 290.865331 
L 451.692125 287.197799 
L 454.482125 283.09742 
L 457.272125 278.559607 
L 460.062125 273.579687 
L 462.852125 268.152905 
L 465.642125 262.274422 
L 468.432125 255.939315 
L 471.780125 247.727384 
L 475.128125 238.841879 
L 476.244125 235.728812 
L 476.802125 263.676871 
L 482.382125 257.481586 
L 485.172125 253.949606 
L 487.962125 250.001753 
L 490.752125 245.633519 
L 493.542125 240.840714 
L 496.332125 235.618624 
L 499.122125 229.962448 
L 501.912125 223.867298 
L 505.260125 215.966663 
L 508.608125 207.417973 
L 511.956125 198.212282 
L 514.746125 190.032415 
L 515.304125 218.211766 
L 524.232125 206.641793 
L 530.928125 197.722404 
L 531.486125 199.82151 
L 534.276125 196.045975 
L 537.066125 191.875268 
L 539.856125 187.304899 
L 542.646125 182.330107 
L 545.436125 176.94622 
L 548.784125 169.938838 
L 552.132125 162.327009 
L 552.690125 160.999002 
L 553.248125 164.845776 
L 556.038125 159.525739 
L 559.386125 152.580981 
L 562.734125 145.038546 
L 566.082125 136.889759 
L 569.430125 128.125831 
L 572.778125 118.737765 
L 576.126125 108.716373 
L 579.474125 98.052274 
L 580.032125 96.21177 
L 580.590125 125.462898 
L 581.148125 124.592886 
L 581.706125 127.026272 
L 584.496125 122.662576 
L 587.286125 117.914321 
L 590.076125 112.777135 
L 593.424125 106.092424 
L 594.540125 103.736763 
L 595.098125 105.52283 
L 598.446125 97.969171 
L 600.120125 94.288864 
L 603.468125 88.623197 
L 606.258125 83.482957 
L 609.048125 77.952511 
L 609.048125 77.952511 
" clip-path="url(#p1d4ab149e1)" style="fill: none; stroke: #000000; stroke-width: 1.5"/>
   </g>
   <g id="LineCollection_1">
    <path d="M 51.048125 341.044947 
L 618.998125 341.044947 
" clip-path="url(#p1d4ab149e1)" style="fill: none; stroke: #ff0000; stroke-width: 1.5"/>
   </g>
   <g id="LineCollection_2">
    <path d="M 311.790979 360.90041 
L 311.790979 24.895 
" clip-path="url(#p1d4ab149e1)" style="fill: none; stroke-dasharray: 1.5,2.475; stroke-dashoffset: 0; stroke: #000000; stroke-width: 1.5"/>
   </g>
   <g id="patch_3">
    <path d="M 51.048125 357.535 
L 51.048125 24.895 
" style="fill: none; stroke: #000000; stroke-width: 0.8; stroke-linejoin: miter; stroke-linecap: square"/>
   </g>
   <g id="patch_4">
    <path d="M 609.048125 357.535 
L 609.048125 24.895 
" style="fill: none; stroke: #000000; stroke-width: 0.8; stroke-linejoin: miter; stroke-linecap: square"/>
   </g>
   <g id="patch_5">
    <path d="M 51.048125 357.535 
L 609.048125 357.535 
" style="fill: none; stroke: #000000; stroke-width: 0.8; stroke-linejoin: miter; stroke-linecap: square"/>
   </g>
   <g id="patch_6">
    <path d="M 51.048125 24.895 
L 609.048125 24.895 
" style="fill: none; stroke: #000000; stroke-width: 0.8; stroke-linejoin: miter; stroke-linecap: square"/>
   </g>
   <g id="text_21">
    <!-- Confidence region: Chi-Squared -->
    <g transform="translate(207.674375 18.895) scale(0.16 -0.16)">
     <defs>
      <path id="HelveticaNeue-Bold-43" d="M 3488 3034 
L 4461 3034 
Q 4416 3430 4243 3737 
Q 4070 4045 3804 4253 
Q 3539 4461 3203 4569 
Q 2867 4678 2490 4678 
Q 1965 4678 1545 4492 
Q 1126 4307 838 3980 
Q 550 3654 396 3216 
Q 243 2778 243 2266 
Q 243 1766 396 1334 
Q 550 902 838 582 
Q 1126 262 1545 80 
Q 1965 -102 2490 -102 
Q 2912 -102 3264 26 
Q 3616 154 3878 397 
Q 4141 640 4301 985 
Q 4461 1331 4499 1760 
L 3526 1760 
Q 3469 1299 3209 1017 
Q 2950 736 2490 736 
Q 2150 736 1913 867 
Q 1677 998 1529 1216 
Q 1382 1434 1315 1706 
Q 1248 1978 1248 2266 
Q 1248 2566 1315 2848 
Q 1382 3130 1529 3350 
Q 1677 3571 1913 3702 
Q 2150 3834 2490 3834 
Q 2675 3834 2844 3773 
Q 3014 3712 3148 3603 
Q 3283 3494 3372 3350 
Q 3462 3206 3488 3034 
z
" transform="scale(0.015625)"/>
      <path id="HelveticaNeue-Bold-66" d="M 544 2701 
L 544 0 
L 1453 0 
L 1453 2701 
L 2080 2701 
L 2080 3309 
L 1453 3309 
L 1453 3507 
Q 1453 3712 1533 3798 
Q 1613 3885 1798 3885 
Q 1971 3885 2131 3866 
L 2131 4544 
Q 2016 4550 1894 4560 
Q 1773 4570 1651 4570 
Q 1094 4570 819 4288 
Q 544 4006 544 3565 
L 544 3309 
L 0 3309 
L 0 2701 
L 544 2701 
z
" transform="scale(0.015625)"/>
      <path id="HelveticaNeue-Bold-67" d="M 1888 781 
Q 1677 781 1536 870 
Q 1395 960 1308 1101 
Q 1222 1242 1187 1418 
Q 1152 1594 1152 1773 
Q 1152 1958 1193 2128 
Q 1235 2298 1328 2429 
Q 1421 2560 1558 2637 
Q 1696 2714 1888 2714 
Q 2112 2714 2259 2630 
Q 2406 2547 2496 2406 
Q 2586 2266 2624 2083 
Q 2662 1901 2662 1696 
Q 2662 1517 2614 1353 
Q 2566 1190 2470 1062 
Q 2374 934 2227 857 
Q 2080 781 1888 781 
z
M 3526 211 
L 3526 3309 
L 2662 3309 
L 2662 2867 
L 2650 2867 
Q 2483 3155 2236 3276 
Q 1990 3398 1664 3398 
Q 1318 3398 1052 3264 
Q 787 3130 608 2902 
Q 429 2675 336 2377 
Q 243 2080 243 1760 
Q 243 1421 323 1117 
Q 403 813 576 585 
Q 749 358 1017 227 
Q 1286 96 1658 96 
Q 1958 96 2230 221 
Q 2502 346 2650 608 
L 2662 608 
L 2662 173 
Q 2669 -179 2493 -409 
Q 2317 -640 1933 -640 
Q 1690 -640 1504 -541 
Q 1318 -442 1254 -186 
L 352 -186 
Q 371 -467 508 -668 
Q 646 -870 854 -998 
Q 1062 -1126 1315 -1187 
Q 1568 -1248 1811 -1248 
Q 2381 -1248 2720 -1094 
Q 3059 -941 3238 -720 
Q 3418 -499 3472 -243 
Q 3526 13 3526 211 
z
" transform="scale(0.015625)"/>
      <path id="HelveticaNeue-Bold-2d" d="M 339 2138 
L 339 1357 
L 2266 1357 
L 2266 2138 
L 339 2138 
z
" transform="scale(0.015625)"/>
      <path id="HelveticaNeue-Bold-71" d="M 1114 1651 
Q 1114 1856 1155 2045 
Q 1197 2234 1293 2384 
Q 1389 2534 1542 2624 
Q 1696 2714 1920 2714 
Q 2131 2714 2281 2618 
Q 2432 2522 2521 2368 
Q 2611 2214 2652 2022 
Q 2694 1830 2694 1638 
Q 2694 1434 2652 1245 
Q 2611 1056 2518 912 
Q 2426 768 2275 681 
Q 2125 595 1901 595 
Q 1677 595 1526 684 
Q 1376 774 1283 924 
Q 1190 1075 1152 1264 
Q 1114 1453 1114 1651 
z
M 3571 -1158 
L 3571 3309 
L 2707 3309 
L 2707 2886 
L 2694 2886 
Q 2541 3162 2269 3280 
Q 1997 3398 1690 3398 
Q 1312 3398 1033 3251 
Q 755 3104 569 2857 
Q 384 2611 294 2291 
Q 205 1971 205 1632 
Q 205 1152 339 822 
Q 474 493 678 291 
Q 883 90 1129 3 
Q 1376 -83 1606 -83 
Q 1914 -83 2202 32 
Q 2490 147 2650 416 
L 2662 416 
L 2662 -1158 
L 3571 -1158 
z
" transform="scale(0.015625)"/>
      <path id="HelveticaNeue-Bold-75" d="M 3450 0 
L 3450 3309 
L 2541 3309 
L 2541 1574 
Q 2541 1069 2374 848 
Q 2208 627 1837 627 
Q 1510 627 1382 828 
Q 1254 1030 1254 1440 
L 1254 3309 
L 346 3309 
L 346 1274 
Q 346 966 400 713 
Q 454 461 588 285 
Q 723 109 956 13 
Q 1190 -83 1555 -83 
Q 1843 -83 2118 45 
Q 2394 173 2566 461 
L 2586 461 
L 2586 0 
L 3450 0 
z
" transform="scale(0.015625)"/>
     </defs>
     <use xlink:href="#HelveticaNeue-Bold-43"/>
     <use xlink:href="#HelveticaNeue-Bold-6f" x="74.099991"/>
     <use xlink:href="#HelveticaNeue-Bold-6e" x="135.199982"/>
     <use xlink:href="#HelveticaNeue-Bold-66" x="194.499969"/>
     <use xlink:href="#HelveticaNeue-Bold-69" x="227.799957"/>
     <use xlink:href="#HelveticaNeue-Bold-64" x="253.599945"/>
     <use xlink:href="#HelveticaNeue-Bold-65" x="314.699936"/>
     <use xlink:href="#HelveticaNeue-Bold-6e" x="372.09993"/>
     <use xlink:href="#HelveticaNeue-Bold-63" x="431.399918"/>
     <use xlink:href="#HelveticaNeue-Bold-65" x="488.799911"/>
     <use xlink:href="#HelveticaNeue-Bold-20" x="546.199905"/>
     <use xlink:href="#HelveticaNeue-Bold-72" x="573.999893"/>
     <use xlink:href="#HelveticaNeue-Bold-65" x="611.149887"/>
     <use xlink:href="#HelveticaNeue-Bold-67" x="668.549881"/>
     <use xlink:href="#HelveticaNeue-Bold-69" x="729.649872"/>
     <use xlink:href="#HelveticaNeue-Bold-6f" x="755.44986"/>
     <use xlink:href="#HelveticaNeue-Bold-6e" x="816.54985"/>
     <use xlink:href="#HelveticaNeue-Bold-3a" x="875.849838"/>
     <use xlink:href="#HelveticaNeue-Bold-20" x="903.649826"/>
     <use xlink:href="#HelveticaNeue-Bold-43" x="931.449814"/>
     <use xlink:href="#HelveticaNeue-Bold-68" x="1005.549805"/>
     <use xlink:href="#HelveticaNeue-Bold-69" x="1064.849792"/>
     <use xlink:href="#HelveticaNeue-Bold-2d" x="1090.64978"/>
     <use xlink:href="#HelveticaNeue-Bold-53" x="1131.349777"/>
     <use xlink:href="#HelveticaNeue-Bold-71" x="1196.249771"/>
     <use xlink:href="#HelveticaNeue-Bold-75" x="1257.349762"/>
     <use xlink:href="#HelveticaNeue-Bold-61" x="1316.64975"/>
     <use xlink:href="#HelveticaNeue-Bold-72" x="1374.049744"/>
     <use xlink:href="#HelveticaNeue-Bold-65" x="1411.199738"/>
     <use xlink:href="#HelveticaNeue-Bold-64" x="1468.599731"/>
    </g>
   </g>
   <g id="legend_1">
    <g id="patch_7">
     <path d="M 336.64625 93.745 
L 596.448125 93.745 
Q 600.048125 93.745 600.048125 90.145 
L 600.048125 37.495 
Q 600.048125 33.895 596.448125 33.895 
L 336.64625 33.895 
Q 333.04625 33.895 333.04625 37.495 
L 333.04625 90.145 
Q 333.04625 93.745 336.64625 93.745 
z
" style="fill: #ffffff; stroke: #cccccc; stroke-linejoin: miter"/>
    </g>
    <g id="line2d_38">
     <path d="M 345.64625 51.175 
L 358.24625 51.175 
L 370.84625 51.175 
" style="fill: none; stroke: #ff0000; stroke-width: 1.5"/>
    </g>
    <g id="text_22">
     <!-- $\Delta\chi^2$=1 -->
     <g transform="translate(390.64625 57.475) scale(0.18 -0.18)">
      <defs>
       <path id="DejaVuSans-394" d="M 2188 4044 
L 906 525 
L 3472 525 
L 2188 4044 
z
M 50 0 
L 1831 4666 
L 2547 4666 
L 4325 0 
L 50 0 
z
" transform="scale(0.015625)"/>
       <path id="HelveticaNeue-Medium-3d" d="M 3533 646 
L 307 646 
L 307 1299 
L 3533 1299 
L 3533 646 
z
M 3533 1939 
L 307 1939 
L 307 2592 
L 3533 2592 
L 3533 1939 
z
" transform="scale(0.015625)"/>
      </defs>
      <use xlink:href="#DejaVuSans-394" transform="translate(0 0.765625)"/>
      <use xlink:href="#DejaVuSans-Oblique-3c7" transform="translate(68.408203 0.765625)"/>
      <use xlink:href="#DejaVuSans-32" transform="translate(132.060599 39.046875) scale(0.7)"/>
      <use xlink:href="#HelveticaNeue-Medium-3d" transform="translate(179.331107 0.765625)"/>
      <use xlink:href="#HelveticaNeue-Medium-31" transform="translate(239.331092 0.765625)"/>
     </g>
    </g>
    <g id="line2d_39">
     <path d="M 345.64625 76.808125 
L 358.24625 76.808125 
L 370.84625 76.808125 
" style="fill: none; stroke-dasharray: 1.5,2.475; stroke-dashoffset: 0; stroke: #000000; stroke-width: 1.5"/>
    </g>
    <g id="text_23">
     <!-- best fit: PhoIndex=1.994 -->
     <g transform="translate(390.64625 83.108125) scale(0.18 -0.18)">
      <defs>
       <path id="HelveticaNeue-Medium-62" d="M 403 4570 
L 1133 4570 
L 1133 2880 
L 1146 2880 
Q 1222 3002 1331 3098 
Q 1440 3194 1571 3261 
Q 1702 3328 1846 3363 
Q 1990 3398 2131 3398 
Q 2522 3398 2813 3260 
Q 3104 3123 3296 2883 
Q 3488 2643 3584 2323 
Q 3680 2003 3680 1638 
Q 3680 1306 3593 992 
Q 3507 678 3331 438 
Q 3155 198 2886 54 
Q 2618 -90 2253 -90 
Q 2086 -90 1916 -67 
Q 1747 -45 1593 19 
Q 1440 83 1315 185 
Q 1190 288 1107 454 
L 1094 454 
L 1094 0 
L 403 0 
L 403 4570 
z
M 2950 1651 
Q 2950 1875 2892 2086 
Q 2835 2298 2720 2461 
Q 2605 2624 2432 2723 
Q 2259 2822 2035 2822 
Q 1574 2822 1340 2502 
Q 1107 2182 1107 1651 
Q 1107 1402 1168 1187 
Q 1229 973 1350 819 
Q 1472 666 1641 576 
Q 1811 486 2035 486 
Q 2285 486 2457 588 
Q 2630 691 2742 854 
Q 2854 1018 2902 1226 
Q 2950 1434 2950 1651 
z
" transform="scale(0.015625)"/>
       <path id="HelveticaNeue-Medium-65" d="M 2656 1946 
Q 2643 2118 2582 2278 
Q 2522 2438 2416 2556 
Q 2310 2675 2160 2748 
Q 2010 2822 1824 2822 
Q 1632 2822 1475 2755 
Q 1318 2688 1206 2569 
Q 1094 2451 1027 2291 
Q 960 2131 954 1946 
L 2656 1946 
z
M 954 1466 
Q 954 1274 1008 1094 
Q 1062 915 1171 780 
Q 1280 646 1446 566 
Q 1613 486 1843 486 
Q 2163 486 2358 624 
Q 2554 762 2650 1037 
L 3341 1037 
Q 3283 768 3142 557 
Q 3002 346 2803 202 
Q 2605 58 2358 -16 
Q 2112 -90 1843 -90 
Q 1453 -90 1152 38 
Q 851 166 643 396 
Q 435 627 329 947 
Q 224 1267 224 1651 
Q 224 2003 336 2320 
Q 448 2637 656 2877 
Q 864 3117 1158 3257 
Q 1453 3398 1824 3398 
Q 2214 3398 2524 3235 
Q 2835 3072 3040 2803 
Q 3245 2534 3337 2185 
Q 3430 1837 3386 1466 
L 954 1466 
z
" transform="scale(0.015625)"/>
       <path id="HelveticaNeue-Medium-73" d="M 934 1062 
Q 966 742 1177 614 
Q 1389 486 1683 486 
Q 1786 486 1917 502 
Q 2048 518 2163 563 
Q 2278 608 2352 694 
Q 2426 781 2419 921 
Q 2413 1062 2317 1152 
Q 2221 1242 2070 1296 
Q 1920 1350 1728 1388 
Q 1536 1427 1338 1472 
Q 1133 1517 944 1581 
Q 755 1645 604 1753 
Q 454 1862 364 2032 
Q 275 2202 275 2451 
Q 275 2720 406 2902 
Q 538 3085 739 3197 
Q 941 3309 1187 3353 
Q 1434 3398 1658 3398 
Q 1914 3398 2147 3344 
Q 2381 3290 2569 3168 
Q 2758 3046 2883 2851 
Q 3008 2656 3040 2381 
L 2278 2381 
Q 2227 2643 2038 2732 
Q 1850 2822 1606 2822 
Q 1530 2822 1424 2809 
Q 1318 2797 1225 2761 
Q 1133 2726 1069 2659 
Q 1005 2592 1005 2483 
Q 1005 2349 1097 2265 
Q 1190 2182 1340 2128 
Q 1491 2074 1683 2035 
Q 1875 1997 2080 1952 
Q 2278 1907 2470 1843 
Q 2662 1779 2812 1670 
Q 2963 1562 3056 1395 
Q 3149 1229 3149 986 
Q 3149 691 3014 486 
Q 2880 282 2665 154 
Q 2451 26 2188 -32 
Q 1926 -90 1670 -90 
Q 1357 -90 1091 -19 
Q 826 51 630 195 
Q 435 339 323 553 
Q 211 768 205 1062 
L 934 1062 
z
" transform="scale(0.015625)"/>
       <path id="HelveticaNeue-Medium-74" d="M 51 3309 
L 602 3309 
L 602 4301 
L 1331 4301 
L 1331 3309 
L 1990 3309 
L 1990 2765 
L 1331 2765 
L 1331 998 
Q 1331 883 1340 800 
Q 1350 717 1385 659 
Q 1421 602 1491 573 
Q 1562 544 1683 544 
Q 1760 544 1837 547 
Q 1914 550 1990 570 
L 1990 6 
Q 1869 -6 1753 -19 
Q 1638 -32 1517 -32 
Q 1229 -32 1053 22 
Q 877 77 777 182 
Q 678 288 643 448 
Q 608 608 602 813 
L 602 2765 
L 51 2765 
L 51 3309 
z
" transform="scale(0.015625)"/>
       <path id="HelveticaNeue-Medium-20" transform="scale(0.015625)"/>
       <path id="HelveticaNeue-Medium-66" d="M 58 3309 
L 602 3309 
L 602 3584 
Q 602 3898 678 4093 
Q 755 4288 883 4393 
Q 1011 4499 1174 4534 
Q 1338 4570 1517 4570 
Q 1869 4570 2029 4525 
L 2029 3955 
Q 1958 3974 1878 3984 
Q 1798 3994 1690 3994 
Q 1542 3994 1436 3923 
Q 1331 3853 1331 3648 
L 1331 3309 
L 1952 3309 
L 1952 2765 
L 1331 2765 
L 1331 0 
L 602 0 
L 602 2765 
L 58 2765 
L 58 3309 
z
" transform="scale(0.015625)"/>
       <path id="HelveticaNeue-Medium-69" d="M 403 4570 
L 1133 4570 
L 1133 3878 
L 403 3878 
L 403 4570 
z
M 403 3309 
L 1133 3309 
L 1133 0 
L 403 0 
L 403 3309 
z
" transform="scale(0.015625)"/>
       <path id="HelveticaNeue-Medium-3a" d="M 442 864 
L 1331 864 
L 1331 0 
L 442 0 
L 442 864 
z
M 442 3238 
L 1331 3238 
L 1331 2374 
L 442 2374 
L 442 3238 
z
" transform="scale(0.015625)"/>
       <path id="HelveticaNeue-Medium-50" d="M 486 4570 
L 2502 4570 
Q 2989 4570 3296 4429 
Q 3603 4288 3769 4077 
Q 3936 3866 3997 3616 
Q 4058 3366 4058 3155 
Q 4058 2944 3997 2697 
Q 3936 2451 3769 2240 
Q 3603 2029 3296 1891 
Q 2989 1754 2502 1754 
L 1286 1754 
L 1286 0 
L 486 0 
L 486 4570 
z
M 1286 2406 
L 2458 2406 
Q 2592 2406 2733 2444 
Q 2874 2483 2992 2569 
Q 3110 2656 3184 2800 
Q 3258 2944 3258 3162 
Q 3258 3386 3194 3533 
Q 3130 3680 3021 3766 
Q 2912 3853 2771 3885 
Q 2630 3917 2470 3917 
L 1286 3917 
L 1286 2406 
z
" transform="scale(0.015625)"/>
       <path id="HelveticaNeue-Medium-68" d="M 384 4570 
L 1114 4570 
L 1114 2874 
L 1126 2874 
Q 1261 3098 1526 3248 
Q 1792 3398 2118 3398 
Q 2662 3398 2976 3116 
Q 3290 2835 3290 2272 
L 3290 0 
L 2560 0 
L 2560 2080 
Q 2547 2470 2393 2646 
Q 2240 2822 1914 2822 
Q 1728 2822 1581 2755 
Q 1434 2688 1331 2569 
Q 1229 2451 1171 2291 
Q 1114 2131 1114 1952 
L 1114 0 
L 384 0 
L 384 4570 
z
" transform="scale(0.015625)"/>
       <path id="HelveticaNeue-Medium-6f" d="M 1901 -90 
Q 1504 -90 1193 41 
Q 883 173 668 403 
Q 454 634 342 954 
Q 230 1274 230 1658 
Q 230 2035 342 2355 
Q 454 2675 668 2905 
Q 883 3136 1193 3267 
Q 1504 3398 1901 3398 
Q 2298 3398 2608 3267 
Q 2918 3136 3132 2905 
Q 3347 2675 3459 2355 
Q 3571 2035 3571 1658 
Q 3571 1274 3459 954 
Q 3347 634 3132 403 
Q 2918 173 2608 41 
Q 2298 -90 1901 -90 
z
M 1901 486 
Q 2144 486 2323 588 
Q 2502 691 2617 857 
Q 2733 1024 2787 1232 
Q 2842 1440 2842 1658 
Q 2842 1869 2787 2080 
Q 2733 2291 2617 2454 
Q 2502 2618 2323 2720 
Q 2144 2822 1901 2822 
Q 1658 2822 1478 2720 
Q 1299 2618 1184 2454 
Q 1069 2291 1014 2080 
Q 960 1869 960 1658 
Q 960 1440 1014 1232 
Q 1069 1024 1184 857 
Q 1299 691 1478 588 
Q 1658 486 1901 486 
z
" transform="scale(0.015625)"/>
       <path id="HelveticaNeue-Medium-49" d="M 486 4570 
L 1286 4570 
L 1286 0 
L 486 0 
L 486 4570 
z
" transform="scale(0.015625)"/>
       <path id="HelveticaNeue-Medium-6e" d="M 384 3309 
L 1075 3309 
L 1075 2822 
L 1088 2810 
Q 1254 3085 1523 3241 
Q 1792 3398 2118 3398 
Q 2662 3398 2976 3116 
Q 3290 2835 3290 2272 
L 3290 0 
L 2560 0 
L 2560 2080 
Q 2547 2470 2393 2646 
Q 2240 2822 1914 2822 
Q 1728 2822 1581 2755 
Q 1434 2688 1331 2569 
Q 1229 2451 1171 2291 
Q 1114 2131 1114 1952 
L 1114 0 
L 384 0 
L 384 3309 
z
" transform="scale(0.015625)"/>
       <path id="HelveticaNeue-Medium-64" d="M 3501 0 
L 2810 0 
L 2810 448 
L 2797 448 
Q 2650 160 2368 35 
Q 2086 -90 1773 -90 
Q 1382 -90 1091 48 
Q 800 186 608 422 
Q 416 659 320 982 
Q 224 1306 224 1677 
Q 224 2125 345 2451 
Q 467 2778 668 2989 
Q 870 3200 1129 3299 
Q 1389 3398 1658 3398 
Q 1811 3398 1971 3369 
Q 2131 3341 2278 3277 
Q 2426 3213 2550 3113 
Q 2675 3014 2758 2880 
L 2771 2880 
L 2771 4570 
L 3501 4570 
L 3501 0 
z
M 954 1619 
Q 954 1408 1008 1203 
Q 1062 998 1174 838 
Q 1286 678 1459 582 
Q 1632 486 1869 486 
Q 2112 486 2288 588 
Q 2464 691 2576 857 
Q 2688 1024 2742 1232 
Q 2797 1440 2797 1658 
Q 2797 2208 2550 2515 
Q 2304 2822 1882 2822 
Q 1626 2822 1450 2716 
Q 1274 2611 1162 2441 
Q 1050 2272 1002 2057 
Q 954 1843 954 1619 
z
" transform="scale(0.015625)"/>
       <path id="HelveticaNeue-Medium-78" d="M 1274 1741 
L 128 3309 
L 1011 3309 
L 1702 2291 
L 2426 3309 
L 3270 3309 
L 2144 1779 
L 3411 0 
L 2534 0 
L 1696 1222 
L 883 0 
L 26 0 
L 1274 1741 
z
" transform="scale(0.015625)"/>
       <path id="HelveticaNeue-Medium-39" d="M 1030 1133 
Q 1056 858 1225 688 
Q 1395 518 1683 518 
Q 1978 518 2154 675 
Q 2330 832 2426 1065 
Q 2522 1299 2557 1564 
Q 2592 1830 2611 2054 
L 2598 2067 
Q 2451 1805 2195 1667 
Q 1939 1530 1632 1530 
Q 1312 1530 1053 1638 
Q 794 1747 608 1942 
Q 422 2138 320 2416 
Q 218 2694 218 3040 
Q 218 3366 320 3644 
Q 422 3923 620 4131 
Q 819 4339 1107 4454 
Q 1395 4570 1760 4570 
Q 2234 4570 2541 4387 
Q 2848 4205 3024 3888 
Q 3200 3571 3270 3142 
Q 3341 2714 3341 2227 
Q 3341 1824 3254 1414 
Q 3168 1005 2969 669 
Q 2771 333 2448 121 
Q 2125 -90 1651 -90 
Q 1382 -90 1145 0 
Q 909 90 726 250 
Q 544 410 429 634 
Q 314 858 301 1133 
L 1030 1133 
z
M 1728 3962 
Q 1530 3962 1382 3888 
Q 1235 3814 1139 3686 
Q 1043 3558 995 3392 
Q 947 3226 947 3046 
Q 947 2861 995 2691 
Q 1043 2522 1139 2394 
Q 1235 2266 1382 2186 
Q 1530 2106 1728 2106 
Q 1933 2106 2086 2182 
Q 2240 2259 2339 2390 
Q 2438 2522 2489 2691 
Q 2541 2861 2541 3046 
Q 2541 3226 2489 3392 
Q 2438 3558 2339 3683 
Q 2240 3808 2086 3885 
Q 1933 3962 1728 3962 
z
" transform="scale(0.015625)"/>
      </defs>
      <use xlink:href="#HelveticaNeue-Medium-62"/>
      <use xlink:href="#HelveticaNeue-Medium-65" x="61.099991"/>
      <use xlink:href="#HelveticaNeue-Medium-73" x="116.699982"/>
      <use xlink:href="#HelveticaNeue-Medium-74" x="168.599976"/>
      <use xlink:href="#HelveticaNeue-Medium-20" x="201.899963"/>
      <use xlink:href="#HelveticaNeue-Medium-66" x="229.699951"/>
      <use xlink:href="#HelveticaNeue-Medium-69" x="261.199936"/>
      <use xlink:href="#HelveticaNeue-Medium-74" x="285.299927"/>
      <use xlink:href="#HelveticaNeue-Medium-3a" x="318.599915"/>
      <use xlink:href="#HelveticaNeue-Medium-20" x="346.399902"/>
      <use xlink:href="#HelveticaNeue-Medium-50" x="374.19989"/>
      <use xlink:href="#HelveticaNeue-Medium-68" x="440.899887"/>
      <use xlink:href="#HelveticaNeue-Medium-6f" x="498.299881"/>
      <use xlink:href="#HelveticaNeue-Medium-49" x="557.599869"/>
      <use xlink:href="#HelveticaNeue-Medium-6e" x="585.399857"/>
      <use xlink:href="#HelveticaNeue-Medium-64" x="642.79985"/>
      <use xlink:href="#HelveticaNeue-Medium-65" x="703.899841"/>
      <use xlink:href="#HelveticaNeue-Medium-78" x="759.499832"/>
      <use xlink:href="#HelveticaNeue-Medium-3d" x="813.199829"/>
      <use xlink:href="#HelveticaNeue-Medium-31" x="873.199814"/>
      <use xlink:href="#HelveticaNeue-Medium-2e" x="928.799805"/>
      <use xlink:href="#HelveticaNeue-Medium-39" x="956.599792"/>
      <use xlink:href="#HelveticaNeue-Medium-39" x="1012.199783"/>
      <use xlink:href="#HelveticaNeue-Medium-34" x="1067.799774"/>
     </g>
    </g>
   </g>
  </g>
 </g>
 <defs>
  <clipPath id="p1d4ab149e1">
   <rect x="51.048125" y="24.895" width="558" height="332.64"/>
  </clipPath>
 </defs>
</svg>
