<?xml version="1.0" encoding="utf-8" standalone="no"?>
<!DOCTYPE svg PUBLIC "-//W3C//DTD SVG 1.1//EN"
  "http://www.w3.org/Graphics/SVG/1.1/DTD/svg11.dtd">
<svg xmlns:xlink="http://www.w3.org/1999/xlink" width="507.658311pt" height="531.890313pt" viewBox="0 0 507.658311 531.890313" xmlns="http://www.w3.org/2000/svg" version="1.1">
 <metadata>
  <rdf:RDF xmlns:dc="http://purl.org/dc/elements/1.1/" xmlns:cc="http://creativecommons.org/ns#" xmlns:rdf="http://www.w3.org/1999/02/22-rdf-syntax-ns#">
   <cc:Work>
    <dc:type rdf:resource="http://purl.org/dc/dcmitype/StillImage"/>
    <dc:date>2025-07-04T08:45:42.168858</dc:date>
    <dc:format>image/svg+xml</dc:format>
    <dc:creator>
     <cc:Agent>
      <dc:title>Matplotlib v3.8.4, https://matplotlib.org/</dc:title>
     </cc:Agent>
    </dc:creator>
   </cc:Work>
  </rdf:RDF>
 </metadata>
 <defs>
  <style type="text/css">*{stroke-linejoin: round; stroke-linecap: butt}</style>
 </defs>
 <g id="figure_1">
  <g id="patch_1">
   <path d="M 0 531.890313 
L 507.658311 531.890313 
L 507.658311 0 
L 0 0 
z
" style="fill: #ffffff"/>
  </g>
  <g id="axes_1">
   <g id="patch_2">
    <path d="M 53.447656 481.429375 
L 499.847656 481.429375 
L 499.847656 37.909375 
L 53.447656 37.909375 
z
" style="fill: #ffffff"/>
   </g>
   <g id="patch_3">
    <path d="M 73.738565 481.429375 
L 73.738565 480.623191 
L 94.029474 480.623191 
L 94.029474 481.429375 
L 114.320384 481.429375 
L 114.320384 477.801548 
L 134.611293 477.801548 
L 134.611293 469.336618 
L 154.902202 469.336618 
L 154.902202 441.523277 
L 175.193111 441.523277 
L 175.193111 406.454282 
L 195.48402 406.454282 
L 195.48402 370.176011 
L 215.774929 370.176011 
L 215.774929 282.705069 
L 236.065838 282.705069 
L 236.065838 189.187749 
L 256.356747 189.187749 
L 256.356747 110.181737 
L 276.647656 110.181737 
L 276.647656 79.143661 
L 296.938565 79.143661 
L 296.938565 120.259034 
L 317.229474 120.259034 
L 317.229474 247.232982 
L 337.520384 247.232982 
L 337.520384 283.108161 
L 357.811293 283.108161 
L 357.811293 354.052335 
L 378.102202 354.052335 
L 378.102202 425.399601 
L 398.393111 425.399601 
L 398.393111 455.631494 
L 418.68402 455.631494 
L 418.68402 471.755169 
L 438.974929 471.755169 
L 438.974929 477.801548 
L 459.265838 477.801548 
L 459.265838 478.607732 
L 479.556747 478.607732 
L 479.556747 481.429375 
" clip-path="url(#pe3782801b4)" style="opacity: 0.3"/>
   </g>
   <g id="matplotlib.axis_1">
    <g id="xtick_1">
     <g id="line2d_1">
      <defs>
       <path id="m9d86d88418" d="M 0 0 
L 0 -6 
" style="stroke: #000000; stroke-width: 1.5"/>
      </defs>
      <g>
       <use xlink:href="#m9d86d88418" x="139.220395" y="481.429375" style="stroke: #000000; stroke-width: 1.5"/>
      </g>
     </g>
     <g id="line2d_2">
      <defs>
       <path id="mba8b70d39c" d="M 0 0 
L 0 6 
" style="stroke: #000000; stroke-width: 1.5"/>
      </defs>
      <g>
       <use xlink:href="#mba8b70d39c" x="139.220395" y="37.909375" style="stroke: #000000; stroke-width: 1.5"/>
      </g>
     </g>
     <g id="text_1">
      <!-- 4.8 -->
      <g transform="translate(128.796567 495.640313) scale(0.15 -0.15)">
       <defs>
        <path id="HelveticaNeue-Light-34" d="M 2259 1453 
L 557 1453 
L 2246 3891 
L 2259 3891 
L 2259 1453 
z
M 192 1504 
L 192 1114 
L 2259 1114 
L 2259 0 
L 2630 0 
L 2630 1114 
L 3302 1114 
L 3302 1453 
L 2630 1453 
L 2630 4480 
L 2266 4480 
L 192 1504 
z
" transform="scale(0.015625)"/>
        <path id="HelveticaNeue-Light-2e" d="M 621 0 
L 1158 0 
L 1158 678 
L 621 678 
L 621 0 
z
" transform="scale(0.015625)"/>
        <path id="HelveticaNeue-Light-38" d="M 1779 2566 
Q 1600 2560 1427 2605 
Q 1254 2650 1120 2752 
Q 986 2854 902 3014 
Q 819 3174 819 3398 
Q 819 3590 899 3737 
Q 979 3885 1113 3981 
Q 1248 4077 1421 4128 
Q 1594 4179 1779 4179 
Q 1984 4179 2157 4128 
Q 2330 4077 2458 3981 
Q 2586 3885 2659 3737 
Q 2733 3590 2733 3398 
Q 2733 3181 2653 3021 
Q 2573 2861 2441 2758 
Q 2310 2656 2137 2608 
Q 1965 2560 1779 2566 
z
M 3136 3398 
Q 3136 3686 3017 3897 
Q 2899 4109 2704 4246 
Q 2509 4384 2265 4451 
Q 2022 4518 1773 4518 
Q 1523 4518 1280 4451 
Q 1037 4384 845 4246 
Q 653 4109 534 3897 
Q 416 3686 416 3398 
Q 416 3027 605 2774 
Q 794 2522 1146 2413 
L 1146 2400 
Q 723 2323 486 2009 
Q 250 1696 237 1254 
Q 237 915 358 662 
Q 480 410 691 243 
Q 902 77 1184 -6 
Q 1466 -90 1779 -90 
Q 2099 -90 2377 -6 
Q 2656 77 2867 243 
Q 3078 410 3200 662 
Q 3322 915 3322 1254 
Q 3322 1715 3085 2012 
Q 2848 2310 2406 2400 
L 2406 2413 
Q 2752 2515 2944 2774 
Q 3136 3034 3136 3398 
z
M 1779 243 
Q 1542 243 1334 307 
Q 1126 371 972 496 
Q 819 621 729 813 
Q 640 1005 640 1254 
Q 640 1498 733 1683 
Q 826 1869 979 1993 
Q 1133 2118 1341 2176 
Q 1549 2234 1779 2227 
Q 2003 2234 2211 2173 
Q 2419 2112 2576 1987 
Q 2733 1862 2825 1680 
Q 2918 1498 2918 1254 
Q 2918 998 2828 806 
Q 2739 614 2585 489 
Q 2432 365 2224 304 
Q 2016 243 1779 243 
z
" transform="scale(0.015625)"/>
       </defs>
       <use xlink:href="#HelveticaNeue-Light-34"/>
       <use xlink:href="#HelveticaNeue-Light-2e" x="55.599991"/>
       <use xlink:href="#HelveticaNeue-Light-38" x="83.399979"/>
      </g>
     </g>
    </g>
    <g id="xtick_2">
     <g id="line2d_3">
      <g>
       <use xlink:href="#m9d86d88418" x="226.923917" y="481.429375" style="stroke: #000000; stroke-width: 1.5"/>
      </g>
     </g>
     <g id="line2d_4">
      <g>
       <use xlink:href="#mba8b70d39c" x="226.923917" y="37.909375" style="stroke: #000000; stroke-width: 1.5"/>
      </g>
     </g>
     <g id="text_2">
      <!-- 5.0 -->
      <g transform="translate(216.500089 495.640313) scale(0.15 -0.15)">
       <defs>
        <path id="HelveticaNeue-Light-35" d="M 634 1280 
L 230 1280 
Q 237 960 352 704 
Q 467 448 662 272 
Q 858 96 1123 3 
Q 1389 -90 1702 -90 
Q 2022 -90 2307 22 
Q 2592 134 2803 336 
Q 3014 538 3136 816 
Q 3258 1094 3258 1421 
Q 3258 1760 3152 2045 
Q 3046 2330 2851 2534 
Q 2656 2739 2377 2854 
Q 2099 2970 1754 2970 
Q 1485 2970 1229 2861 
Q 973 2752 806 2554 
L 794 2566 
L 1082 4051 
L 3040 4051 
L 3040 4422 
L 800 4422 
L 365 2099 
L 710 2099 
Q 877 2355 1139 2492 
Q 1402 2630 1709 2630 
Q 1958 2630 2169 2540 
Q 2381 2451 2531 2294 
Q 2682 2138 2768 1926 
Q 2854 1715 2854 1466 
Q 2854 1222 2777 1001 
Q 2701 781 2553 611 
Q 2406 442 2201 342 
Q 1997 243 1734 243 
Q 1504 243 1305 316 
Q 1107 390 960 528 
Q 813 666 726 858 
Q 640 1050 634 1280 
z
" transform="scale(0.015625)"/>
        <path id="HelveticaNeue-Light-30" d="M 1779 4518 
Q 1293 4518 985 4304 
Q 678 4090 508 3757 
Q 339 3424 278 3014 
Q 218 2605 218 2208 
Q 218 1818 278 1408 
Q 339 998 508 665 
Q 678 333 985 121 
Q 1293 -90 1779 -90 
Q 2272 -90 2576 121 
Q 2880 333 3049 665 
Q 3219 998 3280 1408 
Q 3341 1818 3341 2214 
Q 3341 2605 3280 3014 
Q 3219 3424 3049 3757 
Q 2880 4090 2576 4304 
Q 2272 4518 1779 4518 
z
M 1779 4179 
Q 2163 4179 2393 3980 
Q 2624 3782 2742 3488 
Q 2861 3194 2899 2848 
Q 2938 2502 2938 2214 
Q 2938 1920 2899 1577 
Q 2861 1235 2742 937 
Q 2624 640 2393 441 
Q 2163 243 1779 243 
Q 1395 243 1164 441 
Q 934 640 816 937 
Q 698 1235 659 1577 
Q 621 1920 621 2214 
Q 621 2502 659 2848 
Q 698 3194 816 3488 
Q 934 3782 1164 3980 
Q 1395 4179 1779 4179 
z
" transform="scale(0.015625)"/>
       </defs>
       <use xlink:href="#HelveticaNeue-Light-35"/>
       <use xlink:href="#HelveticaNeue-Light-2e" x="55.599991"/>
       <use xlink:href="#HelveticaNeue-Light-30" x="83.399979"/>
      </g>
     </g>
    </g>
    <g id="xtick_3">
     <g id="line2d_5">
      <g>
       <use xlink:href="#m9d86d88418" x="314.627439" y="481.429375" style="stroke: #000000; stroke-width: 1.5"/>
      </g>
     </g>
     <g id="line2d_6">
      <g>
       <use xlink:href="#mba8b70d39c" x="314.627439" y="37.909375" style="stroke: #000000; stroke-width: 1.5"/>
      </g>
     </g>
     <g id="text_3">
      <!-- 5.2 -->
      <g transform="translate(304.203611 495.640313) scale(0.15 -0.15)">
       <defs>
        <path id="HelveticaNeue-Light-32" d="M 3181 0 
L 3181 371 
L 691 371 
Q 730 595 883 784 
Q 1037 973 1238 1133 
Q 1440 1293 1657 1424 
Q 1875 1555 2035 1664 
Q 2259 1805 2460 1968 
Q 2662 2131 2819 2323 
Q 2976 2515 3069 2745 
Q 3162 2976 3162 3258 
Q 3162 3571 3056 3808 
Q 2950 4045 2761 4201 
Q 2573 4358 2320 4438 
Q 2067 4518 1773 4518 
Q 1408 4518 1136 4400 
Q 864 4282 685 4070 
Q 506 3859 419 3568 
Q 333 3277 339 2931 
L 742 2931 
Q 736 3181 790 3405 
Q 845 3629 966 3801 
Q 1088 3974 1283 4076 
Q 1478 4179 1754 4179 
Q 1958 4179 2140 4118 
Q 2323 4058 2460 3939 
Q 2598 3821 2678 3651 
Q 2758 3482 2758 3264 
Q 2758 2995 2665 2800 
Q 2573 2605 2387 2419 
Q 2202 2234 1968 2070 
Q 1734 1907 1497 1750 
Q 1261 1594 1037 1424 
Q 813 1254 633 1049 
Q 454 845 345 589 
Q 237 333 230 0 
L 3181 0 
z
" transform="scale(0.015625)"/>
       </defs>
       <use xlink:href="#HelveticaNeue-Light-35"/>
       <use xlink:href="#HelveticaNeue-Light-2e" x="55.599991"/>
       <use xlink:href="#HelveticaNeue-Light-32" x="83.399979"/>
      </g>
     </g>
    </g>
    <g id="xtick_4">
     <g id="line2d_7">
      <g>
       <use xlink:href="#m9d86d88418" x="402.330961" y="481.429375" style="stroke: #000000; stroke-width: 1.5"/>
      </g>
     </g>
     <g id="line2d_8">
      <g>
       <use xlink:href="#mba8b70d39c" x="402.330961" y="37.909375" style="stroke: #000000; stroke-width: 1.5"/>
      </g>
     </g>
     <g id="text_4">
      <!-- 5.4 -->
      <g transform="translate(391.907133 495.640313) scale(0.15 -0.15)">
       <use xlink:href="#HelveticaNeue-Light-35"/>
       <use xlink:href="#HelveticaNeue-Light-2e" x="55.599991"/>
       <use xlink:href="#HelveticaNeue-Light-34" x="83.399979"/>
      </g>
     </g>
    </g>
    <g id="xtick_5">
     <g id="line2d_9">
      <g>
       <use xlink:href="#m9d86d88418" x="490.034483" y="481.429375" style="stroke: #000000; stroke-width: 1.5"/>
      </g>
     </g>
     <g id="line2d_10">
      <g>
       <use xlink:href="#mba8b70d39c" x="490.034483" y="37.909375" style="stroke: #000000; stroke-width: 1.5"/>
      </g>
     </g>
     <g id="text_5">
      <!-- 5.6 -->
      <g transform="translate(479.610654 495.640313) scale(0.15 -0.15)">
       <defs>
        <path id="HelveticaNeue-Light-36" d="M 2829 3347 
L 3232 3347 
Q 3162 3942 2810 4230 
Q 2458 4518 1856 4518 
Q 1491 4518 1228 4390 
Q 966 4262 790 4057 
Q 614 3853 508 3600 
Q 403 3347 345 3100 
Q 288 2854 272 2636 
Q 256 2419 256 2285 
Q 256 1626 349 1174 
Q 442 723 634 441 
Q 826 160 1120 35 
Q 1414 -90 1824 -90 
Q 2157 -90 2435 22 
Q 2714 134 2915 336 
Q 3117 538 3229 816 
Q 3341 1094 3341 1421 
Q 3341 1747 3235 2022 
Q 3130 2298 2938 2496 
Q 2746 2694 2474 2806 
Q 2202 2918 1862 2918 
Q 1478 2918 1155 2713 
Q 832 2509 672 2176 
L 659 2176 
Q 659 2483 704 2832 
Q 749 3181 883 3481 
Q 1018 3782 1261 3980 
Q 1504 4179 1894 4179 
Q 2285 4179 2531 3948 
Q 2778 3718 2829 3347 
z
M 1856 2579 
Q 2112 2579 2313 2486 
Q 2515 2394 2652 2234 
Q 2790 2074 2864 1856 
Q 2938 1638 2938 1395 
Q 2938 1165 2861 953 
Q 2784 742 2640 585 
Q 2496 429 2301 336 
Q 2106 243 1862 243 
Q 1568 243 1357 332 
Q 1146 422 1008 579 
Q 870 736 806 947 
Q 742 1158 742 1395 
Q 742 1645 816 1859 
Q 890 2074 1034 2234 
Q 1178 2394 1386 2486 
Q 1594 2579 1856 2579 
z
" transform="scale(0.015625)"/>
       </defs>
       <use xlink:href="#HelveticaNeue-Light-35"/>
       <use xlink:href="#HelveticaNeue-Light-2e" x="55.599991"/>
       <use xlink:href="#HelveticaNeue-Light-36" x="83.399979"/>
      </g>
     </g>
    </g>
    <g id="xtick_6">
     <g id="line2d_11">
      <defs>
       <path id="m36a96b9cad" d="M 0 0 
L 0 -3 
" style="stroke: #000000; stroke-width: 1.2"/>
      </defs>
      <g>
       <use xlink:href="#m36a96b9cad" x="73.442754" y="481.429375" style="stroke: #000000; stroke-width: 1.2"/>
      </g>
     </g>
     <g id="line2d_12">
      <defs>
       <path id="m6127b1419f" d="M 0 0 
L 0 3 
" style="stroke: #000000; stroke-width: 1.2"/>
      </defs>
      <g>
       <use xlink:href="#m6127b1419f" x="73.442754" y="37.909375" style="stroke: #000000; stroke-width: 1.2"/>
      </g>
     </g>
    </g>
    <g id="xtick_7">
     <g id="line2d_13">
      <g>
       <use xlink:href="#m36a96b9cad" x="95.368634" y="481.429375" style="stroke: #000000; stroke-width: 1.2"/>
      </g>
     </g>
     <g id="line2d_14">
      <g>
       <use xlink:href="#m6127b1419f" x="95.368634" y="37.909375" style="stroke: #000000; stroke-width: 1.2"/>
      </g>
     </g>
    </g>
    <g id="xtick_8">
     <g id="line2d_15">
      <g>
       <use xlink:href="#m36a96b9cad" x="117.294515" y="481.429375" style="stroke: #000000; stroke-width: 1.2"/>
      </g>
     </g>
     <g id="line2d_16">
      <g>
       <use xlink:href="#m6127b1419f" x="117.294515" y="37.909375" style="stroke: #000000; stroke-width: 1.2"/>
      </g>
     </g>
    </g>
    <g id="xtick_9">
     <g id="line2d_17">
      <g>
       <use xlink:href="#m36a96b9cad" x="161.146276" y="481.429375" style="stroke: #000000; stroke-width: 1.2"/>
      </g>
     </g>
     <g id="line2d_18">
      <g>
       <use xlink:href="#m6127b1419f" x="161.146276" y="37.909375" style="stroke: #000000; stroke-width: 1.2"/>
      </g>
     </g>
    </g>
    <g id="xtick_10">
     <g id="line2d_19">
      <g>
       <use xlink:href="#m36a96b9cad" x="183.072156" y="481.429375" style="stroke: #000000; stroke-width: 1.2"/>
      </g>
     </g>
     <g id="line2d_20">
      <g>
       <use xlink:href="#m6127b1419f" x="183.072156" y="37.909375" style="stroke: #000000; stroke-width: 1.2"/>
      </g>
     </g>
    </g>
    <g id="xtick_11">
     <g id="line2d_21">
      <g>
       <use xlink:href="#m36a96b9cad" x="204.998037" y="481.429375" style="stroke: #000000; stroke-width: 1.2"/>
      </g>
     </g>
     <g id="line2d_22">
      <g>
       <use xlink:href="#m6127b1419f" x="204.998037" y="37.909375" style="stroke: #000000; stroke-width: 1.2"/>
      </g>
     </g>
    </g>
    <g id="xtick_12">
     <g id="line2d_23">
      <g>
       <use xlink:href="#m36a96b9cad" x="248.849798" y="481.429375" style="stroke: #000000; stroke-width: 1.2"/>
      </g>
     </g>
     <g id="line2d_24">
      <g>
       <use xlink:href="#m6127b1419f" x="248.849798" y="37.909375" style="stroke: #000000; stroke-width: 1.2"/>
      </g>
     </g>
    </g>
    <g id="xtick_13">
     <g id="line2d_25">
      <g>
       <use xlink:href="#m36a96b9cad" x="270.775678" y="481.429375" style="stroke: #000000; stroke-width: 1.2"/>
      </g>
     </g>
     <g id="line2d_26">
      <g>
       <use xlink:href="#m6127b1419f" x="270.775678" y="37.909375" style="stroke: #000000; stroke-width: 1.2"/>
      </g>
     </g>
    </g>
    <g id="xtick_14">
     <g id="line2d_27">
      <g>
       <use xlink:href="#m36a96b9cad" x="292.701559" y="481.429375" style="stroke: #000000; stroke-width: 1.2"/>
      </g>
     </g>
     <g id="line2d_28">
      <g>
       <use xlink:href="#m6127b1419f" x="292.701559" y="37.909375" style="stroke: #000000; stroke-width: 1.2"/>
      </g>
     </g>
    </g>
    <g id="xtick_15">
     <g id="line2d_29">
      <g>
       <use xlink:href="#m36a96b9cad" x="336.553319" y="481.429375" style="stroke: #000000; stroke-width: 1.2"/>
      </g>
     </g>
     <g id="line2d_30">
      <g>
       <use xlink:href="#m6127b1419f" x="336.553319" y="37.909375" style="stroke: #000000; stroke-width: 1.2"/>
      </g>
     </g>
    </g>
    <g id="xtick_16">
     <g id="line2d_31">
      <g>
       <use xlink:href="#m36a96b9cad" x="358.4792" y="481.429375" style="stroke: #000000; stroke-width: 1.2"/>
      </g>
     </g>
     <g id="line2d_32">
      <g>
       <use xlink:href="#m6127b1419f" x="358.4792" y="37.909375" style="stroke: #000000; stroke-width: 1.2"/>
      </g>
     </g>
    </g>
    <g id="xtick_17">
     <g id="line2d_33">
      <g>
       <use xlink:href="#m36a96b9cad" x="380.40508" y="481.429375" style="stroke: #000000; stroke-width: 1.2"/>
      </g>
     </g>
     <g id="line2d_34">
      <g>
       <use xlink:href="#m6127b1419f" x="380.40508" y="37.909375" style="stroke: #000000; stroke-width: 1.2"/>
      </g>
     </g>
    </g>
    <g id="xtick_18">
     <g id="line2d_35">
      <g>
       <use xlink:href="#m36a96b9cad" x="424.256841" y="481.429375" style="stroke: #000000; stroke-width: 1.2"/>
      </g>
     </g>
     <g id="line2d_36">
      <g>
       <use xlink:href="#m6127b1419f" x="424.256841" y="37.909375" style="stroke: #000000; stroke-width: 1.2"/>
      </g>
     </g>
    </g>
    <g id="xtick_19">
     <g id="line2d_37">
      <g>
       <use xlink:href="#m36a96b9cad" x="446.182722" y="481.429375" style="stroke: #000000; stroke-width: 1.2"/>
      </g>
     </g>
     <g id="line2d_38">
      <g>
       <use xlink:href="#m6127b1419f" x="446.182722" y="37.909375" style="stroke: #000000; stroke-width: 1.2"/>
      </g>
     </g>
    </g>
    <g id="xtick_20">
     <g id="line2d_39">
      <g>
       <use xlink:href="#m36a96b9cad" x="468.108602" y="481.429375" style="stroke: #000000; stroke-width: 1.2"/>
      </g>
     </g>
     <g id="line2d_40">
      <g>
       <use xlink:href="#m6127b1419f" x="468.108602" y="37.909375" style="stroke: #000000; stroke-width: 1.2"/>
      </g>
     </g>
    </g>
    <g id="text_6">
     <!-- Flux 1.0-5.0 keV ($10^{-12}$ erg cm$^{-2}$ s$^{-1}$) -->
     <g transform="translate(99.347656 520.690313) scale(0.2 -0.2)">
      <defs>
       <path id="HelveticaNeue-Bold-46" d="M 442 4570 
L 442 0 
L 1446 0 
L 1446 1888 
L 3360 1888 
L 3360 2669 
L 1446 2669 
L 1446 3725 
L 3654 3725 
L 3654 4570 
L 442 4570 
z
" transform="scale(0.015625)"/>
       <path id="HelveticaNeue-Bold-6c" d="M 371 4570 
L 371 0 
L 1280 0 
L 1280 4570 
L 371 4570 
z
" transform="scale(0.015625)"/>
       <path id="HelveticaNeue-Bold-75" d="M 3450 0 
L 3450 3309 
L 2541 3309 
L 2541 1574 
Q 2541 1069 2374 848 
Q 2208 627 1837 627 
Q 1510 627 1382 828 
Q 1254 1030 1254 1440 
L 1254 3309 
L 346 3309 
L 346 1274 
Q 346 966 400 713 
Q 454 461 588 285 
Q 723 109 956 13 
Q 1190 -83 1555 -83 
Q 1843 -83 2118 45 
Q 2394 173 2566 461 
L 2586 461 
L 2586 0 
L 3450 0 
z
" transform="scale(0.015625)"/>
       <path id="HelveticaNeue-Bold-78" d="M 1190 1741 
L 0 0 
L 1018 0 
L 1709 1043 
L 2400 0 
L 3437 0 
L 2214 1760 
L 3302 3309 
L 2298 3309 
L 1722 2445 
L 1139 3309 
L 102 3309 
L 1190 1741 
z
" transform="scale(0.015625)"/>
       <path id="HelveticaNeue-Bold-20" transform="scale(0.015625)"/>
       <path id="HelveticaNeue-Bold-31" d="M 2509 0 
L 2509 4480 
L 1786 4480 
Q 1747 4224 1625 4051 
Q 1504 3878 1328 3772 
Q 1152 3667 931 3625 
Q 710 3584 474 3590 
L 474 2906 
L 1600 2906 
L 1600 0 
L 2509 0 
z
" transform="scale(0.015625)"/>
       <path id="HelveticaNeue-Bold-2e" d="M 384 986 
L 384 0 
L 1389 0 
L 1389 986 
L 384 986 
z
" transform="scale(0.015625)"/>
       <path id="HelveticaNeue-Bold-30" d="M 1043 2259 
Q 1043 2374 1046 2537 
Q 1050 2701 1069 2873 
Q 1088 3046 1133 3216 
Q 1178 3386 1258 3520 
Q 1338 3654 1462 3737 
Q 1587 3821 1773 3821 
Q 1958 3821 2086 3737 
Q 2214 3654 2297 3520 
Q 2381 3386 2422 3216 
Q 2464 3046 2486 2873 
Q 2509 2701 2512 2537 
Q 2515 2374 2515 2259 
Q 2515 2067 2502 1795 
Q 2490 1523 2422 1270 
Q 2355 1018 2204 838 
Q 2054 659 1773 659 
Q 1498 659 1350 838 
Q 1203 1018 1136 1270 
Q 1069 1523 1056 1795 
Q 1043 2067 1043 2259 
z
M 134 2259 
Q 134 1587 265 1136 
Q 397 685 621 416 
Q 845 147 1142 32 
Q 1440 -83 1773 -83 
Q 2112 -83 2409 32 
Q 2707 147 2934 416 
Q 3162 685 3293 1136 
Q 3424 1587 3424 2259 
Q 3424 2912 3293 3357 
Q 3162 3802 2934 4070 
Q 2707 4339 2409 4454 
Q 2112 4570 1773 4570 
Q 1440 4570 1142 4454 
Q 845 4339 621 4070 
Q 397 3802 265 3357 
Q 134 2912 134 2259 
z
" transform="scale(0.015625)"/>
       <path id="HelveticaNeue-Bold-2d" d="M 339 2138 
L 339 1357 
L 2266 1357 
L 2266 2138 
L 339 2138 
z
" transform="scale(0.015625)"/>
       <path id="HelveticaNeue-Bold-35" d="M 3200 3731 
L 3200 4480 
L 698 4480 
L 256 2003 
L 1075 2003 
Q 1210 2189 1363 2275 
Q 1517 2362 1760 2362 
Q 1946 2362 2086 2298 
Q 2227 2234 2329 2118 
Q 2432 2003 2483 1849 
Q 2534 1696 2534 1523 
Q 2534 1357 2480 1200 
Q 2426 1043 2326 924 
Q 2227 806 2083 732 
Q 1939 659 1760 659 
Q 1453 659 1254 841 
Q 1056 1024 1024 1331 
L 115 1331 
Q 122 979 259 713 
Q 397 448 627 269 
Q 858 90 1155 3 
Q 1453 -83 1779 -83 
Q 2118 -90 2419 28 
Q 2720 147 2947 364 
Q 3174 582 3308 880 
Q 3443 1178 3443 1523 
Q 3443 1837 3350 2115 
Q 3258 2394 3082 2598 
Q 2906 2803 2650 2924 
Q 2394 3046 2061 3046 
Q 1792 3046 1581 2966 
Q 1370 2886 1184 2701 
L 1171 2714 
L 1350 3731 
L 3200 3731 
z
" transform="scale(0.015625)"/>
       <path id="HelveticaNeue-Bold-6b" d="M 429 4570 
L 429 0 
L 1338 0 
L 1338 1139 
L 1690 1478 
L 2598 0 
L 3699 0 
L 2310 2093 
L 3558 3309 
L 2483 3309 
L 1338 2118 
L 1338 4570 
L 429 4570 
z
" transform="scale(0.015625)"/>
       <path id="HelveticaNeue-Bold-65" d="M 2573 2010 
L 1094 2010 
Q 1101 2106 1136 2227 
Q 1171 2349 1257 2457 
Q 1344 2566 1488 2640 
Q 1632 2714 1850 2714 
Q 2182 2714 2345 2534 
Q 2509 2355 2573 2010 
z
M 1094 1434 
L 3482 1434 
Q 3507 1818 3417 2170 
Q 3328 2522 3126 2797 
Q 2925 3072 2611 3235 
Q 2298 3398 1875 3398 
Q 1498 3398 1187 3264 
Q 877 3130 653 2896 
Q 429 2662 307 2342 
Q 186 2022 186 1651 
Q 186 1267 304 947 
Q 422 627 640 396 
Q 858 166 1171 41 
Q 1485 -83 1875 -83 
Q 2438 -83 2835 173 
Q 3232 429 3424 1024 
L 2624 1024 
Q 2579 870 2380 732 
Q 2182 595 1907 595 
Q 1523 595 1318 793 
Q 1114 992 1094 1434 
z
" transform="scale(0.015625)"/>
       <path id="HelveticaNeue-Bold-56" d="M 2566 0 
L 4083 4570 
L 3046 4570 
L 2016 1357 
L 2003 1357 
L 986 4570 
L -45 4570 
L 1434 0 
L 2566 0 
z
" transform="scale(0.015625)"/>
       <path id="HelveticaNeue-Bold-28" d="M 1939 4678 
L 1178 4678 
Q 966 4371 809 4006 
Q 653 3642 547 3251 
Q 442 2861 387 2467 
Q 333 2074 333 1715 
Q 333 960 553 230 
Q 774 -499 1178 -1158 
L 1933 -1158 
Q 1568 -461 1405 275 
Q 1242 1011 1242 1779 
Q 1242 2534 1408 3267 
Q 1574 4000 1939 4678 
z
" transform="scale(0.015625)"/>
       <path id="DejaVuSans-31" d="M 794 531 
L 1825 531 
L 1825 4091 
L 703 3866 
L 703 4441 
L 1819 4666 
L 2450 4666 
L 2450 531 
L 3481 531 
L 3481 0 
L 794 0 
L 794 531 
z
" transform="scale(0.015625)"/>
       <path id="DejaVuSans-30" d="M 2034 4250 
Q 1547 4250 1301 3770 
Q 1056 3291 1056 2328 
Q 1056 1369 1301 889 
Q 1547 409 2034 409 
Q 2525 409 2770 889 
Q 3016 1369 3016 2328 
Q 3016 3291 2770 3770 
Q 2525 4250 2034 4250 
z
M 2034 4750 
Q 2819 4750 3233 4129 
Q 3647 3509 3647 2328 
Q 3647 1150 3233 529 
Q 2819 -91 2034 -91 
Q 1250 -91 836 529 
Q 422 1150 422 2328 
Q 422 3509 836 4129 
Q 1250 4750 2034 4750 
z
" transform="scale(0.015625)"/>
       <path id="DejaVuSans-2212" d="M 678 2272 
L 4684 2272 
L 4684 1741 
L 678 1741 
L 678 2272 
z
" transform="scale(0.015625)"/>
       <path id="DejaVuSans-32" d="M 1228 531 
L 3431 531 
L 3431 0 
L 469 0 
L 469 531 
Q 828 903 1448 1529 
Q 2069 2156 2228 2338 
Q 2531 2678 2651 2914 
Q 2772 3150 2772 3378 
Q 2772 3750 2511 3984 
Q 2250 4219 1831 4219 
Q 1534 4219 1204 4116 
Q 875 4013 500 3803 
L 500 4441 
Q 881 4594 1212 4672 
Q 1544 4750 1819 4750 
Q 2544 4750 2975 4387 
Q 3406 4025 3406 3419 
Q 3406 3131 3298 2873 
Q 3191 2616 2906 2266 
Q 2828 2175 2409 1742 
Q 1991 1309 1228 531 
z
" transform="scale(0.015625)"/>
       <path id="HelveticaNeue-Bold-72" d="M 346 3309 
L 346 0 
L 1254 0 
L 1254 1491 
Q 1254 1715 1299 1907 
Q 1344 2099 1449 2243 
Q 1555 2387 1728 2470 
Q 1901 2554 2150 2554 
Q 2234 2554 2323 2544 
Q 2413 2534 2477 2522 
L 2477 3366 
Q 2368 3398 2278 3398 
Q 2106 3398 1946 3347 
Q 1786 3296 1645 3203 
Q 1504 3110 1395 2979 
Q 1286 2848 1222 2694 
L 1210 2694 
L 1210 3309 
L 346 3309 
z
" transform="scale(0.015625)"/>
       <path id="HelveticaNeue-Bold-67" d="M 1888 781 
Q 1677 781 1536 870 
Q 1395 960 1308 1101 
Q 1222 1242 1187 1418 
Q 1152 1594 1152 1773 
Q 1152 1958 1193 2128 
Q 1235 2298 1328 2429 
Q 1421 2560 1558 2637 
Q 1696 2714 1888 2714 
Q 2112 2714 2259 2630 
Q 2406 2547 2496 2406 
Q 2586 2266 2624 2083 
Q 2662 1901 2662 1696 
Q 2662 1517 2614 1353 
Q 2566 1190 2470 1062 
Q 2374 934 2227 857 
Q 2080 781 1888 781 
z
M 3526 211 
L 3526 3309 
L 2662 3309 
L 2662 2867 
L 2650 2867 
Q 2483 3155 2236 3276 
Q 1990 3398 1664 3398 
Q 1318 3398 1052 3264 
Q 787 3130 608 2902 
Q 429 2675 336 2377 
Q 243 2080 243 1760 
Q 243 1421 323 1117 
Q 403 813 576 585 
Q 749 358 1017 227 
Q 1286 96 1658 96 
Q 1958 96 2230 221 
Q 2502 346 2650 608 
L 2662 608 
L 2662 173 
Q 2669 -179 2493 -409 
Q 2317 -640 1933 -640 
Q 1690 -640 1504 -541 
Q 1318 -442 1254 -186 
L 352 -186 
Q 371 -467 508 -668 
Q 646 -870 854 -998 
Q 1062 -1126 1315 -1187 
Q 1568 -1248 1811 -1248 
Q 2381 -1248 2720 -1094 
Q 3059 -941 3238 -720 
Q 3418 -499 3472 -243 
Q 3526 13 3526 211 
z
" transform="scale(0.015625)"/>
       <path id="HelveticaNeue-Bold-63" d="M 2598 2144 
L 3488 2144 
Q 3469 2464 3334 2697 
Q 3200 2931 2985 3088 
Q 2771 3245 2499 3321 
Q 2227 3398 1933 3398 
Q 1530 3398 1216 3264 
Q 902 3130 684 2890 
Q 467 2650 355 2320 
Q 243 1990 243 1606 
Q 243 1235 364 924 
Q 486 614 704 390 
Q 922 166 1232 41 
Q 1542 -83 1914 -83 
Q 2573 -83 2995 262 
Q 3418 608 3507 1267 
L 2630 1267 
Q 2586 960 2410 777 
Q 2234 595 1907 595 
Q 1696 595 1549 691 
Q 1402 787 1315 937 
Q 1229 1088 1190 1273 
Q 1152 1459 1152 1638 
Q 1152 1824 1190 2013 
Q 1229 2202 1321 2358 
Q 1414 2515 1561 2614 
Q 1709 2714 1926 2714 
Q 2509 2714 2598 2144 
z
" transform="scale(0.015625)"/>
       <path id="HelveticaNeue-Bold-6d" d="M 371 3309 
L 371 0 
L 1280 0 
L 1280 1920 
Q 1280 2163 1350 2313 
Q 1421 2464 1520 2544 
Q 1619 2624 1724 2653 
Q 1830 2682 1894 2682 
Q 2112 2682 2224 2608 
Q 2336 2534 2384 2412 
Q 2432 2291 2438 2147 
Q 2445 2003 2445 1856 
L 2445 0 
L 3354 0 
L 3354 1843 
Q 3354 1997 3376 2147 
Q 3398 2298 3465 2416 
Q 3533 2534 3651 2608 
Q 3770 2682 3962 2682 
Q 4154 2682 4266 2618 
Q 4378 2554 4435 2445 
Q 4493 2336 4505 2189 
Q 4518 2042 4518 1875 
L 4518 0 
L 5427 0 
L 5427 2214 
Q 5427 2534 5337 2761 
Q 5248 2989 5088 3129 
Q 4928 3270 4704 3334 
Q 4480 3398 4218 3398 
Q 3872 3398 3619 3232 
Q 3366 3066 3219 2848 
Q 3085 3155 2825 3276 
Q 2566 3398 2253 3398 
Q 1926 3398 1673 3257 
Q 1421 3117 1242 2861 
L 1229 2861 
L 1229 3309 
L 371 3309 
z
" transform="scale(0.015625)"/>
       <path id="HelveticaNeue-Bold-73" d="M 1050 1075 
L 186 1075 
Q 198 742 336 521 
Q 474 301 688 166 
Q 902 32 1177 -25 
Q 1453 -83 1741 -83 
Q 2022 -83 2294 -28 
Q 2566 26 2777 160 
Q 2989 294 3120 515 
Q 3251 736 3251 1062 
Q 3251 1293 3161 1449 
Q 3072 1606 2925 1712 
Q 2778 1818 2589 1882 
Q 2400 1946 2202 1990 
Q 2010 2035 1824 2073 
Q 1638 2112 1494 2160 
Q 1350 2208 1260 2285 
Q 1171 2362 1171 2483 
Q 1171 2586 1222 2646 
Q 1274 2707 1347 2739 
Q 1421 2771 1510 2780 
Q 1600 2790 1677 2790 
Q 1920 2790 2099 2697 
Q 2278 2605 2298 2342 
L 3162 2342 
Q 3136 2650 3005 2851 
Q 2874 3053 2675 3174 
Q 2477 3296 2224 3347 
Q 1971 3398 1702 3398 
Q 1434 3398 1178 3350 
Q 922 3302 717 3184 
Q 512 3066 387 2861 
Q 262 2656 262 2336 
Q 262 2118 352 1968 
Q 442 1818 589 1718 
Q 736 1619 925 1558 
Q 1114 1498 1312 1453 
Q 1798 1350 2070 1248 
Q 2342 1146 2342 941 
Q 2342 819 2284 739 
Q 2227 659 2140 611 
Q 2054 563 1948 540 
Q 1843 518 1747 518 
Q 1613 518 1488 550 
Q 1363 582 1267 649 
Q 1171 717 1110 822 
Q 1050 928 1050 1075 
z
" transform="scale(0.015625)"/>
       <path id="HelveticaNeue-Bold-29" d="M -38 -1158 
L 717 -1158 
Q 928 -858 1088 -493 
Q 1248 -128 1353 259 
Q 1459 646 1510 1040 
Q 1562 1434 1562 1792 
Q 1562 2547 1341 3283 
Q 1120 4019 717 4678 
L -32 4678 
Q 320 3981 486 3238 
Q 653 2496 653 1728 
Q 653 973 483 246 
Q 314 -480 -38 -1158 
z
" transform="scale(0.015625)"/>
      </defs>
      <use xlink:href="#HelveticaNeue-Bold-46" transform="translate(0 0.765625)"/>
      <use xlink:href="#HelveticaNeue-Bold-6c" transform="translate(59.299988 0.765625)"/>
      <use xlink:href="#HelveticaNeue-Bold-75" transform="translate(85.099976 0.765625)"/>
      <use xlink:href="#HelveticaNeue-Bold-78" transform="translate(144.399963 0.765625)"/>
      <use xlink:href="#HelveticaNeue-Bold-20" transform="translate(198.09996 0.765625)"/>
      <use xlink:href="#HelveticaNeue-Bold-31" transform="translate(225.899948 0.765625)"/>
      <use xlink:href="#HelveticaNeue-Bold-2e" transform="translate(281.499939 0.765625)"/>
      <use xlink:href="#HelveticaNeue-Bold-30" transform="translate(309.299927 0.765625)"/>
      <use xlink:href="#HelveticaNeue-Bold-2d" transform="translate(364.899918 0.765625)"/>
      <use xlink:href="#HelveticaNeue-Bold-35" transform="translate(405.599915 0.765625)"/>
      <use xlink:href="#HelveticaNeue-Bold-2e" transform="translate(461.199905 0.765625)"/>
      <use xlink:href="#HelveticaNeue-Bold-30" transform="translate(488.999893 0.765625)"/>
      <use xlink:href="#HelveticaNeue-Bold-20" transform="translate(544.599884 0.765625)"/>
      <use xlink:href="#HelveticaNeue-Bold-6b" transform="translate(572.399872 0.765625)"/>
      <use xlink:href="#HelveticaNeue-Bold-65" transform="translate(629.799866 0.765625)"/>
      <use xlink:href="#HelveticaNeue-Bold-56" transform="translate(687.19986 0.765625)"/>
      <use xlink:href="#HelveticaNeue-Bold-20" transform="translate(750.199844 0.765625)"/>
      <use xlink:href="#HelveticaNeue-Bold-28" transform="translate(777.999832 0.765625)"/>
      <use xlink:href="#DejaVuSans-31" transform="translate(807.599823 0.765625)"/>
      <use xlink:href="#DejaVuSans-30" transform="translate(871.22287 0.765625)"/>
      <use xlink:href="#DejaVuSans-2212" transform="translate(935.802948 39.046875) scale(0.7)"/>
      <use xlink:href="#DejaVuSans-31" transform="translate(994.455292 39.046875) scale(0.7)"/>
      <use xlink:href="#DejaVuSans-32" transform="translate(1038.991425 39.046875) scale(0.7)"/>
      <use xlink:href="#HelveticaNeue-Bold-20" transform="translate(1086.261932 0.765625)"/>
      <use xlink:href="#HelveticaNeue-Bold-65" transform="translate(1114.06192 0.765625)"/>
      <use xlink:href="#HelveticaNeue-Bold-72" transform="translate(1171.461914 0.765625)"/>
      <use xlink:href="#HelveticaNeue-Bold-67" transform="translate(1210.361908 0.765625)"/>
      <use xlink:href="#HelveticaNeue-Bold-20" transform="translate(1271.461899 0.765625)"/>
      <use xlink:href="#HelveticaNeue-Bold-63" transform="translate(1299.261887 0.765625)"/>
      <use xlink:href="#HelveticaNeue-Bold-6d" transform="translate(1356.66188 0.765625)"/>
      <use xlink:href="#DejaVuSans-2212" transform="translate(1448.218903 39.046875) scale(0.7)"/>
      <use xlink:href="#DejaVuSans-32" transform="translate(1506.871246 39.046875) scale(0.7)"/>
      <use xlink:href="#HelveticaNeue-Bold-20" transform="translate(1554.141754 0.765625)"/>
      <use xlink:href="#HelveticaNeue-Bold-73" transform="translate(1581.941742 0.765625)"/>
      <use xlink:href="#DejaVuSans-2212" transform="translate(1636.59877 39.046875) scale(0.7)"/>
      <use xlink:href="#DejaVuSans-31" transform="translate(1695.251114 39.046875) scale(0.7)"/>
      <use xlink:href="#HelveticaNeue-Bold-29" transform="translate(1742.521622 0.765625)"/>
     </g>
    </g>
   </g>
   <g id="matplotlib.axis_2">
    <g id="ytick_1">
     <g id="line2d_41">
      <defs>
       <path id="m27edccfaf0" d="M 0 0 
L 6 0 
" style="stroke: #000000; stroke-width: 1.5"/>
      </defs>
      <g>
       <use xlink:href="#m27edccfaf0" x="53.447656" y="481.429375" style="stroke: #000000; stroke-width: 1.5"/>
      </g>
     </g>
     <g id="line2d_42">
      <defs>
       <path id="m51554e575d" d="M 0 0 
L -6 0 
" style="stroke: #000000; stroke-width: 1.5"/>
      </defs>
      <g>
       <use xlink:href="#m51554e575d" x="499.847656" y="481.429375" style="stroke: #000000; stroke-width: 1.5"/>
      </g>
     </g>
     <g id="text_7">
      <!-- 0.0 -->
      <g transform="translate(29.1 486.784844) scale(0.15 -0.15)">
       <use xlink:href="#HelveticaNeue-Light-30"/>
       <use xlink:href="#HelveticaNeue-Light-2e" x="55.599991"/>
       <use xlink:href="#HelveticaNeue-Light-30" x="83.399979"/>
      </g>
     </g>
    </g>
    <g id="ytick_2">
     <g id="line2d_43">
      <g>
       <use xlink:href="#m27edccfaf0" x="53.447656" y="422.984258" style="stroke: #000000; stroke-width: 1.5"/>
      </g>
     </g>
     <g id="line2d_44">
      <g>
       <use xlink:href="#m51554e575d" x="499.847656" y="422.984258" style="stroke: #000000; stroke-width: 1.5"/>
      </g>
     </g>
     <g id="text_8">
      <!-- 0.5 -->
      <g transform="translate(29.1 428.339726) scale(0.15 -0.15)">
       <use xlink:href="#HelveticaNeue-Light-30"/>
       <use xlink:href="#HelveticaNeue-Light-2e" x="55.599991"/>
       <use xlink:href="#HelveticaNeue-Light-35" x="83.399979"/>
      </g>
     </g>
    </g>
    <g id="ytick_3">
     <g id="line2d_45">
      <g>
       <use xlink:href="#m27edccfaf0" x="53.447656" y="364.53914" style="stroke: #000000; stroke-width: 1.5"/>
      </g>
     </g>
     <g id="line2d_46">
      <g>
       <use xlink:href="#m51554e575d" x="499.847656" y="364.53914" style="stroke: #000000; stroke-width: 1.5"/>
      </g>
     </g>
     <g id="text_9">
      <!-- 1.0 -->
      <g transform="translate(29.1 369.894609) scale(0.15 -0.15)">
       <defs>
        <path id="HelveticaNeue-Light-31" d="M 621 3616 
L 621 3328 
L 1805 3328 
L 1805 0 
L 2208 0 
L 2208 4480 
L 1882 4480 
Q 1837 4173 1731 4003 
Q 1626 3834 1469 3750 
Q 1312 3667 1097 3644 
Q 883 3622 621 3616 
z
" transform="scale(0.015625)"/>
       </defs>
       <use xlink:href="#HelveticaNeue-Light-31"/>
       <use xlink:href="#HelveticaNeue-Light-2e" x="55.599991"/>
       <use xlink:href="#HelveticaNeue-Light-30" x="83.399979"/>
      </g>
     </g>
    </g>
    <g id="ytick_4">
     <g id="line2d_47">
      <g>
       <use xlink:href="#m27edccfaf0" x="53.447656" y="306.094023" style="stroke: #000000; stroke-width: 1.5"/>
      </g>
     </g>
     <g id="line2d_48">
      <g>
       <use xlink:href="#m51554e575d" x="499.847656" y="306.094023" style="stroke: #000000; stroke-width: 1.5"/>
      </g>
     </g>
     <g id="text_10">
      <!-- 1.5 -->
      <g transform="translate(29.1 311.449491) scale(0.15 -0.15)">
       <use xlink:href="#HelveticaNeue-Light-31"/>
       <use xlink:href="#HelveticaNeue-Light-2e" x="55.599991"/>
       <use xlink:href="#HelveticaNeue-Light-35" x="83.399979"/>
      </g>
     </g>
    </g>
    <g id="ytick_5">
     <g id="line2d_49">
      <g>
       <use xlink:href="#m27edccfaf0" x="53.447656" y="247.648905" style="stroke: #000000; stroke-width: 1.5"/>
      </g>
     </g>
     <g id="line2d_50">
      <g>
       <use xlink:href="#m51554e575d" x="499.847656" y="247.648905" style="stroke: #000000; stroke-width: 1.5"/>
      </g>
     </g>
     <g id="text_11">
      <!-- 2.0 -->
      <g transform="translate(29.1 253.004374) scale(0.15 -0.15)">
       <use xlink:href="#HelveticaNeue-Light-32"/>
       <use xlink:href="#HelveticaNeue-Light-2e" x="55.599991"/>
       <use xlink:href="#HelveticaNeue-Light-30" x="83.399979"/>
      </g>
     </g>
    </g>
    <g id="ytick_6">
     <g id="line2d_51">
      <g>
       <use xlink:href="#m27edccfaf0" x="53.447656" y="189.203788" style="stroke: #000000; stroke-width: 1.5"/>
      </g>
     </g>
     <g id="line2d_52">
      <g>
       <use xlink:href="#m51554e575d" x="499.847656" y="189.203788" style="stroke: #000000; stroke-width: 1.5"/>
      </g>
     </g>
     <g id="text_12">
      <!-- 2.5 -->
      <g transform="translate(29.1 194.559256) scale(0.15 -0.15)">
       <use xlink:href="#HelveticaNeue-Light-32"/>
       <use xlink:href="#HelveticaNeue-Light-2e" x="55.599991"/>
       <use xlink:href="#HelveticaNeue-Light-35" x="83.399979"/>
      </g>
     </g>
    </g>
    <g id="ytick_7">
     <g id="line2d_53">
      <g>
       <use xlink:href="#m27edccfaf0" x="53.447656" y="130.75867" style="stroke: #000000; stroke-width: 1.5"/>
      </g>
     </g>
     <g id="line2d_54">
      <g>
       <use xlink:href="#m51554e575d" x="499.847656" y="130.75867" style="stroke: #000000; stroke-width: 1.5"/>
      </g>
     </g>
     <g id="text_13">
      <!-- 3.0 -->
      <g transform="translate(29.1 136.114139) scale(0.15 -0.15)">
       <defs>
        <path id="HelveticaNeue-Light-33" d="M 614 1427 
L 211 1427 
Q 186 1062 291 780 
Q 397 499 605 307 
Q 813 115 1104 12 
Q 1395 -90 1741 -90 
Q 2048 -90 2329 -3 
Q 2611 83 2822 256 
Q 3034 429 3158 681 
Q 3283 934 3283 1267 
Q 3283 1709 3043 2006 
Q 2803 2304 2362 2374 
L 2362 2387 
Q 2726 2477 2921 2745 
Q 3117 3014 3117 3379 
Q 3117 3680 2998 3894 
Q 2880 4109 2685 4246 
Q 2490 4384 2240 4451 
Q 1990 4518 1728 4518 
Q 1402 4518 1139 4406 
Q 877 4294 694 4099 
Q 512 3904 413 3635 
Q 314 3366 314 3046 
L 717 3046 
Q 710 3296 774 3504 
Q 838 3712 969 3862 
Q 1101 4013 1293 4096 
Q 1485 4179 1734 4179 
Q 1939 4179 2115 4131 
Q 2291 4083 2425 3977 
Q 2560 3872 2637 3715 
Q 2714 3558 2714 3334 
Q 2714 3123 2630 2969 
Q 2547 2816 2416 2717 
Q 2285 2618 2121 2570 
Q 1958 2522 1805 2522 
L 1466 2522 
L 1466 2182 
L 1805 2182 
Q 2029 2182 2224 2124 
Q 2419 2067 2566 1948 
Q 2714 1830 2797 1654 
Q 2880 1478 2880 1235 
Q 2880 998 2784 812 
Q 2688 627 2528 499 
Q 2368 371 2163 307 
Q 1958 243 1734 243 
Q 1466 243 1251 329 
Q 1037 416 893 569 
Q 749 723 675 940 
Q 602 1158 614 1427 
z
" transform="scale(0.015625)"/>
       </defs>
       <use xlink:href="#HelveticaNeue-Light-33"/>
       <use xlink:href="#HelveticaNeue-Light-2e" x="55.599991"/>
       <use xlink:href="#HelveticaNeue-Light-30" x="83.399979"/>
      </g>
     </g>
    </g>
    <g id="ytick_8">
     <g id="line2d_55">
      <g>
       <use xlink:href="#m27edccfaf0" x="53.447656" y="72.313553" style="stroke: #000000; stroke-width: 1.5"/>
      </g>
     </g>
     <g id="line2d_56">
      <g>
       <use xlink:href="#m51554e575d" x="499.847656" y="72.313553" style="stroke: #000000; stroke-width: 1.5"/>
      </g>
     </g>
     <g id="text_14">
      <!-- 3.5 -->
      <g transform="translate(29.1 77.669021) scale(0.15 -0.15)">
       <use xlink:href="#HelveticaNeue-Light-33"/>
       <use xlink:href="#HelveticaNeue-Light-2e" x="55.599991"/>
       <use xlink:href="#HelveticaNeue-Light-35" x="83.399979"/>
      </g>
     </g>
    </g>
    <g id="ytick_9">
     <g id="line2d_57">
      <defs>
       <path id="m154eeaea4a" d="M 0 0 
L 3 0 
" style="stroke: #000000; stroke-width: 1.2"/>
      </defs>
      <g>
       <use xlink:href="#m154eeaea4a" x="53.447656" y="469.740352" style="stroke: #000000; stroke-width: 1.2"/>
      </g>
     </g>
     <g id="line2d_58">
      <defs>
       <path id="mf590c9b002" d="M 0 0 
L -3 0 
" style="stroke: #000000; stroke-width: 1.2"/>
      </defs>
      <g>
       <use xlink:href="#mf590c9b002" x="499.847656" y="469.740352" style="stroke: #000000; stroke-width: 1.2"/>
      </g>
     </g>
    </g>
    <g id="ytick_10">
     <g id="line2d_59">
      <g>
       <use xlink:href="#m154eeaea4a" x="53.447656" y="458.051328" style="stroke: #000000; stroke-width: 1.2"/>
      </g>
     </g>
     <g id="line2d_60">
      <g>
       <use xlink:href="#mf590c9b002" x="499.847656" y="458.051328" style="stroke: #000000; stroke-width: 1.2"/>
      </g>
     </g>
    </g>
    <g id="ytick_11">
     <g id="line2d_61">
      <g>
       <use xlink:href="#m154eeaea4a" x="53.447656" y="446.362305" style="stroke: #000000; stroke-width: 1.2"/>
      </g>
     </g>
     <g id="line2d_62">
      <g>
       <use xlink:href="#mf590c9b002" x="499.847656" y="446.362305" style="stroke: #000000; stroke-width: 1.2"/>
      </g>
     </g>
    </g>
    <g id="ytick_12">
     <g id="line2d_63">
      <g>
       <use xlink:href="#m154eeaea4a" x="53.447656" y="434.673281" style="stroke: #000000; stroke-width: 1.2"/>
      </g>
     </g>
     <g id="line2d_64">
      <g>
       <use xlink:href="#mf590c9b002" x="499.847656" y="434.673281" style="stroke: #000000; stroke-width: 1.2"/>
      </g>
     </g>
    </g>
    <g id="ytick_13">
     <g id="line2d_65">
      <g>
       <use xlink:href="#m154eeaea4a" x="53.447656" y="411.295234" style="stroke: #000000; stroke-width: 1.2"/>
      </g>
     </g>
     <g id="line2d_66">
      <g>
       <use xlink:href="#mf590c9b002" x="499.847656" y="411.295234" style="stroke: #000000; stroke-width: 1.2"/>
      </g>
     </g>
    </g>
    <g id="ytick_14">
     <g id="line2d_67">
      <g>
       <use xlink:href="#m154eeaea4a" x="53.447656" y="399.606211" style="stroke: #000000; stroke-width: 1.2"/>
      </g>
     </g>
     <g id="line2d_68">
      <g>
       <use xlink:href="#mf590c9b002" x="499.847656" y="399.606211" style="stroke: #000000; stroke-width: 1.2"/>
      </g>
     </g>
    </g>
    <g id="ytick_15">
     <g id="line2d_69">
      <g>
       <use xlink:href="#m154eeaea4a" x="53.447656" y="387.917187" style="stroke: #000000; stroke-width: 1.2"/>
      </g>
     </g>
     <g id="line2d_70">
      <g>
       <use xlink:href="#mf590c9b002" x="499.847656" y="387.917187" style="stroke: #000000; stroke-width: 1.2"/>
      </g>
     </g>
    </g>
    <g id="ytick_16">
     <g id="line2d_71">
      <g>
       <use xlink:href="#m154eeaea4a" x="53.447656" y="376.228164" style="stroke: #000000; stroke-width: 1.2"/>
      </g>
     </g>
     <g id="line2d_72">
      <g>
       <use xlink:href="#mf590c9b002" x="499.847656" y="376.228164" style="stroke: #000000; stroke-width: 1.2"/>
      </g>
     </g>
    </g>
    <g id="ytick_17">
     <g id="line2d_73">
      <g>
       <use xlink:href="#m154eeaea4a" x="53.447656" y="352.850117" style="stroke: #000000; stroke-width: 1.2"/>
      </g>
     </g>
     <g id="line2d_74">
      <g>
       <use xlink:href="#mf590c9b002" x="499.847656" y="352.850117" style="stroke: #000000; stroke-width: 1.2"/>
      </g>
     </g>
    </g>
    <g id="ytick_18">
     <g id="line2d_75">
      <g>
       <use xlink:href="#m154eeaea4a" x="53.447656" y="341.161093" style="stroke: #000000; stroke-width: 1.2"/>
      </g>
     </g>
     <g id="line2d_76">
      <g>
       <use xlink:href="#mf590c9b002" x="499.847656" y="341.161093" style="stroke: #000000; stroke-width: 1.2"/>
      </g>
     </g>
    </g>
    <g id="ytick_19">
     <g id="line2d_77">
      <g>
       <use xlink:href="#m154eeaea4a" x="53.447656" y="329.47207" style="stroke: #000000; stroke-width: 1.2"/>
      </g>
     </g>
     <g id="line2d_78">
      <g>
       <use xlink:href="#mf590c9b002" x="499.847656" y="329.47207" style="stroke: #000000; stroke-width: 1.2"/>
      </g>
     </g>
    </g>
    <g id="ytick_20">
     <g id="line2d_79">
      <g>
       <use xlink:href="#m154eeaea4a" x="53.447656" y="317.783046" style="stroke: #000000; stroke-width: 1.2"/>
      </g>
     </g>
     <g id="line2d_80">
      <g>
       <use xlink:href="#mf590c9b002" x="499.847656" y="317.783046" style="stroke: #000000; stroke-width: 1.2"/>
      </g>
     </g>
    </g>
    <g id="ytick_21">
     <g id="line2d_81">
      <g>
       <use xlink:href="#m154eeaea4a" x="53.447656" y="294.404999" style="stroke: #000000; stroke-width: 1.2"/>
      </g>
     </g>
     <g id="line2d_82">
      <g>
       <use xlink:href="#mf590c9b002" x="499.847656" y="294.404999" style="stroke: #000000; stroke-width: 1.2"/>
      </g>
     </g>
    </g>
    <g id="ytick_22">
     <g id="line2d_83">
      <g>
       <use xlink:href="#m154eeaea4a" x="53.447656" y="282.715976" style="stroke: #000000; stroke-width: 1.2"/>
      </g>
     </g>
     <g id="line2d_84">
      <g>
       <use xlink:href="#mf590c9b002" x="499.847656" y="282.715976" style="stroke: #000000; stroke-width: 1.2"/>
      </g>
     </g>
    </g>
    <g id="ytick_23">
     <g id="line2d_85">
      <g>
       <use xlink:href="#m154eeaea4a" x="53.447656" y="271.026952" style="stroke: #000000; stroke-width: 1.2"/>
      </g>
     </g>
     <g id="line2d_86">
      <g>
       <use xlink:href="#mf590c9b002" x="499.847656" y="271.026952" style="stroke: #000000; stroke-width: 1.2"/>
      </g>
     </g>
    </g>
    <g id="ytick_24">
     <g id="line2d_87">
      <g>
       <use xlink:href="#m154eeaea4a" x="53.447656" y="259.337929" style="stroke: #000000; stroke-width: 1.2"/>
      </g>
     </g>
     <g id="line2d_88">
      <g>
       <use xlink:href="#mf590c9b002" x="499.847656" y="259.337929" style="stroke: #000000; stroke-width: 1.2"/>
      </g>
     </g>
    </g>
    <g id="ytick_25">
     <g id="line2d_89">
      <g>
       <use xlink:href="#m154eeaea4a" x="53.447656" y="235.959882" style="stroke: #000000; stroke-width: 1.2"/>
      </g>
     </g>
     <g id="line2d_90">
      <g>
       <use xlink:href="#mf590c9b002" x="499.847656" y="235.959882" style="stroke: #000000; stroke-width: 1.2"/>
      </g>
     </g>
    </g>
    <g id="ytick_26">
     <g id="line2d_91">
      <g>
       <use xlink:href="#m154eeaea4a" x="53.447656" y="224.270858" style="stroke: #000000; stroke-width: 1.2"/>
      </g>
     </g>
     <g id="line2d_92">
      <g>
       <use xlink:href="#mf590c9b002" x="499.847656" y="224.270858" style="stroke: #000000; stroke-width: 1.2"/>
      </g>
     </g>
    </g>
    <g id="ytick_27">
     <g id="line2d_93">
      <g>
       <use xlink:href="#m154eeaea4a" x="53.447656" y="212.581835" style="stroke: #000000; stroke-width: 1.2"/>
      </g>
     </g>
     <g id="line2d_94">
      <g>
       <use xlink:href="#mf590c9b002" x="499.847656" y="212.581835" style="stroke: #000000; stroke-width: 1.2"/>
      </g>
     </g>
    </g>
    <g id="ytick_28">
     <g id="line2d_95">
      <g>
       <use xlink:href="#m154eeaea4a" x="53.447656" y="200.892811" style="stroke: #000000; stroke-width: 1.2"/>
      </g>
     </g>
     <g id="line2d_96">
      <g>
       <use xlink:href="#mf590c9b002" x="499.847656" y="200.892811" style="stroke: #000000; stroke-width: 1.2"/>
      </g>
     </g>
    </g>
    <g id="ytick_29">
     <g id="line2d_97">
      <g>
       <use xlink:href="#m154eeaea4a" x="53.447656" y="177.514764" style="stroke: #000000; stroke-width: 1.2"/>
      </g>
     </g>
     <g id="line2d_98">
      <g>
       <use xlink:href="#mf590c9b002" x="499.847656" y="177.514764" style="stroke: #000000; stroke-width: 1.2"/>
      </g>
     </g>
    </g>
    <g id="ytick_30">
     <g id="line2d_99">
      <g>
       <use xlink:href="#m154eeaea4a" x="53.447656" y="165.825741" style="stroke: #000000; stroke-width: 1.2"/>
      </g>
     </g>
     <g id="line2d_100">
      <g>
       <use xlink:href="#mf590c9b002" x="499.847656" y="165.825741" style="stroke: #000000; stroke-width: 1.2"/>
      </g>
     </g>
    </g>
    <g id="ytick_31">
     <g id="line2d_101">
      <g>
       <use xlink:href="#m154eeaea4a" x="53.447656" y="154.136717" style="stroke: #000000; stroke-width: 1.2"/>
      </g>
     </g>
     <g id="line2d_102">
      <g>
       <use xlink:href="#mf590c9b002" x="499.847656" y="154.136717" style="stroke: #000000; stroke-width: 1.2"/>
      </g>
     </g>
    </g>
    <g id="ytick_32">
     <g id="line2d_103">
      <g>
       <use xlink:href="#m154eeaea4a" x="53.447656" y="142.447694" style="stroke: #000000; stroke-width: 1.2"/>
      </g>
     </g>
     <g id="line2d_104">
      <g>
       <use xlink:href="#mf590c9b002" x="499.847656" y="142.447694" style="stroke: #000000; stroke-width: 1.2"/>
      </g>
     </g>
    </g>
    <g id="ytick_33">
     <g id="line2d_105">
      <g>
       <use xlink:href="#m154eeaea4a" x="53.447656" y="119.069647" style="stroke: #000000; stroke-width: 1.2"/>
      </g>
     </g>
     <g id="line2d_106">
      <g>
       <use xlink:href="#mf590c9b002" x="499.847656" y="119.069647" style="stroke: #000000; stroke-width: 1.2"/>
      </g>
     </g>
    </g>
    <g id="ytick_34">
     <g id="line2d_107">
      <g>
       <use xlink:href="#m154eeaea4a" x="53.447656" y="107.380623" style="stroke: #000000; stroke-width: 1.2"/>
      </g>
     </g>
     <g id="line2d_108">
      <g>
       <use xlink:href="#mf590c9b002" x="499.847656" y="107.380623" style="stroke: #000000; stroke-width: 1.2"/>
      </g>
     </g>
    </g>
    <g id="ytick_35">
     <g id="line2d_109">
      <g>
       <use xlink:href="#m154eeaea4a" x="53.447656" y="95.6916" style="stroke: #000000; stroke-width: 1.2"/>
      </g>
     </g>
     <g id="line2d_110">
      <g>
       <use xlink:href="#mf590c9b002" x="499.847656" y="95.6916" style="stroke: #000000; stroke-width: 1.2"/>
      </g>
     </g>
    </g>
    <g id="ytick_36">
     <g id="line2d_111">
      <g>
       <use xlink:href="#m154eeaea4a" x="53.447656" y="84.002576" style="stroke: #000000; stroke-width: 1.2"/>
      </g>
     </g>
     <g id="line2d_112">
      <g>
       <use xlink:href="#mf590c9b002" x="499.847656" y="84.002576" style="stroke: #000000; stroke-width: 1.2"/>
      </g>
     </g>
    </g>
    <g id="ytick_37">
     <g id="line2d_113">
      <g>
       <use xlink:href="#m154eeaea4a" x="53.447656" y="60.624529" style="stroke: #000000; stroke-width: 1.2"/>
      </g>
     </g>
     <g id="line2d_114">
      <g>
       <use xlink:href="#mf590c9b002" x="499.847656" y="60.624529" style="stroke: #000000; stroke-width: 1.2"/>
      </g>
     </g>
    </g>
    <g id="ytick_38">
     <g id="line2d_115">
      <g>
       <use xlink:href="#m154eeaea4a" x="53.447656" y="48.935506" style="stroke: #000000; stroke-width: 1.2"/>
      </g>
     </g>
     <g id="line2d_116">
      <g>
       <use xlink:href="#mf590c9b002" x="499.847656" y="48.935506" style="stroke: #000000; stroke-width: 1.2"/>
      </g>
     </g>
    </g>
    <g id="text_15">
     <!-- Probability Density -->
     <g transform="translate(21.48125 349.094375) rotate(-90) scale(0.2 -0.2)">
      <defs>
       <path id="HelveticaNeue-Bold-50" d="M 1446 2419 
L 1446 3789 
L 2227 3789 
Q 2400 3789 2560 3763 
Q 2720 3738 2841 3664 
Q 2963 3590 3036 3456 
Q 3110 3322 3110 3104 
Q 3110 2886 3036 2752 
Q 2963 2618 2841 2544 
Q 2720 2470 2560 2444 
Q 2400 2419 2227 2419 
L 1446 2419 
z
M 442 4570 
L 442 0 
L 1446 0 
L 1446 1638 
L 2502 1638 
Q 2931 1638 3232 1763 
Q 3533 1888 3721 2093 
Q 3910 2298 3996 2563 
Q 4083 2829 4083 3104 
Q 4083 3386 3996 3648 
Q 3910 3910 3721 4115 
Q 3533 4320 3232 4445 
Q 2931 4570 2502 4570 
L 442 4570 
z
" transform="scale(0.015625)"/>
       <path id="HelveticaNeue-Bold-6f" d="M 1152 1651 
Q 1152 1850 1190 2042 
Q 1229 2234 1321 2381 
Q 1414 2528 1568 2621 
Q 1722 2714 1952 2714 
Q 2182 2714 2339 2621 
Q 2496 2528 2589 2381 
Q 2682 2234 2720 2042 
Q 2758 1850 2758 1651 
Q 2758 1453 2720 1264 
Q 2682 1075 2589 924 
Q 2496 774 2339 684 
Q 2182 595 1952 595 
Q 1722 595 1568 684 
Q 1414 774 1321 924 
Q 1229 1075 1190 1264 
Q 1152 1453 1152 1651 
z
M 243 1651 
Q 243 1254 364 934 
Q 486 614 710 387 
Q 934 160 1248 38 
Q 1562 -83 1952 -83 
Q 2342 -83 2659 38 
Q 2976 160 3200 387 
Q 3424 614 3545 934 
Q 3667 1254 3667 1651 
Q 3667 2048 3545 2371 
Q 3424 2694 3200 2921 
Q 2976 3149 2659 3273 
Q 2342 3398 1952 3398 
Q 1562 3398 1248 3273 
Q 934 3149 710 2921 
Q 486 2694 364 2371 
Q 243 2048 243 1651 
z
" transform="scale(0.015625)"/>
       <path id="HelveticaNeue-Bold-62" d="M 2771 1651 
Q 2771 1446 2726 1254 
Q 2682 1062 2586 915 
Q 2490 768 2346 681 
Q 2202 595 1997 595 
Q 1798 595 1651 681 
Q 1504 768 1408 915 
Q 1312 1062 1267 1254 
Q 1222 1446 1222 1651 
Q 1222 1862 1267 2054 
Q 1312 2246 1408 2393 
Q 1504 2541 1651 2627 
Q 1798 2714 1997 2714 
Q 2202 2714 2346 2627 
Q 2490 2541 2586 2393 
Q 2682 2246 2726 2054 
Q 2771 1862 2771 1651 
z
M 346 4570 
L 346 0 
L 1210 0 
L 1210 422 
L 1222 422 
Q 1370 147 1658 32 
Q 1946 -83 2310 -83 
Q 2560 -83 2803 19 
Q 3046 122 3241 333 
Q 3437 544 3558 873 
Q 3680 1203 3680 1658 
Q 3680 2112 3558 2441 
Q 3437 2771 3241 2982 
Q 3046 3194 2803 3296 
Q 2560 3398 2310 3398 
Q 2003 3398 1718 3280 
Q 1434 3162 1267 2906 
L 1254 2906 
L 1254 4570 
L 346 4570 
z
" transform="scale(0.015625)"/>
       <path id="HelveticaNeue-Bold-61" d="M 307 2291 
L 1216 2291 
Q 1242 2560 1395 2675 
Q 1549 2790 1818 2790 
Q 1939 2790 2044 2774 
Q 2150 2758 2230 2710 
Q 2310 2662 2358 2576 
Q 2406 2490 2406 2342 
Q 2413 2202 2323 2128 
Q 2234 2054 2080 2016 
Q 1926 1978 1728 1958 
Q 1530 1939 1325 1907 
Q 1120 1875 918 1820 
Q 717 1766 560 1657 
Q 403 1549 304 1366 
Q 205 1184 205 902 
Q 205 646 291 460 
Q 378 275 531 153 
Q 685 32 889 -25 
Q 1094 -83 1331 -83 
Q 1638 -83 1932 6 
Q 2227 96 2445 320 
Q 2451 237 2467 157 
Q 2483 77 2509 0 
L 3430 0 
Q 3366 102 3340 307 
Q 3315 512 3315 736 
L 3315 2458 
Q 3315 2758 3180 2940 
Q 3046 3123 2835 3225 
Q 2624 3328 2368 3363 
Q 2112 3398 1862 3398 
Q 1587 3398 1315 3344 
Q 1043 3290 825 3162 
Q 608 3034 467 2822 
Q 326 2611 307 2291 
z
M 2406 1619 
L 2406 1280 
Q 2406 1203 2390 1075 
Q 2374 947 2304 822 
Q 2234 698 2086 608 
Q 1939 518 1670 518 
Q 1562 518 1459 537 
Q 1357 557 1280 605 
Q 1203 653 1158 736 
Q 1114 819 1114 941 
Q 1114 1069 1158 1152 
Q 1203 1235 1276 1289 
Q 1350 1344 1449 1376 
Q 1549 1408 1651 1427 
Q 1760 1446 1869 1459 
Q 1978 1472 2077 1491 
Q 2176 1510 2262 1539 
Q 2349 1568 2406 1619 
z
" transform="scale(0.015625)"/>
       <path id="HelveticaNeue-Bold-69" d="M 1280 3821 
L 1280 4570 
L 371 4570 
L 371 3821 
L 1280 3821 
z
M 371 3309 
L 371 0 
L 1280 0 
L 1280 3309 
L 371 3309 
z
" transform="scale(0.015625)"/>
       <path id="HelveticaNeue-Bold-74" d="M 1498 3309 
L 1498 4301 
L 589 4301 
L 589 3309 
L 38 3309 
L 38 2701 
L 589 2701 
L 589 749 
Q 589 499 672 345 
Q 755 192 899 109 
Q 1043 26 1232 -3 
Q 1421 -32 1632 -32 
Q 1766 -32 1907 -25 
Q 2048 -19 2163 0 
L 2163 704 
Q 2099 691 2028 684 
Q 1958 678 1882 678 
Q 1651 678 1574 755 
Q 1498 832 1498 1062 
L 1498 2701 
L 2163 2701 
L 2163 3309 
L 1498 3309 
z
" transform="scale(0.015625)"/>
       <path id="HelveticaNeue-Bold-79" d="M 1978 -410 
L 3360 3309 
L 2419 3309 
L 1696 1043 
L 1683 1043 
L 934 3309 
L -32 3309 
L 1126 205 
Q 1165 109 1165 0 
Q 1165 -147 1078 -268 
Q 992 -390 813 -410 
Q 678 -416 544 -403 
Q 410 -390 282 -378 
L 282 -1126 
Q 422 -1139 560 -1148 
Q 698 -1158 838 -1158 
Q 1306 -1158 1568 -985 
Q 1830 -813 1978 -410 
z
" transform="scale(0.015625)"/>
       <path id="HelveticaNeue-Bold-44" d="M 1446 845 
L 1446 3725 
L 2163 3725 
Q 2534 3725 2787 3619 
Q 3040 3514 3193 3315 
Q 3347 3117 3414 2838 
Q 3482 2560 3482 2214 
Q 3482 1837 3386 1574 
Q 3290 1312 3130 1149 
Q 2970 986 2765 915 
Q 2560 845 2342 845 
L 1446 845 
z
M 442 4570 
L 442 0 
L 2413 0 
Q 2938 0 3325 176 
Q 3712 352 3971 659 
Q 4230 966 4358 1388 
Q 4486 1811 4486 2310 
Q 4486 2880 4329 3302 
Q 4173 3725 3894 4006 
Q 3616 4288 3235 4429 
Q 2854 4570 2413 4570 
L 442 4570 
z
" transform="scale(0.015625)"/>
       <path id="HelveticaNeue-Bold-6e" d="M 346 3309 
L 346 0 
L 1254 0 
L 1254 1734 
Q 1254 2240 1420 2461 
Q 1587 2682 1958 2682 
Q 2285 2682 2413 2480 
Q 2541 2278 2541 1869 
L 2541 0 
L 3450 0 
L 3450 2035 
Q 3450 2342 3395 2595 
Q 3341 2848 3206 3024 
Q 3072 3200 2838 3299 
Q 2605 3398 2240 3398 
Q 1952 3398 1677 3267 
Q 1402 3136 1229 2848 
L 1210 2848 
L 1210 3309 
L 346 3309 
z
" transform="scale(0.015625)"/>
      </defs>
      <use xlink:href="#HelveticaNeue-Bold-50"/>
      <use xlink:href="#HelveticaNeue-Bold-72" x="66.699997"/>
      <use xlink:href="#HelveticaNeue-Bold-6f" x="103.849991"/>
      <use xlink:href="#HelveticaNeue-Bold-62" x="164.949982"/>
      <use xlink:href="#HelveticaNeue-Bold-61" x="226.049973"/>
      <use xlink:href="#HelveticaNeue-Bold-62" x="283.449966"/>
      <use xlink:href="#HelveticaNeue-Bold-69" x="344.549957"/>
      <use xlink:href="#HelveticaNeue-Bold-6c" x="370.349945"/>
      <use xlink:href="#HelveticaNeue-Bold-69" x="396.149933"/>
      <use xlink:href="#HelveticaNeue-Bold-74" x="421.949921"/>
      <use xlink:href="#HelveticaNeue-Bold-79" x="457.149918"/>
      <use xlink:href="#HelveticaNeue-Bold-20" x="509.049911"/>
      <use xlink:href="#HelveticaNeue-Bold-44" x="536.849899"/>
      <use xlink:href="#HelveticaNeue-Bold-65" x="610.94989"/>
      <use xlink:href="#HelveticaNeue-Bold-6e" x="668.349884"/>
      <use xlink:href="#HelveticaNeue-Bold-73" x="727.649872"/>
      <use xlink:href="#HelveticaNeue-Bold-69" x="781.349869"/>
      <use xlink:href="#HelveticaNeue-Bold-74" x="807.149857"/>
      <use xlink:href="#HelveticaNeue-Bold-79" x="842.349854"/>
     </g>
    </g>
   </g>
   <g id="patch_4">
    <path d="M 53.447656 481.429375 
L 53.447656 37.909375 
" style="fill: none; stroke: #000000; stroke-width: 0.8; stroke-linejoin: miter; stroke-linecap: square"/>
   </g>
   <g id="patch_5">
    <path d="M 499.847656 481.429375 
L 499.847656 37.909375 
" style="fill: none; stroke: #000000; stroke-width: 0.8; stroke-linejoin: miter; stroke-linecap: square"/>
   </g>
   <g id="patch_6">
    <path d="M 53.447656 481.429375 
L 499.847656 481.429375 
" style="fill: none; stroke: #000000; stroke-width: 0.8; stroke-linejoin: miter; stroke-linecap: square"/>
   </g>
   <g id="patch_7">
    <path d="M 53.447656 37.909375 
L 499.847656 37.909375 
" style="fill: none; stroke: #000000; stroke-width: 0.8; stroke-linejoin: miter; stroke-linecap: square"/>
   </g>
   <g id="text_16">
    <!--  Model: wabs*powerlaw -->
    <g transform="translate(53.447656 22.909375) scale(0.22 -0.22)">
     <defs>
      <path id="HelveticaNeue-Bold-4d" d="M 442 4570 
L 442 0 
L 1382 0 
L 1382 3206 
L 1395 3206 
L 2515 0 
L 3290 0 
L 4410 3238 
L 4422 3238 
L 4422 0 
L 5363 0 
L 5363 4570 
L 3949 4570 
L 2938 1427 
L 2925 1427 
L 1856 4570 
L 442 4570 
z
" transform="scale(0.015625)"/>
      <path id="HelveticaNeue-Bold-64" d="M 2694 1664 
Q 2694 1459 2656 1267 
Q 2618 1075 2528 924 
Q 2438 774 2288 684 
Q 2138 595 1914 595 
Q 1702 595 1552 688 
Q 1402 781 1302 931 
Q 1203 1082 1158 1274 
Q 1114 1466 1114 1658 
Q 1114 1862 1155 2051 
Q 1197 2240 1289 2387 
Q 1382 2534 1536 2624 
Q 1690 2714 1914 2714 
Q 2138 2714 2285 2624 
Q 2432 2534 2525 2390 
Q 2618 2246 2656 2057 
Q 2694 1869 2694 1664 
z
M 2707 422 
L 2707 0 
L 3571 0 
L 3571 4570 
L 2662 4570 
L 2662 2906 
L 2650 2906 
Q 2496 3149 2230 3273 
Q 1965 3398 1670 3398 
Q 1306 3398 1030 3254 
Q 755 3110 572 2873 
Q 390 2637 297 2326 
Q 205 2016 205 1683 
Q 205 1338 297 1018 
Q 390 698 572 451 
Q 755 205 1036 61 
Q 1318 -83 1690 -83 
Q 2016 -83 2275 35 
Q 2534 154 2694 422 
L 2707 422 
z
" transform="scale(0.015625)"/>
      <path id="HelveticaNeue-Bold-3a" d="M 1395 2266 
L 1395 3251 
L 390 3251 
L 390 2266 
L 1395 2266 
z
M 390 986 
L 390 0 
L 1395 0 
L 1395 986 
L 390 986 
z
" transform="scale(0.015625)"/>
      <path id="HelveticaNeue-Bold-77" d="M 4128 0 
L 5171 3309 
L 4237 3309 
L 3629 1069 
L 3616 1069 
L 3053 3309 
L 2170 3309 
L 1619 1062 
L 1606 1062 
L 998 3309 
L 38 3309 
L 1088 0 
L 2029 0 
L 2592 2221 
L 2605 2221 
L 3194 0 
L 4128 0 
z
" transform="scale(0.015625)"/>
      <path id="HelveticaNeue-Bold-2a" d="M 1549 3770 
L 1549 4570 
L 1037 4570 
L 1037 3770 
L 314 4051 
L 141 3558 
L 883 3309 
L 410 2682 
L 838 2368 
L 1286 3027 
L 1760 2368 
L 2182 2682 
L 1709 3309 
L 2464 3558 
L 2291 4051 
L 1549 3770 
z
" transform="scale(0.015625)"/>
      <path id="HelveticaNeue-Bold-70" d="M 2016 595 
Q 1798 595 1644 684 
Q 1491 774 1398 918 
Q 1306 1062 1264 1254 
Q 1222 1446 1222 1645 
Q 1222 1850 1260 2042 
Q 1299 2234 1392 2381 
Q 1485 2528 1635 2621 
Q 1786 2714 2010 2714 
Q 2227 2714 2377 2621 
Q 2528 2528 2624 2377 
Q 2720 2227 2761 2035 
Q 2803 1843 2803 1645 
Q 2803 1446 2764 1254 
Q 2726 1062 2633 918 
Q 2541 774 2390 684 
Q 2240 595 2016 595 
z
M 346 3309 
L 346 -1158 
L 1254 -1158 
L 1254 410 
L 1267 410 
Q 1434 166 1693 41 
Q 1952 -83 2259 -83 
Q 2624 -83 2896 57 
Q 3168 198 3350 435 
Q 3533 672 3622 979 
Q 3712 1286 3712 1619 
Q 3712 1971 3622 2294 
Q 3533 2618 3347 2861 
Q 3162 3104 2880 3251 
Q 2598 3398 2208 3398 
Q 1901 3398 1645 3276 
Q 1389 3155 1222 2886 
L 1210 2886 
L 1210 3309 
L 346 3309 
z
" transform="scale(0.015625)"/>
     </defs>
     <use xlink:href="#HelveticaNeue-Bold-20"/>
     <use xlink:href="#HelveticaNeue-Bold-4d" x="27.799988"/>
     <use xlink:href="#HelveticaNeue-Bold-6f" x="118.499969"/>
     <use xlink:href="#HelveticaNeue-Bold-64" x="179.59996"/>
     <use xlink:href="#HelveticaNeue-Bold-65" x="240.699951"/>
     <use xlink:href="#HelveticaNeue-Bold-6c" x="298.099945"/>
     <use xlink:href="#HelveticaNeue-Bold-3a" x="323.899933"/>
     <use xlink:href="#HelveticaNeue-Bold-20" x="351.699921"/>
     <use xlink:href="#HelveticaNeue-Bold-77" x="379.499908"/>
     <use xlink:href="#HelveticaNeue-Bold-61" x="460.899902"/>
     <use xlink:href="#HelveticaNeue-Bold-62" x="518.299896"/>
     <use xlink:href="#HelveticaNeue-Bold-73" x="579.399887"/>
     <use xlink:href="#HelveticaNeue-Bold-2a" x="633.099884"/>
     <use xlink:href="#HelveticaNeue-Bold-70" x="673.799881"/>
     <use xlink:href="#HelveticaNeue-Bold-6f" x="734.899872"/>
     <use xlink:href="#HelveticaNeue-Bold-77" x="795.999863"/>
     <use xlink:href="#HelveticaNeue-Bold-65" x="877.399857"/>
     <use xlink:href="#HelveticaNeue-Bold-72" x="934.79985"/>
     <use xlink:href="#HelveticaNeue-Bold-6c" x="973.699844"/>
     <use xlink:href="#HelveticaNeue-Bold-61" x="999.499832"/>
     <use xlink:href="#HelveticaNeue-Bold-77" x="1056.899826"/>
    </g>
   </g>
   <g id="LineCollection_1">
    <path d="M 284.708159 481.429375 
L 284.708159 -1 
" clip-path="url(#pe3782801b4)" style="fill: none; stroke: #000000; stroke-width: 3"/>
   </g>
   <g id="LineCollection_2">
    <path d="M 233.744759 481.429375 
L 233.744759 -1 
" clip-path="url(#pe3782801b4)" style="fill: none; stroke-dasharray: 11.1,4.8; stroke-dashoffset: 0; stroke: #000000; stroke-width: 3"/>
   </g>
   <g id="LineCollection_3">
    <path d="M 340.4754 481.429375 
L 340.4754 -1 
" clip-path="url(#pe3782801b4)" style="fill: none; stroke-dasharray: 11.1,4.8; stroke-dashoffset: 0; stroke: #000000; stroke-width: 3"/>
   </g>
   <g id="legend_1">
    <g id="patch_8">
     <path d="M 378.620469 102.855625 
L 487.247656 102.855625 
Q 490.847656 102.855625 490.847656 99.255625 
L 490.847656 50.509375 
Q 490.847656 46.909375 487.247656 46.909375 
L 378.620469 46.909375 
Q 375.020469 46.909375 375.020469 50.509375 
L 375.020469 99.255625 
Q 375.020469 102.855625 378.620469 102.855625 
z
" style="fill: #ffffff; opacity: 0.9; stroke: #cccccc; stroke-linejoin: miter"/>
    </g>
    <g id="line2d_117">
     <path d="M 387.620469 60.6625 
L 400.220469 60.6625 
L 412.820469 60.6625 
" style="fill: none; stroke: #000000; stroke-width: 3"/>
    </g>
    <g id="text_17">
     <!-- Mean -->
     <g transform="translate(432.620469 66.9625) scale(0.18 -0.18)">
      <defs>
       <path id="HelveticaNeue-Light-4d" d="M 448 4570 
L 448 0 
L 883 0 
L 883 3949 
L 896 3949 
L 2464 0 
L 2874 0 
L 4435 3949 
L 4448 3949 
L 4448 0 
L 4883 0 
L 4883 4570 
L 4243 4570 
L 2669 563 
L 1088 4570 
L 448 4570 
z
" transform="scale(0.015625)"/>
       <path id="HelveticaNeue-Light-65" d="M 2758 1882 
L 621 1882 
Q 646 2106 726 2320 
Q 806 2534 940 2697 
Q 1075 2861 1267 2960 
Q 1459 3059 1709 3059 
Q 1952 3059 2144 2960 
Q 2336 2861 2470 2697 
Q 2605 2534 2678 2323 
Q 2752 2112 2758 1882 
z
M 621 1542 
L 3162 1542 
Q 3174 1888 3097 2224 
Q 3021 2560 2845 2819 
Q 2669 3078 2387 3238 
Q 2106 3398 1709 3398 
Q 1318 3398 1033 3248 
Q 749 3098 569 2851 
Q 390 2605 304 2291 
Q 218 1978 218 1651 
Q 218 1299 304 982 
Q 390 666 569 426 
Q 749 186 1033 48 
Q 1318 -90 1709 -90 
Q 2336 -90 2678 217 
Q 3021 525 3149 1088 
L 2746 1088 
Q 2650 704 2400 473 
Q 2150 243 1709 243 
Q 1421 243 1216 364 
Q 1011 486 876 672 
Q 742 858 681 1091 
Q 621 1325 621 1542 
z
" transform="scale(0.015625)"/>
       <path id="HelveticaNeue-Light-61" d="M 346 2291 
L 749 2291 
Q 762 2694 1005 2876 
Q 1248 3059 1632 3059 
Q 1811 3059 1968 3030 
Q 2125 3002 2243 2925 
Q 2362 2848 2429 2717 
Q 2496 2586 2496 2381 
Q 2496 2246 2461 2163 
Q 2426 2080 2362 2032 
Q 2298 1984 2202 1965 
Q 2106 1946 1978 1933 
Q 1651 1894 1334 1852 
Q 1018 1811 765 1708 
Q 512 1606 358 1411 
Q 205 1216 205 870 
Q 205 621 291 438 
Q 378 256 528 137 
Q 678 19 880 -35 
Q 1082 -90 1312 -90 
Q 1555 -90 1731 -45 
Q 1907 0 2044 83 
Q 2182 166 2294 291 
Q 2406 416 2515 576 
L 2528 576 
Q 2528 448 2544 342 
Q 2560 237 2611 160 
Q 2662 83 2755 41 
Q 2848 0 3002 0 
Q 3085 0 3139 6 
Q 3194 13 3264 26 
L 3264 365 
Q 3206 339 3136 339 
Q 2899 339 2899 582 
L 2899 2336 
Q 2899 2669 2790 2877 
Q 2682 3085 2509 3200 
Q 2336 3315 2118 3356 
Q 1901 3398 1683 3398 
Q 1395 3398 1158 3334 
Q 922 3270 746 3136 
Q 570 3002 467 2790 
Q 365 2579 346 2291 
z
M 2496 1805 
L 2496 1280 
Q 2496 1037 2403 845 
Q 2310 653 2153 518 
Q 1997 384 1785 313 
Q 1574 243 1344 243 
Q 1203 243 1068 288 
Q 934 333 832 419 
Q 730 506 669 624 
Q 608 742 608 896 
Q 608 1139 752 1270 
Q 896 1402 1120 1472 
Q 1344 1542 1616 1577 
Q 1888 1613 2144 1658 
Q 2227 1670 2336 1702 
Q 2445 1734 2483 1805 
L 2496 1805 
z
" transform="scale(0.015625)"/>
       <path id="HelveticaNeue-Light-6e" d="M 378 3302 
L 378 0 
L 781 0 
L 781 1926 
Q 787 2170 860 2378 
Q 934 2586 1065 2736 
Q 1197 2886 1385 2972 
Q 1574 3059 1818 3059 
Q 2061 3059 2224 2982 
Q 2387 2906 2483 2771 
Q 2579 2637 2617 2454 
Q 2656 2272 2656 2061 
L 2656 0 
L 3059 0 
L 3059 2125 
Q 3059 2419 3001 2656 
Q 2944 2893 2803 3056 
Q 2662 3219 2428 3308 
Q 2195 3398 1850 3398 
Q 1498 3398 1203 3216 
Q 909 3034 794 2733 
L 781 2733 
L 781 3302 
L 378 3302 
z
" transform="scale(0.015625)"/>
      </defs>
      <use xlink:href="#HelveticaNeue-Light-4d"/>
      <use xlink:href="#HelveticaNeue-Light-65" x="83.299988"/>
      <use xlink:href="#HelveticaNeue-Light-61" x="135.199982"/>
      <use xlink:href="#HelveticaNeue-Light-6e" x="187.099976"/>
     </g>
    </g>
    <g id="line2d_118">
     <path d="M 387.620469 85.935625 
L 400.220469 85.935625 
L 412.820469 85.935625 
" style="fill: none; stroke-dasharray: 11.1,4.8; stroke-dashoffset: 0; stroke: #000000; stroke-width: 3"/>
    </g>
    <g id="text_18">
     <!-- 68.2% -->
     <g transform="translate(432.620469 92.235625) scale(0.18 -0.18)">
      <defs>
       <path id="HelveticaNeue-Light-25" d="M 1459 4518 
Q 1190 4518 995 4425 
Q 800 4333 678 4169 
Q 557 4006 499 3785 
Q 442 3565 442 3309 
Q 442 3053 499 2832 
Q 557 2611 678 2448 
Q 800 2285 995 2192 
Q 1190 2099 1459 2099 
Q 1728 2099 1923 2192 
Q 2118 2285 2240 2448 
Q 2362 2611 2419 2832 
Q 2477 3053 2477 3309 
Q 2477 3565 2419 3785 
Q 2362 4006 2240 4169 
Q 2118 4333 1923 4425 
Q 1728 4518 1459 4518 
z
M 4269 2035 
Q 4467 2035 4598 1948 
Q 4730 1862 4806 1724 
Q 4883 1587 4915 1424 
Q 4947 1261 4947 1107 
Q 4947 954 4915 794 
Q 4883 634 4806 499 
Q 4730 365 4598 278 
Q 4467 192 4269 192 
Q 4064 192 3933 278 
Q 3802 365 3725 499 
Q 3648 634 3619 794 
Q 3590 954 3590 1107 
Q 3590 1261 3619 1424 
Q 3648 1587 3725 1724 
Q 3802 1862 3933 1948 
Q 4064 2035 4269 2035 
z
M 4269 2323 
Q 4000 2323 3805 2230 
Q 3610 2138 3488 1974 
Q 3366 1811 3308 1590 
Q 3251 1370 3251 1114 
Q 3251 858 3308 637 
Q 3366 416 3488 253 
Q 3610 90 3805 0 
Q 4000 -90 4269 -90 
Q 4538 -90 4733 0 
Q 4928 90 5049 253 
Q 5171 416 5228 637 
Q 5286 858 5286 1114 
Q 5286 1370 5228 1590 
Q 5171 1811 5049 1974 
Q 4928 2138 4733 2230 
Q 4538 2323 4269 2323 
z
M 4115 4640 
L 1216 -211 
L 1523 -211 
L 4416 4640 
L 4115 4640 
z
M 1459 4230 
Q 1658 4230 1789 4144 
Q 1920 4058 1997 3920 
Q 2074 3782 2106 3619 
Q 2138 3456 2138 3302 
Q 2138 3149 2106 2989 
Q 2074 2829 1997 2694 
Q 1920 2560 1789 2473 
Q 1658 2387 1459 2387 
Q 1254 2387 1123 2473 
Q 992 2560 915 2694 
Q 838 2829 809 2989 
Q 781 3149 781 3302 
Q 781 3456 809 3619 
Q 838 3782 915 3920 
Q 992 4058 1123 4144 
Q 1254 4230 1459 4230 
z
" transform="scale(0.015625)"/>
      </defs>
      <use xlink:href="#HelveticaNeue-Light-36"/>
      <use xlink:href="#HelveticaNeue-Light-38" x="55.599991"/>
      <use xlink:href="#HelveticaNeue-Light-2e" x="111.199982"/>
      <use xlink:href="#HelveticaNeue-Light-32" x="138.999969"/>
      <use xlink:href="#HelveticaNeue-Light-25" x="194.59996"/>
     </g>
    </g>
   </g>
  </g>
 </g>
 <defs>
  <clipPath id="pe3782801b4">
   <rect x="53.447656" y="37.909375" width="446.4" height="443.52"/>
  </clipPath>
 </defs>
</svg>
