<?xml version="1.0" encoding="utf-8" standalone="no"?>
<!DOCTYPE svg PUBLIC "-//W3C//DTD SVG 1.1//EN"
  "http://www.w3.org/Graphics/SVG/1.1/DTD/svg11.dtd">
<svg xmlns:xlink="http://www.w3.org/1999/xlink" width="523.725781pt" height="527.927812pt" viewBox="0 0 523.725781 527.927812" xmlns="http://www.w3.org/2000/svg" version="1.1">
 <metadata>
  <rdf:RDF xmlns:dc="http://purl.org/dc/elements/1.1/" xmlns:cc="http://creativecommons.org/ns#" xmlns:rdf="http://www.w3.org/1999/02/22-rdf-syntax-ns#">
   <cc:Work>
    <dc:type rdf:resource="http://purl.org/dc/dcmitype/StillImage"/>
    <dc:date>2025-07-04T08:46:28.827381</dc:date>
    <dc:format>image/svg+xml</dc:format>
    <dc:creator>
     <cc:Agent>
      <dc:title>Matplotlib v3.8.4, https://matplotlib.org/</dc:title>
     </cc:Agent>
    </dc:creator>
   </cc:Work>
  </rdf:RDF>
 </metadata>
 <defs>
  <style type="text/css">*{stroke-linejoin: round; stroke-linecap: butt}</style>
 </defs>
 <g id="figure_1">
  <g id="patch_1">
   <path d="M 0 527.927812 
L 523.725781 527.927812 
L 523.725781 0 
L 0 0 
z
" style="fill: #ffffff"/>
  </g>
  <g id="axes_1">
   <g id="patch_2">
    <path d="M 70.125781 481.429375 
L 516.525781 481.429375 
L 516.525781 37.909375 
L 70.125781 37.909375 
z
" style="fill: #ffffff"/>
   </g>
   <g id="patch_3">
    <path d="M 90.41669 481.429375 
L 90.41669 472.656789 
L 110.707599 472.656789 
L 110.707599 462.630977 
L 130.998509 462.630977 
L 130.998509 435.059994 
L 151.289418 435.059994 
L 151.289418 399.969651 
L 171.580327 399.969651 
L 171.580327 357.359949 
L 191.871236 357.359949 
L 191.871236 284.672811 
L 212.162145 284.672811 
L 212.162145 179.401783 
L 232.453054 179.401783 
L 232.453054 149.324346 
L 252.743963 149.324346 
L 252.743963 79.143661 
L 273.034872 79.143661 
L 273.034872 86.66302 
L 293.325781 86.66302 
L 293.325781 170.629197 
L 313.61669 170.629197 
L 313.61669 193.187274 
L 333.907599 193.187274 
L 333.907599 242.063109 
L 354.198509 242.063109 
L 354.198509 312.243794 
L 374.489418 312.243794 
L 374.489418 379.918027 
L 394.780327 379.918027 
L 394.780327 420.021275 
L 415.071236 420.021275 
L 415.071236 451.351938 
L 435.362145 451.351938 
L 435.362145 466.390657 
L 455.653054 466.390657 
L 455.653054 476.416469 
L 475.943963 476.416469 
L 475.943963 476.416469 
L 496.234872 476.416469 
L 496.234872 481.429375 
" clip-path="url(#pb40a8d3856)" style="fill: #0000ff; opacity: 0.3"/>
   </g>
   <g id="matplotlib.axis_1">
    <g id="xtick_1">
     <g id="line2d_1">
      <defs>
       <path id="md719673842" d="M 0 0 
L 0 -6 
" style="stroke: #000000; stroke-width: 1.5"/>
      </defs>
      <g>
       <use xlink:href="#md719673842" x="117.235488" y="481.429375" style="stroke: #000000; stroke-width: 1.5"/>
      </g>
     </g>
     <g id="line2d_2">
      <defs>
       <path id="m2efe12a73b" d="M 0 0 
L 0 6 
" style="stroke: #000000; stroke-width: 1.5"/>
      </defs>
      <g>
       <use xlink:href="#m2efe12a73b" x="117.235488" y="37.909375" style="stroke: #000000; stroke-width: 1.5"/>
      </g>
     </g>
     <g id="text_1">
      <!-- 400 -->
      <g transform="translate(104.726894 495.640312) scale(0.15 -0.15)">
       <defs>
        <path id="HelveticaNeue-Light-34" d="M 2259 1453 
L 557 1453 
L 2246 3891 
L 2259 3891 
L 2259 1453 
z
M 192 1504 
L 192 1114 
L 2259 1114 
L 2259 0 
L 2630 0 
L 2630 1114 
L 3302 1114 
L 3302 1453 
L 2630 1453 
L 2630 4480 
L 2266 4480 
L 192 1504 
z
" transform="scale(0.015625)"/>
        <path id="HelveticaNeue-Light-30" d="M 1779 4518 
Q 1293 4518 985 4304 
Q 678 4090 508 3757 
Q 339 3424 278 3014 
Q 218 2605 218 2208 
Q 218 1818 278 1408 
Q 339 998 508 665 
Q 678 333 985 121 
Q 1293 -90 1779 -90 
Q 2272 -90 2576 121 
Q 2880 333 3049 665 
Q 3219 998 3280 1408 
Q 3341 1818 3341 2214 
Q 3341 2605 3280 3014 
Q 3219 3424 3049 3757 
Q 2880 4090 2576 4304 
Q 2272 4518 1779 4518 
z
M 1779 4179 
Q 2163 4179 2393 3980 
Q 2624 3782 2742 3488 
Q 2861 3194 2899 2848 
Q 2938 2502 2938 2214 
Q 2938 1920 2899 1577 
Q 2861 1235 2742 937 
Q 2624 640 2393 441 
Q 2163 243 1779 243 
Q 1395 243 1164 441 
Q 934 640 816 937 
Q 698 1235 659 1577 
Q 621 1920 621 2214 
Q 621 2502 659 2848 
Q 698 3194 816 3488 
Q 934 3782 1164 3980 
Q 1395 4179 1779 4179 
z
" transform="scale(0.015625)"/>
       </defs>
       <use xlink:href="#HelveticaNeue-Light-34"/>
       <use xlink:href="#HelveticaNeue-Light-30" x="55.599991"/>
       <use xlink:href="#HelveticaNeue-Light-30" x="111.199982"/>
      </g>
     </g>
    </g>
    <g id="xtick_2">
     <g id="line2d_3">
      <g>
       <use xlink:href="#md719673842" x="185.88154" y="481.429375" style="stroke: #000000; stroke-width: 1.5"/>
      </g>
     </g>
     <g id="line2d_4">
      <g>
       <use xlink:href="#m2efe12a73b" x="185.88154" y="37.909375" style="stroke: #000000; stroke-width: 1.5"/>
      </g>
     </g>
     <g id="text_2">
      <!-- 420 -->
      <g transform="translate(173.372946 495.640312) scale(0.15 -0.15)">
       <defs>
        <path id="HelveticaNeue-Light-32" d="M 3181 0 
L 3181 371 
L 691 371 
Q 730 595 883 784 
Q 1037 973 1238 1133 
Q 1440 1293 1657 1424 
Q 1875 1555 2035 1664 
Q 2259 1805 2460 1968 
Q 2662 2131 2819 2323 
Q 2976 2515 3069 2745 
Q 3162 2976 3162 3258 
Q 3162 3571 3056 3808 
Q 2950 4045 2761 4201 
Q 2573 4358 2320 4438 
Q 2067 4518 1773 4518 
Q 1408 4518 1136 4400 
Q 864 4282 685 4070 
Q 506 3859 419 3568 
Q 333 3277 339 2931 
L 742 2931 
Q 736 3181 790 3405 
Q 845 3629 966 3801 
Q 1088 3974 1283 4076 
Q 1478 4179 1754 4179 
Q 1958 4179 2140 4118 
Q 2323 4058 2460 3939 
Q 2598 3821 2678 3651 
Q 2758 3482 2758 3264 
Q 2758 2995 2665 2800 
Q 2573 2605 2387 2419 
Q 2202 2234 1968 2070 
Q 1734 1907 1497 1750 
Q 1261 1594 1037 1424 
Q 813 1254 633 1049 
Q 454 845 345 589 
Q 237 333 230 0 
L 3181 0 
z
" transform="scale(0.015625)"/>
       </defs>
       <use xlink:href="#HelveticaNeue-Light-34"/>
       <use xlink:href="#HelveticaNeue-Light-32" x="55.599991"/>
       <use xlink:href="#HelveticaNeue-Light-30" x="111.199982"/>
      </g>
     </g>
    </g>
    <g id="xtick_3">
     <g id="line2d_5">
      <g>
       <use xlink:href="#md719673842" x="254.527592" y="481.429375" style="stroke: #000000; stroke-width: 1.5"/>
      </g>
     </g>
     <g id="line2d_6">
      <g>
       <use xlink:href="#m2efe12a73b" x="254.527592" y="37.909375" style="stroke: #000000; stroke-width: 1.5"/>
      </g>
     </g>
     <g id="text_3">
      <!-- 440 -->
      <g transform="translate(242.018998 495.640312) scale(0.15 -0.15)">
       <use xlink:href="#HelveticaNeue-Light-34"/>
       <use xlink:href="#HelveticaNeue-Light-34" x="55.599991"/>
       <use xlink:href="#HelveticaNeue-Light-30" x="111.199982"/>
      </g>
     </g>
    </g>
    <g id="xtick_4">
     <g id="line2d_7">
      <g>
       <use xlink:href="#md719673842" x="323.173644" y="481.429375" style="stroke: #000000; stroke-width: 1.5"/>
      </g>
     </g>
     <g id="line2d_8">
      <g>
       <use xlink:href="#m2efe12a73b" x="323.173644" y="37.909375" style="stroke: #000000; stroke-width: 1.5"/>
      </g>
     </g>
     <g id="text_4">
      <!-- 460 -->
      <g transform="translate(310.66505 495.640312) scale(0.15 -0.15)">
       <defs>
        <path id="HelveticaNeue-Light-36" d="M 2829 3347 
L 3232 3347 
Q 3162 3942 2810 4230 
Q 2458 4518 1856 4518 
Q 1491 4518 1228 4390 
Q 966 4262 790 4057 
Q 614 3853 508 3600 
Q 403 3347 345 3100 
Q 288 2854 272 2636 
Q 256 2419 256 2285 
Q 256 1626 349 1174 
Q 442 723 634 441 
Q 826 160 1120 35 
Q 1414 -90 1824 -90 
Q 2157 -90 2435 22 
Q 2714 134 2915 336 
Q 3117 538 3229 816 
Q 3341 1094 3341 1421 
Q 3341 1747 3235 2022 
Q 3130 2298 2938 2496 
Q 2746 2694 2474 2806 
Q 2202 2918 1862 2918 
Q 1478 2918 1155 2713 
Q 832 2509 672 2176 
L 659 2176 
Q 659 2483 704 2832 
Q 749 3181 883 3481 
Q 1018 3782 1261 3980 
Q 1504 4179 1894 4179 
Q 2285 4179 2531 3948 
Q 2778 3718 2829 3347 
z
M 1856 2579 
Q 2112 2579 2313 2486 
Q 2515 2394 2652 2234 
Q 2790 2074 2864 1856 
Q 2938 1638 2938 1395 
Q 2938 1165 2861 953 
Q 2784 742 2640 585 
Q 2496 429 2301 336 
Q 2106 243 1862 243 
Q 1568 243 1357 332 
Q 1146 422 1008 579 
Q 870 736 806 947 
Q 742 1158 742 1395 
Q 742 1645 816 1859 
Q 890 2074 1034 2234 
Q 1178 2394 1386 2486 
Q 1594 2579 1856 2579 
z
" transform="scale(0.015625)"/>
       </defs>
       <use xlink:href="#HelveticaNeue-Light-34"/>
       <use xlink:href="#HelveticaNeue-Light-36" x="55.599991"/>
       <use xlink:href="#HelveticaNeue-Light-30" x="111.199982"/>
      </g>
     </g>
    </g>
    <g id="xtick_5">
     <g id="line2d_9">
      <g>
       <use xlink:href="#md719673842" x="391.819696" y="481.429375" style="stroke: #000000; stroke-width: 1.5"/>
      </g>
     </g>
     <g id="line2d_10">
      <g>
       <use xlink:href="#m2efe12a73b" x="391.819696" y="37.909375" style="stroke: #000000; stroke-width: 1.5"/>
      </g>
     </g>
     <g id="text_5">
      <!-- 480 -->
      <g transform="translate(379.311102 495.640312) scale(0.15 -0.15)">
       <defs>
        <path id="HelveticaNeue-Light-38" d="M 1779 2566 
Q 1600 2560 1427 2605 
Q 1254 2650 1120 2752 
Q 986 2854 902 3014 
Q 819 3174 819 3398 
Q 819 3590 899 3737 
Q 979 3885 1113 3981 
Q 1248 4077 1421 4128 
Q 1594 4179 1779 4179 
Q 1984 4179 2157 4128 
Q 2330 4077 2458 3981 
Q 2586 3885 2659 3737 
Q 2733 3590 2733 3398 
Q 2733 3181 2653 3021 
Q 2573 2861 2441 2758 
Q 2310 2656 2137 2608 
Q 1965 2560 1779 2566 
z
M 3136 3398 
Q 3136 3686 3017 3897 
Q 2899 4109 2704 4246 
Q 2509 4384 2265 4451 
Q 2022 4518 1773 4518 
Q 1523 4518 1280 4451 
Q 1037 4384 845 4246 
Q 653 4109 534 3897 
Q 416 3686 416 3398 
Q 416 3027 605 2774 
Q 794 2522 1146 2413 
L 1146 2400 
Q 723 2323 486 2009 
Q 250 1696 237 1254 
Q 237 915 358 662 
Q 480 410 691 243 
Q 902 77 1184 -6 
Q 1466 -90 1779 -90 
Q 2099 -90 2377 -6 
Q 2656 77 2867 243 
Q 3078 410 3200 662 
Q 3322 915 3322 1254 
Q 3322 1715 3085 2012 
Q 2848 2310 2406 2400 
L 2406 2413 
Q 2752 2515 2944 2774 
Q 3136 3034 3136 3398 
z
M 1779 243 
Q 1542 243 1334 307 
Q 1126 371 972 496 
Q 819 621 729 813 
Q 640 1005 640 1254 
Q 640 1498 733 1683 
Q 826 1869 979 1993 
Q 1133 2118 1341 2176 
Q 1549 2234 1779 2227 
Q 2003 2234 2211 2173 
Q 2419 2112 2576 1987 
Q 2733 1862 2825 1680 
Q 2918 1498 2918 1254 
Q 2918 998 2828 806 
Q 2739 614 2585 489 
Q 2432 365 2224 304 
Q 2016 243 1779 243 
z
" transform="scale(0.015625)"/>
       </defs>
       <use xlink:href="#HelveticaNeue-Light-34"/>
       <use xlink:href="#HelveticaNeue-Light-38" x="55.599991"/>
       <use xlink:href="#HelveticaNeue-Light-30" x="111.199982"/>
      </g>
     </g>
    </g>
    <g id="xtick_6">
     <g id="line2d_11">
      <g>
       <use xlink:href="#md719673842" x="460.465748" y="481.429375" style="stroke: #000000; stroke-width: 1.5"/>
      </g>
     </g>
     <g id="line2d_12">
      <g>
       <use xlink:href="#m2efe12a73b" x="460.465748" y="37.909375" style="stroke: #000000; stroke-width: 1.5"/>
      </g>
     </g>
     <g id="text_6">
      <!-- 500 -->
      <g transform="translate(447.957154 495.640312) scale(0.15 -0.15)">
       <defs>
        <path id="HelveticaNeue-Light-35" d="M 634 1280 
L 230 1280 
Q 237 960 352 704 
Q 467 448 662 272 
Q 858 96 1123 3 
Q 1389 -90 1702 -90 
Q 2022 -90 2307 22 
Q 2592 134 2803 336 
Q 3014 538 3136 816 
Q 3258 1094 3258 1421 
Q 3258 1760 3152 2045 
Q 3046 2330 2851 2534 
Q 2656 2739 2377 2854 
Q 2099 2970 1754 2970 
Q 1485 2970 1229 2861 
Q 973 2752 806 2554 
L 794 2566 
L 1082 4051 
L 3040 4051 
L 3040 4422 
L 800 4422 
L 365 2099 
L 710 2099 
Q 877 2355 1139 2492 
Q 1402 2630 1709 2630 
Q 1958 2630 2169 2540 
Q 2381 2451 2531 2294 
Q 2682 2138 2768 1926 
Q 2854 1715 2854 1466 
Q 2854 1222 2777 1001 
Q 2701 781 2553 611 
Q 2406 442 2201 342 
Q 1997 243 1734 243 
Q 1504 243 1305 316 
Q 1107 390 960 528 
Q 813 666 726 858 
Q 640 1050 634 1280 
z
" transform="scale(0.015625)"/>
       </defs>
       <use xlink:href="#HelveticaNeue-Light-35"/>
       <use xlink:href="#HelveticaNeue-Light-30" x="55.599991"/>
       <use xlink:href="#HelveticaNeue-Light-30" x="111.199982"/>
      </g>
     </g>
    </g>
    <g id="xtick_7">
     <g id="line2d_13">
      <defs>
       <path id="m9b043181fd" d="M 0 0 
L 0 -3 
" style="stroke: #000000; stroke-width: 1.2"/>
      </defs>
      <g>
       <use xlink:href="#m9b043181fd" x="82.912462" y="481.429375" style="stroke: #000000; stroke-width: 1.2"/>
      </g>
     </g>
     <g id="line2d_14">
      <defs>
       <path id="m4dc478002b" d="M 0 0 
L 0 3 
" style="stroke: #000000; stroke-width: 1.2"/>
      </defs>
      <g>
       <use xlink:href="#m4dc478002b" x="82.912462" y="37.909375" style="stroke: #000000; stroke-width: 1.2"/>
      </g>
     </g>
    </g>
    <g id="xtick_8">
     <g id="line2d_15">
      <g>
       <use xlink:href="#m9b043181fd" x="100.073975" y="481.429375" style="stroke: #000000; stroke-width: 1.2"/>
      </g>
     </g>
     <g id="line2d_16">
      <g>
       <use xlink:href="#m4dc478002b" x="100.073975" y="37.909375" style="stroke: #000000; stroke-width: 1.2"/>
      </g>
     </g>
    </g>
    <g id="xtick_9">
     <g id="line2d_17">
      <g>
       <use xlink:href="#m9b043181fd" x="134.397001" y="481.429375" style="stroke: #000000; stroke-width: 1.2"/>
      </g>
     </g>
     <g id="line2d_18">
      <g>
       <use xlink:href="#m4dc478002b" x="134.397001" y="37.909375" style="stroke: #000000; stroke-width: 1.2"/>
      </g>
     </g>
    </g>
    <g id="xtick_10">
     <g id="line2d_19">
      <g>
       <use xlink:href="#m9b043181fd" x="151.558514" y="481.429375" style="stroke: #000000; stroke-width: 1.2"/>
      </g>
     </g>
     <g id="line2d_20">
      <g>
       <use xlink:href="#m4dc478002b" x="151.558514" y="37.909375" style="stroke: #000000; stroke-width: 1.2"/>
      </g>
     </g>
    </g>
    <g id="xtick_11">
     <g id="line2d_21">
      <g>
       <use xlink:href="#m9b043181fd" x="168.720027" y="481.429375" style="stroke: #000000; stroke-width: 1.2"/>
      </g>
     </g>
     <g id="line2d_22">
      <g>
       <use xlink:href="#m4dc478002b" x="168.720027" y="37.909375" style="stroke: #000000; stroke-width: 1.2"/>
      </g>
     </g>
    </g>
    <g id="xtick_12">
     <g id="line2d_23">
      <g>
       <use xlink:href="#m9b043181fd" x="203.043053" y="481.429375" style="stroke: #000000; stroke-width: 1.2"/>
      </g>
     </g>
     <g id="line2d_24">
      <g>
       <use xlink:href="#m4dc478002b" x="203.043053" y="37.909375" style="stroke: #000000; stroke-width: 1.2"/>
      </g>
     </g>
    </g>
    <g id="xtick_13">
     <g id="line2d_25">
      <g>
       <use xlink:href="#m9b043181fd" x="220.204566" y="481.429375" style="stroke: #000000; stroke-width: 1.2"/>
      </g>
     </g>
     <g id="line2d_26">
      <g>
       <use xlink:href="#m4dc478002b" x="220.204566" y="37.909375" style="stroke: #000000; stroke-width: 1.2"/>
      </g>
     </g>
    </g>
    <g id="xtick_14">
     <g id="line2d_27">
      <g>
       <use xlink:href="#m9b043181fd" x="237.366079" y="481.429375" style="stroke: #000000; stroke-width: 1.2"/>
      </g>
     </g>
     <g id="line2d_28">
      <g>
       <use xlink:href="#m4dc478002b" x="237.366079" y="37.909375" style="stroke: #000000; stroke-width: 1.2"/>
      </g>
     </g>
    </g>
    <g id="xtick_15">
     <g id="line2d_29">
      <g>
       <use xlink:href="#m9b043181fd" x="271.689105" y="481.429375" style="stroke: #000000; stroke-width: 1.2"/>
      </g>
     </g>
     <g id="line2d_30">
      <g>
       <use xlink:href="#m4dc478002b" x="271.689105" y="37.909375" style="stroke: #000000; stroke-width: 1.2"/>
      </g>
     </g>
    </g>
    <g id="xtick_16">
     <g id="line2d_31">
      <g>
       <use xlink:href="#m9b043181fd" x="288.850618" y="481.429375" style="stroke: #000000; stroke-width: 1.2"/>
      </g>
     </g>
     <g id="line2d_32">
      <g>
       <use xlink:href="#m4dc478002b" x="288.850618" y="37.909375" style="stroke: #000000; stroke-width: 1.2"/>
      </g>
     </g>
    </g>
    <g id="xtick_17">
     <g id="line2d_33">
      <g>
       <use xlink:href="#m9b043181fd" x="306.012131" y="481.429375" style="stroke: #000000; stroke-width: 1.2"/>
      </g>
     </g>
     <g id="line2d_34">
      <g>
       <use xlink:href="#m4dc478002b" x="306.012131" y="37.909375" style="stroke: #000000; stroke-width: 1.2"/>
      </g>
     </g>
    </g>
    <g id="xtick_18">
     <g id="line2d_35">
      <g>
       <use xlink:href="#m9b043181fd" x="340.335157" y="481.429375" style="stroke: #000000; stroke-width: 1.2"/>
      </g>
     </g>
     <g id="line2d_36">
      <g>
       <use xlink:href="#m4dc478002b" x="340.335157" y="37.909375" style="stroke: #000000; stroke-width: 1.2"/>
      </g>
     </g>
    </g>
    <g id="xtick_19">
     <g id="line2d_37">
      <g>
       <use xlink:href="#m9b043181fd" x="357.49667" y="481.429375" style="stroke: #000000; stroke-width: 1.2"/>
      </g>
     </g>
     <g id="line2d_38">
      <g>
       <use xlink:href="#m4dc478002b" x="357.49667" y="37.909375" style="stroke: #000000; stroke-width: 1.2"/>
      </g>
     </g>
    </g>
    <g id="xtick_20">
     <g id="line2d_39">
      <g>
       <use xlink:href="#m9b043181fd" x="374.658183" y="481.429375" style="stroke: #000000; stroke-width: 1.2"/>
      </g>
     </g>
     <g id="line2d_40">
      <g>
       <use xlink:href="#m4dc478002b" x="374.658183" y="37.909375" style="stroke: #000000; stroke-width: 1.2"/>
      </g>
     </g>
    </g>
    <g id="xtick_21">
     <g id="line2d_41">
      <g>
       <use xlink:href="#m9b043181fd" x="408.981209" y="481.429375" style="stroke: #000000; stroke-width: 1.2"/>
      </g>
     </g>
     <g id="line2d_42">
      <g>
       <use xlink:href="#m4dc478002b" x="408.981209" y="37.909375" style="stroke: #000000; stroke-width: 1.2"/>
      </g>
     </g>
    </g>
    <g id="xtick_22">
     <g id="line2d_43">
      <g>
       <use xlink:href="#m9b043181fd" x="426.142722" y="481.429375" style="stroke: #000000; stroke-width: 1.2"/>
      </g>
     </g>
     <g id="line2d_44">
      <g>
       <use xlink:href="#m4dc478002b" x="426.142722" y="37.909375" style="stroke: #000000; stroke-width: 1.2"/>
      </g>
     </g>
    </g>
    <g id="xtick_23">
     <g id="line2d_45">
      <g>
       <use xlink:href="#m9b043181fd" x="443.304235" y="481.429375" style="stroke: #000000; stroke-width: 1.2"/>
      </g>
     </g>
     <g id="line2d_46">
      <g>
       <use xlink:href="#m4dc478002b" x="443.304235" y="37.909375" style="stroke: #000000; stroke-width: 1.2"/>
      </g>
     </g>
    </g>
    <g id="xtick_24">
     <g id="line2d_47">
      <g>
       <use xlink:href="#m9b043181fd" x="477.627261" y="481.429375" style="stroke: #000000; stroke-width: 1.2"/>
      </g>
     </g>
     <g id="line2d_48">
      <g>
       <use xlink:href="#m4dc478002b" x="477.627261" y="37.909375" style="stroke: #000000; stroke-width: 1.2"/>
      </g>
     </g>
    </g>
    <g id="xtick_25">
     <g id="line2d_49">
      <g>
       <use xlink:href="#m9b043181fd" x="494.788774" y="481.429375" style="stroke: #000000; stroke-width: 1.2"/>
      </g>
     </g>
     <g id="line2d_50">
      <g>
       <use xlink:href="#m4dc478002b" x="494.788774" y="37.909375" style="stroke: #000000; stroke-width: 1.2"/>
      </g>
     </g>
    </g>
    <g id="xtick_26">
     <g id="line2d_51">
      <g>
       <use xlink:href="#m9b043181fd" x="511.950286" y="481.429375" style="stroke: #000000; stroke-width: 1.2"/>
      </g>
     </g>
     <g id="line2d_52">
      <g>
       <use xlink:href="#m4dc478002b" x="511.950286" y="37.909375" style="stroke: #000000; stroke-width: 1.2"/>
      </g>
     </g>
    </g>
    <g id="text_7">
     <!-- -ln(L) -->
     <g transform="translate(268.897656 517.109062) scale(0.2 -0.2)">
      <defs>
       <path id="HelveticaNeue-Bold-2d" d="M 339 2138 
L 339 1357 
L 2266 1357 
L 2266 2138 
L 339 2138 
z
" transform="scale(0.015625)"/>
       <path id="HelveticaNeue-Bold-6c" d="M 371 4570 
L 371 0 
L 1280 0 
L 1280 4570 
L 371 4570 
z
" transform="scale(0.015625)"/>
       <path id="HelveticaNeue-Bold-6e" d="M 346 3309 
L 346 0 
L 1254 0 
L 1254 1734 
Q 1254 2240 1420 2461 
Q 1587 2682 1958 2682 
Q 2285 2682 2413 2480 
Q 2541 2278 2541 1869 
L 2541 0 
L 3450 0 
L 3450 2035 
Q 3450 2342 3395 2595 
Q 3341 2848 3206 3024 
Q 3072 3200 2838 3299 
Q 2605 3398 2240 3398 
Q 1952 3398 1677 3267 
Q 1402 3136 1229 2848 
L 1210 2848 
L 1210 3309 
L 346 3309 
z
" transform="scale(0.015625)"/>
       <path id="HelveticaNeue-Bold-28" d="M 1939 4678 
L 1178 4678 
Q 966 4371 809 4006 
Q 653 3642 547 3251 
Q 442 2861 387 2467 
Q 333 2074 333 1715 
Q 333 960 553 230 
Q 774 -499 1178 -1158 
L 1933 -1158 
Q 1568 -461 1405 275 
Q 1242 1011 1242 1779 
Q 1242 2534 1408 3267 
Q 1574 4000 1939 4678 
z
" transform="scale(0.015625)"/>
       <path id="HelveticaNeue-Bold-4c" d="M 442 4570 
L 442 0 
L 3674 0 
L 3674 845 
L 1446 845 
L 1446 4570 
L 442 4570 
z
" transform="scale(0.015625)"/>
       <path id="HelveticaNeue-Bold-29" d="M -38 -1158 
L 717 -1158 
Q 928 -858 1088 -493 
Q 1248 -128 1353 259 
Q 1459 646 1510 1040 
Q 1562 1434 1562 1792 
Q 1562 2547 1341 3283 
Q 1120 4019 717 4678 
L -32 4678 
Q 320 3981 486 3238 
Q 653 2496 653 1728 
Q 653 973 483 246 
Q 314 -480 -38 -1158 
z
" transform="scale(0.015625)"/>
      </defs>
      <use xlink:href="#HelveticaNeue-Bold-2d"/>
      <use xlink:href="#HelveticaNeue-Bold-6c" x="40.699997"/>
      <use xlink:href="#HelveticaNeue-Bold-6e" x="66.499985"/>
      <use xlink:href="#HelveticaNeue-Bold-28" x="125.799973"/>
      <use xlink:href="#HelveticaNeue-Bold-4c" x="155.399963"/>
      <use xlink:href="#HelveticaNeue-Bold-29" x="214.699951"/>
     </g>
    </g>
   </g>
   <g id="matplotlib.axis_2">
    <g id="ytick_1">
     <g id="line2d_53">
      <defs>
       <path id="m546eaab95c" d="M 0 0 
L 6 0 
" style="stroke: #000000; stroke-width: 1.5"/>
      </defs>
      <g>
       <use xlink:href="#m546eaab95c" x="70.125781" y="481.429375" style="stroke: #000000; stroke-width: 1.5"/>
      </g>
     </g>
     <g id="line2d_54">
      <defs>
       <path id="maeb62166a3" d="M 0 0 
L -6 0 
" style="stroke: #000000; stroke-width: 1.5"/>
      </defs>
      <g>
       <use xlink:href="#maeb62166a3" x="516.525781" y="481.429375" style="stroke: #000000; stroke-width: 1.5"/>
      </g>
     </g>
     <g id="text_8">
      <!-- 0.000 -->
      <g transform="translate(29.1 486.784844) scale(0.15 -0.15)">
       <defs>
        <path id="HelveticaNeue-Light-2e" d="M 621 0 
L 1158 0 
L 1158 678 
L 621 678 
L 621 0 
z
" transform="scale(0.015625)"/>
       </defs>
       <use xlink:href="#HelveticaNeue-Light-30"/>
       <use xlink:href="#HelveticaNeue-Light-2e" x="55.599991"/>
       <use xlink:href="#HelveticaNeue-Light-30" x="83.399979"/>
       <use xlink:href="#HelveticaNeue-Light-30" x="138.999969"/>
       <use xlink:href="#HelveticaNeue-Light-30" x="194.59996"/>
      </g>
     </g>
    </g>
    <g id="ytick_2">
     <g id="line2d_55">
      <g>
       <use xlink:href="#m546eaab95c" x="70.125781" y="388.819878" style="stroke: #000000; stroke-width: 1.5"/>
      </g>
     </g>
     <g id="line2d_56">
      <g>
       <use xlink:href="#maeb62166a3" x="516.525781" y="388.819878" style="stroke: #000000; stroke-width: 1.5"/>
      </g>
     </g>
     <g id="text_9">
      <!-- 0.005 -->
      <g transform="translate(29.1 394.175346) scale(0.15 -0.15)">
       <use xlink:href="#HelveticaNeue-Light-30"/>
       <use xlink:href="#HelveticaNeue-Light-2e" x="55.599991"/>
       <use xlink:href="#HelveticaNeue-Light-30" x="83.399979"/>
       <use xlink:href="#HelveticaNeue-Light-30" x="138.999969"/>
       <use xlink:href="#HelveticaNeue-Light-35" x="194.59996"/>
      </g>
     </g>
    </g>
    <g id="ytick_3">
     <g id="line2d_57">
      <g>
       <use xlink:href="#m546eaab95c" x="70.125781" y="296.21038" style="stroke: #000000; stroke-width: 1.5"/>
      </g>
     </g>
     <g id="line2d_58">
      <g>
       <use xlink:href="#maeb62166a3" x="516.525781" y="296.21038" style="stroke: #000000; stroke-width: 1.5"/>
      </g>
     </g>
     <g id="text_10">
      <!-- 0.010 -->
      <g transform="translate(29.1 301.565849) scale(0.15 -0.15)">
       <defs>
        <path id="HelveticaNeue-Light-31" d="M 621 3616 
L 621 3328 
L 1805 3328 
L 1805 0 
L 2208 0 
L 2208 4480 
L 1882 4480 
Q 1837 4173 1731 4003 
Q 1626 3834 1469 3750 
Q 1312 3667 1097 3644 
Q 883 3622 621 3616 
z
" transform="scale(0.015625)"/>
       </defs>
       <use xlink:href="#HelveticaNeue-Light-30"/>
       <use xlink:href="#HelveticaNeue-Light-2e" x="55.599991"/>
       <use xlink:href="#HelveticaNeue-Light-30" x="83.399979"/>
       <use xlink:href="#HelveticaNeue-Light-31" x="138.999969"/>
       <use xlink:href="#HelveticaNeue-Light-30" x="194.59996"/>
      </g>
     </g>
    </g>
    <g id="ytick_4">
     <g id="line2d_59">
      <g>
       <use xlink:href="#m546eaab95c" x="70.125781" y="203.600883" style="stroke: #000000; stroke-width: 1.5"/>
      </g>
     </g>
     <g id="line2d_60">
      <g>
       <use xlink:href="#maeb62166a3" x="516.525781" y="203.600883" style="stroke: #000000; stroke-width: 1.5"/>
      </g>
     </g>
     <g id="text_11">
      <!-- 0.015 -->
      <g transform="translate(29.1 208.956351) scale(0.15 -0.15)">
       <use xlink:href="#HelveticaNeue-Light-30"/>
       <use xlink:href="#HelveticaNeue-Light-2e" x="55.599991"/>
       <use xlink:href="#HelveticaNeue-Light-30" x="83.399979"/>
       <use xlink:href="#HelveticaNeue-Light-31" x="138.999969"/>
       <use xlink:href="#HelveticaNeue-Light-35" x="194.59996"/>
      </g>
     </g>
    </g>
    <g id="ytick_5">
     <g id="line2d_61">
      <g>
       <use xlink:href="#m546eaab95c" x="70.125781" y="110.991385" style="stroke: #000000; stroke-width: 1.5"/>
      </g>
     </g>
     <g id="line2d_62">
      <g>
       <use xlink:href="#maeb62166a3" x="516.525781" y="110.991385" style="stroke: #000000; stroke-width: 1.5"/>
      </g>
     </g>
     <g id="text_12">
      <!-- 0.020 -->
      <g transform="translate(29.1 116.346854) scale(0.15 -0.15)">
       <use xlink:href="#HelveticaNeue-Light-30"/>
       <use xlink:href="#HelveticaNeue-Light-2e" x="55.599991"/>
       <use xlink:href="#HelveticaNeue-Light-30" x="83.399979"/>
       <use xlink:href="#HelveticaNeue-Light-32" x="138.999969"/>
       <use xlink:href="#HelveticaNeue-Light-30" x="194.59996"/>
      </g>
     </g>
    </g>
    <g id="ytick_6">
     <g id="line2d_63">
      <defs>
       <path id="mb445e0e49a" d="M 0 0 
L 3 0 
" style="stroke: #000000; stroke-width: 1.2"/>
      </defs>
      <g>
       <use xlink:href="#mb445e0e49a" x="70.125781" y="462.907476" style="stroke: #000000; stroke-width: 1.2"/>
      </g>
     </g>
     <g id="line2d_64">
      <defs>
       <path id="md41da1eebd" d="M 0 0 
L -3 0 
" style="stroke: #000000; stroke-width: 1.2"/>
      </defs>
      <g>
       <use xlink:href="#md41da1eebd" x="516.525781" y="462.907476" style="stroke: #000000; stroke-width: 1.2"/>
      </g>
     </g>
    </g>
    <g id="ytick_7">
     <g id="line2d_65">
      <g>
       <use xlink:href="#mb445e0e49a" x="70.125781" y="444.385576" style="stroke: #000000; stroke-width: 1.2"/>
      </g>
     </g>
     <g id="line2d_66">
      <g>
       <use xlink:href="#md41da1eebd" x="516.525781" y="444.385576" style="stroke: #000000; stroke-width: 1.2"/>
      </g>
     </g>
    </g>
    <g id="ytick_8">
     <g id="line2d_67">
      <g>
       <use xlink:href="#mb445e0e49a" x="70.125781" y="425.863677" style="stroke: #000000; stroke-width: 1.2"/>
      </g>
     </g>
     <g id="line2d_68">
      <g>
       <use xlink:href="#md41da1eebd" x="516.525781" y="425.863677" style="stroke: #000000; stroke-width: 1.2"/>
      </g>
     </g>
    </g>
    <g id="ytick_9">
     <g id="line2d_69">
      <g>
       <use xlink:href="#mb445e0e49a" x="70.125781" y="407.341777" style="stroke: #000000; stroke-width: 1.2"/>
      </g>
     </g>
     <g id="line2d_70">
      <g>
       <use xlink:href="#md41da1eebd" x="516.525781" y="407.341777" style="stroke: #000000; stroke-width: 1.2"/>
      </g>
     </g>
    </g>
    <g id="ytick_10">
     <g id="line2d_71">
      <g>
       <use xlink:href="#mb445e0e49a" x="70.125781" y="370.297978" style="stroke: #000000; stroke-width: 1.2"/>
      </g>
     </g>
     <g id="line2d_72">
      <g>
       <use xlink:href="#md41da1eebd" x="516.525781" y="370.297978" style="stroke: #000000; stroke-width: 1.2"/>
      </g>
     </g>
    </g>
    <g id="ytick_11">
     <g id="line2d_73">
      <g>
       <use xlink:href="#mb445e0e49a" x="70.125781" y="351.776079" style="stroke: #000000; stroke-width: 1.2"/>
      </g>
     </g>
     <g id="line2d_74">
      <g>
       <use xlink:href="#md41da1eebd" x="516.525781" y="351.776079" style="stroke: #000000; stroke-width: 1.2"/>
      </g>
     </g>
    </g>
    <g id="ytick_12">
     <g id="line2d_75">
      <g>
       <use xlink:href="#mb445e0e49a" x="70.125781" y="333.254179" style="stroke: #000000; stroke-width: 1.2"/>
      </g>
     </g>
     <g id="line2d_76">
      <g>
       <use xlink:href="#md41da1eebd" x="516.525781" y="333.254179" style="stroke: #000000; stroke-width: 1.2"/>
      </g>
     </g>
    </g>
    <g id="ytick_13">
     <g id="line2d_77">
      <g>
       <use xlink:href="#mb445e0e49a" x="70.125781" y="314.73228" style="stroke: #000000; stroke-width: 1.2"/>
      </g>
     </g>
     <g id="line2d_78">
      <g>
       <use xlink:href="#md41da1eebd" x="516.525781" y="314.73228" style="stroke: #000000; stroke-width: 1.2"/>
      </g>
     </g>
    </g>
    <g id="ytick_14">
     <g id="line2d_79">
      <g>
       <use xlink:href="#mb445e0e49a" x="70.125781" y="277.688481" style="stroke: #000000; stroke-width: 1.2"/>
      </g>
     </g>
     <g id="line2d_80">
      <g>
       <use xlink:href="#md41da1eebd" x="516.525781" y="277.688481" style="stroke: #000000; stroke-width: 1.2"/>
      </g>
     </g>
    </g>
    <g id="ytick_15">
     <g id="line2d_81">
      <g>
       <use xlink:href="#mb445e0e49a" x="70.125781" y="259.166581" style="stroke: #000000; stroke-width: 1.2"/>
      </g>
     </g>
     <g id="line2d_82">
      <g>
       <use xlink:href="#md41da1eebd" x="516.525781" y="259.166581" style="stroke: #000000; stroke-width: 1.2"/>
      </g>
     </g>
    </g>
    <g id="ytick_16">
     <g id="line2d_83">
      <g>
       <use xlink:href="#mb445e0e49a" x="70.125781" y="240.644682" style="stroke: #000000; stroke-width: 1.2"/>
      </g>
     </g>
     <g id="line2d_84">
      <g>
       <use xlink:href="#md41da1eebd" x="516.525781" y="240.644682" style="stroke: #000000; stroke-width: 1.2"/>
      </g>
     </g>
    </g>
    <g id="ytick_17">
     <g id="line2d_85">
      <g>
       <use xlink:href="#mb445e0e49a" x="70.125781" y="222.122782" style="stroke: #000000; stroke-width: 1.2"/>
      </g>
     </g>
     <g id="line2d_86">
      <g>
       <use xlink:href="#md41da1eebd" x="516.525781" y="222.122782" style="stroke: #000000; stroke-width: 1.2"/>
      </g>
     </g>
    </g>
    <g id="ytick_18">
     <g id="line2d_87">
      <g>
       <use xlink:href="#mb445e0e49a" x="70.125781" y="185.078983" style="stroke: #000000; stroke-width: 1.2"/>
      </g>
     </g>
     <g id="line2d_88">
      <g>
       <use xlink:href="#md41da1eebd" x="516.525781" y="185.078983" style="stroke: #000000; stroke-width: 1.2"/>
      </g>
     </g>
    </g>
    <g id="ytick_19">
     <g id="line2d_89">
      <g>
       <use xlink:href="#mb445e0e49a" x="70.125781" y="166.557084" style="stroke: #000000; stroke-width: 1.2"/>
      </g>
     </g>
     <g id="line2d_90">
      <g>
       <use xlink:href="#md41da1eebd" x="516.525781" y="166.557084" style="stroke: #000000; stroke-width: 1.2"/>
      </g>
     </g>
    </g>
    <g id="ytick_20">
     <g id="line2d_91">
      <g>
       <use xlink:href="#mb445e0e49a" x="70.125781" y="148.035184" style="stroke: #000000; stroke-width: 1.2"/>
      </g>
     </g>
     <g id="line2d_92">
      <g>
       <use xlink:href="#md41da1eebd" x="516.525781" y="148.035184" style="stroke: #000000; stroke-width: 1.2"/>
      </g>
     </g>
    </g>
    <g id="ytick_21">
     <g id="line2d_93">
      <g>
       <use xlink:href="#mb445e0e49a" x="70.125781" y="129.513285" style="stroke: #000000; stroke-width: 1.2"/>
      </g>
     </g>
     <g id="line2d_94">
      <g>
       <use xlink:href="#md41da1eebd" x="516.525781" y="129.513285" style="stroke: #000000; stroke-width: 1.2"/>
      </g>
     </g>
    </g>
    <g id="ytick_22">
     <g id="line2d_95">
      <g>
       <use xlink:href="#mb445e0e49a" x="70.125781" y="92.469486" style="stroke: #000000; stroke-width: 1.2"/>
      </g>
     </g>
     <g id="line2d_96">
      <g>
       <use xlink:href="#md41da1eebd" x="516.525781" y="92.469486" style="stroke: #000000; stroke-width: 1.2"/>
      </g>
     </g>
    </g>
    <g id="ytick_23">
     <g id="line2d_97">
      <g>
       <use xlink:href="#mb445e0e49a" x="70.125781" y="73.947586" style="stroke: #000000; stroke-width: 1.2"/>
      </g>
     </g>
     <g id="line2d_98">
      <g>
       <use xlink:href="#md41da1eebd" x="516.525781" y="73.947586" style="stroke: #000000; stroke-width: 1.2"/>
      </g>
     </g>
    </g>
    <g id="ytick_24">
     <g id="line2d_99">
      <g>
       <use xlink:href="#mb445e0e49a" x="70.125781" y="55.425687" style="stroke: #000000; stroke-width: 1.2"/>
      </g>
     </g>
     <g id="line2d_100">
      <g>
       <use xlink:href="#md41da1eebd" x="516.525781" y="55.425687" style="stroke: #000000; stroke-width: 1.2"/>
      </g>
     </g>
    </g>
    <g id="text_13">
     <!-- Probability Density -->
     <g transform="translate(21.48125 349.094375) rotate(-90) scale(0.2 -0.2)">
      <defs>
       <path id="HelveticaNeue-Bold-50" d="M 1446 2419 
L 1446 3789 
L 2227 3789 
Q 2400 3789 2560 3763 
Q 2720 3738 2841 3664 
Q 2963 3590 3036 3456 
Q 3110 3322 3110 3104 
Q 3110 2886 3036 2752 
Q 2963 2618 2841 2544 
Q 2720 2470 2560 2444 
Q 2400 2419 2227 2419 
L 1446 2419 
z
M 442 4570 
L 442 0 
L 1446 0 
L 1446 1638 
L 2502 1638 
Q 2931 1638 3232 1763 
Q 3533 1888 3721 2093 
Q 3910 2298 3996 2563 
Q 4083 2829 4083 3104 
Q 4083 3386 3996 3648 
Q 3910 3910 3721 4115 
Q 3533 4320 3232 4445 
Q 2931 4570 2502 4570 
L 442 4570 
z
" transform="scale(0.015625)"/>
       <path id="HelveticaNeue-Bold-72" d="M 346 3309 
L 346 0 
L 1254 0 
L 1254 1491 
Q 1254 1715 1299 1907 
Q 1344 2099 1449 2243 
Q 1555 2387 1728 2470 
Q 1901 2554 2150 2554 
Q 2234 2554 2323 2544 
Q 2413 2534 2477 2522 
L 2477 3366 
Q 2368 3398 2278 3398 
Q 2106 3398 1946 3347 
Q 1786 3296 1645 3203 
Q 1504 3110 1395 2979 
Q 1286 2848 1222 2694 
L 1210 2694 
L 1210 3309 
L 346 3309 
z
" transform="scale(0.015625)"/>
       <path id="HelveticaNeue-Bold-6f" d="M 1152 1651 
Q 1152 1850 1190 2042 
Q 1229 2234 1321 2381 
Q 1414 2528 1568 2621 
Q 1722 2714 1952 2714 
Q 2182 2714 2339 2621 
Q 2496 2528 2589 2381 
Q 2682 2234 2720 2042 
Q 2758 1850 2758 1651 
Q 2758 1453 2720 1264 
Q 2682 1075 2589 924 
Q 2496 774 2339 684 
Q 2182 595 1952 595 
Q 1722 595 1568 684 
Q 1414 774 1321 924 
Q 1229 1075 1190 1264 
Q 1152 1453 1152 1651 
z
M 243 1651 
Q 243 1254 364 934 
Q 486 614 710 387 
Q 934 160 1248 38 
Q 1562 -83 1952 -83 
Q 2342 -83 2659 38 
Q 2976 160 3200 387 
Q 3424 614 3545 934 
Q 3667 1254 3667 1651 
Q 3667 2048 3545 2371 
Q 3424 2694 3200 2921 
Q 2976 3149 2659 3273 
Q 2342 3398 1952 3398 
Q 1562 3398 1248 3273 
Q 934 3149 710 2921 
Q 486 2694 364 2371 
Q 243 2048 243 1651 
z
" transform="scale(0.015625)"/>
       <path id="HelveticaNeue-Bold-62" d="M 2771 1651 
Q 2771 1446 2726 1254 
Q 2682 1062 2586 915 
Q 2490 768 2346 681 
Q 2202 595 1997 595 
Q 1798 595 1651 681 
Q 1504 768 1408 915 
Q 1312 1062 1267 1254 
Q 1222 1446 1222 1651 
Q 1222 1862 1267 2054 
Q 1312 2246 1408 2393 
Q 1504 2541 1651 2627 
Q 1798 2714 1997 2714 
Q 2202 2714 2346 2627 
Q 2490 2541 2586 2393 
Q 2682 2246 2726 2054 
Q 2771 1862 2771 1651 
z
M 346 4570 
L 346 0 
L 1210 0 
L 1210 422 
L 1222 422 
Q 1370 147 1658 32 
Q 1946 -83 2310 -83 
Q 2560 -83 2803 19 
Q 3046 122 3241 333 
Q 3437 544 3558 873 
Q 3680 1203 3680 1658 
Q 3680 2112 3558 2441 
Q 3437 2771 3241 2982 
Q 3046 3194 2803 3296 
Q 2560 3398 2310 3398 
Q 2003 3398 1718 3280 
Q 1434 3162 1267 2906 
L 1254 2906 
L 1254 4570 
L 346 4570 
z
" transform="scale(0.015625)"/>
       <path id="HelveticaNeue-Bold-61" d="M 307 2291 
L 1216 2291 
Q 1242 2560 1395 2675 
Q 1549 2790 1818 2790 
Q 1939 2790 2044 2774 
Q 2150 2758 2230 2710 
Q 2310 2662 2358 2576 
Q 2406 2490 2406 2342 
Q 2413 2202 2323 2128 
Q 2234 2054 2080 2016 
Q 1926 1978 1728 1958 
Q 1530 1939 1325 1907 
Q 1120 1875 918 1820 
Q 717 1766 560 1657 
Q 403 1549 304 1366 
Q 205 1184 205 902 
Q 205 646 291 460 
Q 378 275 531 153 
Q 685 32 889 -25 
Q 1094 -83 1331 -83 
Q 1638 -83 1932 6 
Q 2227 96 2445 320 
Q 2451 237 2467 157 
Q 2483 77 2509 0 
L 3430 0 
Q 3366 102 3340 307 
Q 3315 512 3315 736 
L 3315 2458 
Q 3315 2758 3180 2940 
Q 3046 3123 2835 3225 
Q 2624 3328 2368 3363 
Q 2112 3398 1862 3398 
Q 1587 3398 1315 3344 
Q 1043 3290 825 3162 
Q 608 3034 467 2822 
Q 326 2611 307 2291 
z
M 2406 1619 
L 2406 1280 
Q 2406 1203 2390 1075 
Q 2374 947 2304 822 
Q 2234 698 2086 608 
Q 1939 518 1670 518 
Q 1562 518 1459 537 
Q 1357 557 1280 605 
Q 1203 653 1158 736 
Q 1114 819 1114 941 
Q 1114 1069 1158 1152 
Q 1203 1235 1276 1289 
Q 1350 1344 1449 1376 
Q 1549 1408 1651 1427 
Q 1760 1446 1869 1459 
Q 1978 1472 2077 1491 
Q 2176 1510 2262 1539 
Q 2349 1568 2406 1619 
z
" transform="scale(0.015625)"/>
       <path id="HelveticaNeue-Bold-69" d="M 1280 3821 
L 1280 4570 
L 371 4570 
L 371 3821 
L 1280 3821 
z
M 371 3309 
L 371 0 
L 1280 0 
L 1280 3309 
L 371 3309 
z
" transform="scale(0.015625)"/>
       <path id="HelveticaNeue-Bold-74" d="M 1498 3309 
L 1498 4301 
L 589 4301 
L 589 3309 
L 38 3309 
L 38 2701 
L 589 2701 
L 589 749 
Q 589 499 672 345 
Q 755 192 899 109 
Q 1043 26 1232 -3 
Q 1421 -32 1632 -32 
Q 1766 -32 1907 -25 
Q 2048 -19 2163 0 
L 2163 704 
Q 2099 691 2028 684 
Q 1958 678 1882 678 
Q 1651 678 1574 755 
Q 1498 832 1498 1062 
L 1498 2701 
L 2163 2701 
L 2163 3309 
L 1498 3309 
z
" transform="scale(0.015625)"/>
       <path id="HelveticaNeue-Bold-79" d="M 1978 -410 
L 3360 3309 
L 2419 3309 
L 1696 1043 
L 1683 1043 
L 934 3309 
L -32 3309 
L 1126 205 
Q 1165 109 1165 0 
Q 1165 -147 1078 -268 
Q 992 -390 813 -410 
Q 678 -416 544 -403 
Q 410 -390 282 -378 
L 282 -1126 
Q 422 -1139 560 -1148 
Q 698 -1158 838 -1158 
Q 1306 -1158 1568 -985 
Q 1830 -813 1978 -410 
z
" transform="scale(0.015625)"/>
       <path id="HelveticaNeue-Bold-20" transform="scale(0.015625)"/>
       <path id="HelveticaNeue-Bold-44" d="M 1446 845 
L 1446 3725 
L 2163 3725 
Q 2534 3725 2787 3619 
Q 3040 3514 3193 3315 
Q 3347 3117 3414 2838 
Q 3482 2560 3482 2214 
Q 3482 1837 3386 1574 
Q 3290 1312 3130 1149 
Q 2970 986 2765 915 
Q 2560 845 2342 845 
L 1446 845 
z
M 442 4570 
L 442 0 
L 2413 0 
Q 2938 0 3325 176 
Q 3712 352 3971 659 
Q 4230 966 4358 1388 
Q 4486 1811 4486 2310 
Q 4486 2880 4329 3302 
Q 4173 3725 3894 4006 
Q 3616 4288 3235 4429 
Q 2854 4570 2413 4570 
L 442 4570 
z
" transform="scale(0.015625)"/>
       <path id="HelveticaNeue-Bold-65" d="M 2573 2010 
L 1094 2010 
Q 1101 2106 1136 2227 
Q 1171 2349 1257 2457 
Q 1344 2566 1488 2640 
Q 1632 2714 1850 2714 
Q 2182 2714 2345 2534 
Q 2509 2355 2573 2010 
z
M 1094 1434 
L 3482 1434 
Q 3507 1818 3417 2170 
Q 3328 2522 3126 2797 
Q 2925 3072 2611 3235 
Q 2298 3398 1875 3398 
Q 1498 3398 1187 3264 
Q 877 3130 653 2896 
Q 429 2662 307 2342 
Q 186 2022 186 1651 
Q 186 1267 304 947 
Q 422 627 640 396 
Q 858 166 1171 41 
Q 1485 -83 1875 -83 
Q 2438 -83 2835 173 
Q 3232 429 3424 1024 
L 2624 1024 
Q 2579 870 2380 732 
Q 2182 595 1907 595 
Q 1523 595 1318 793 
Q 1114 992 1094 1434 
z
" transform="scale(0.015625)"/>
       <path id="HelveticaNeue-Bold-73" d="M 1050 1075 
L 186 1075 
Q 198 742 336 521 
Q 474 301 688 166 
Q 902 32 1177 -25 
Q 1453 -83 1741 -83 
Q 2022 -83 2294 -28 
Q 2566 26 2777 160 
Q 2989 294 3120 515 
Q 3251 736 3251 1062 
Q 3251 1293 3161 1449 
Q 3072 1606 2925 1712 
Q 2778 1818 2589 1882 
Q 2400 1946 2202 1990 
Q 2010 2035 1824 2073 
Q 1638 2112 1494 2160 
Q 1350 2208 1260 2285 
Q 1171 2362 1171 2483 
Q 1171 2586 1222 2646 
Q 1274 2707 1347 2739 
Q 1421 2771 1510 2780 
Q 1600 2790 1677 2790 
Q 1920 2790 2099 2697 
Q 2278 2605 2298 2342 
L 3162 2342 
Q 3136 2650 3005 2851 
Q 2874 3053 2675 3174 
Q 2477 3296 2224 3347 
Q 1971 3398 1702 3398 
Q 1434 3398 1178 3350 
Q 922 3302 717 3184 
Q 512 3066 387 2861 
Q 262 2656 262 2336 
Q 262 2118 352 1968 
Q 442 1818 589 1718 
Q 736 1619 925 1558 
Q 1114 1498 1312 1453 
Q 1798 1350 2070 1248 
Q 2342 1146 2342 941 
Q 2342 819 2284 739 
Q 2227 659 2140 611 
Q 2054 563 1948 540 
Q 1843 518 1747 518 
Q 1613 518 1488 550 
Q 1363 582 1267 649 
Q 1171 717 1110 822 
Q 1050 928 1050 1075 
z
" transform="scale(0.015625)"/>
      </defs>
      <use xlink:href="#HelveticaNeue-Bold-50"/>
      <use xlink:href="#HelveticaNeue-Bold-72" x="66.699997"/>
      <use xlink:href="#HelveticaNeue-Bold-6f" x="103.849991"/>
      <use xlink:href="#HelveticaNeue-Bold-62" x="164.949982"/>
      <use xlink:href="#HelveticaNeue-Bold-61" x="226.049973"/>
      <use xlink:href="#HelveticaNeue-Bold-62" x="283.449966"/>
      <use xlink:href="#HelveticaNeue-Bold-69" x="344.549957"/>
      <use xlink:href="#HelveticaNeue-Bold-6c" x="370.349945"/>
      <use xlink:href="#HelveticaNeue-Bold-69" x="396.149933"/>
      <use xlink:href="#HelveticaNeue-Bold-74" x="421.949921"/>
      <use xlink:href="#HelveticaNeue-Bold-79" x="457.149918"/>
      <use xlink:href="#HelveticaNeue-Bold-20" x="509.049911"/>
      <use xlink:href="#HelveticaNeue-Bold-44" x="536.849899"/>
      <use xlink:href="#HelveticaNeue-Bold-65" x="610.94989"/>
      <use xlink:href="#HelveticaNeue-Bold-6e" x="668.349884"/>
      <use xlink:href="#HelveticaNeue-Bold-73" x="727.649872"/>
      <use xlink:href="#HelveticaNeue-Bold-69" x="781.349869"/>
      <use xlink:href="#HelveticaNeue-Bold-74" x="807.149857"/>
      <use xlink:href="#HelveticaNeue-Bold-79" x="842.349854"/>
     </g>
    </g>
   </g>
   <g id="LineCollection_1">
    <path d="M 336.709195 481.429375 
L 336.709195 -1 
" clip-path="url(#pb40a8d3856)" style="fill: none; stroke-dasharray: 11.1,4.8; stroke-dashoffset: 0; stroke: #0000ff; stroke-width: 3"/>
   </g>
   <g id="patch_4">
    <path d="M 70.125781 481.429375 
L 70.125781 37.909375 
" style="fill: none; stroke: #000000; stroke-width: 0.8; stroke-linejoin: miter; stroke-linecap: square"/>
   </g>
   <g id="patch_5">
    <path d="M 516.525781 481.429375 
L 516.525781 37.909375 
" style="fill: none; stroke: #000000; stroke-width: 0.8; stroke-linejoin: miter; stroke-linecap: square"/>
   </g>
   <g id="patch_6">
    <path d="M 70.125781 481.429375 
L 516.525781 481.429375 
" style="fill: none; stroke: #000000; stroke-width: 0.8; stroke-linejoin: miter; stroke-linecap: square"/>
   </g>
   <g id="patch_7">
    <path d="M 70.125781 37.909375 
L 516.525781 37.909375 
" style="fill: none; stroke: #000000; stroke-width: 0.8; stroke-linejoin: miter; stroke-linecap: square"/>
   </g>
   <g id="text_14">
    <!--  Model: wabs*powerlaw -->
    <g transform="translate(70.125781 22.909375) scale(0.22 -0.22)">
     <defs>
      <path id="HelveticaNeue-Bold-4d" d="M 442 4570 
L 442 0 
L 1382 0 
L 1382 3206 
L 1395 3206 
L 2515 0 
L 3290 0 
L 4410 3238 
L 4422 3238 
L 4422 0 
L 5363 0 
L 5363 4570 
L 3949 4570 
L 2938 1427 
L 2925 1427 
L 1856 4570 
L 442 4570 
z
" transform="scale(0.015625)"/>
      <path id="HelveticaNeue-Bold-64" d="M 2694 1664 
Q 2694 1459 2656 1267 
Q 2618 1075 2528 924 
Q 2438 774 2288 684 
Q 2138 595 1914 595 
Q 1702 595 1552 688 
Q 1402 781 1302 931 
Q 1203 1082 1158 1274 
Q 1114 1466 1114 1658 
Q 1114 1862 1155 2051 
Q 1197 2240 1289 2387 
Q 1382 2534 1536 2624 
Q 1690 2714 1914 2714 
Q 2138 2714 2285 2624 
Q 2432 2534 2525 2390 
Q 2618 2246 2656 2057 
Q 2694 1869 2694 1664 
z
M 2707 422 
L 2707 0 
L 3571 0 
L 3571 4570 
L 2662 4570 
L 2662 2906 
L 2650 2906 
Q 2496 3149 2230 3273 
Q 1965 3398 1670 3398 
Q 1306 3398 1030 3254 
Q 755 3110 572 2873 
Q 390 2637 297 2326 
Q 205 2016 205 1683 
Q 205 1338 297 1018 
Q 390 698 572 451 
Q 755 205 1036 61 
Q 1318 -83 1690 -83 
Q 2016 -83 2275 35 
Q 2534 154 2694 422 
L 2707 422 
z
" transform="scale(0.015625)"/>
      <path id="HelveticaNeue-Bold-3a" d="M 1395 2266 
L 1395 3251 
L 390 3251 
L 390 2266 
L 1395 2266 
z
M 390 986 
L 390 0 
L 1395 0 
L 1395 986 
L 390 986 
z
" transform="scale(0.015625)"/>
      <path id="HelveticaNeue-Bold-77" d="M 4128 0 
L 5171 3309 
L 4237 3309 
L 3629 1069 
L 3616 1069 
L 3053 3309 
L 2170 3309 
L 1619 1062 
L 1606 1062 
L 998 3309 
L 38 3309 
L 1088 0 
L 2029 0 
L 2592 2221 
L 2605 2221 
L 3194 0 
L 4128 0 
z
" transform="scale(0.015625)"/>
      <path id="HelveticaNeue-Bold-2a" d="M 1549 3770 
L 1549 4570 
L 1037 4570 
L 1037 3770 
L 314 4051 
L 141 3558 
L 883 3309 
L 410 2682 
L 838 2368 
L 1286 3027 
L 1760 2368 
L 2182 2682 
L 1709 3309 
L 2464 3558 
L 2291 4051 
L 1549 3770 
z
" transform="scale(0.015625)"/>
      <path id="HelveticaNeue-Bold-70" d="M 2016 595 
Q 1798 595 1644 684 
Q 1491 774 1398 918 
Q 1306 1062 1264 1254 
Q 1222 1446 1222 1645 
Q 1222 1850 1260 2042 
Q 1299 2234 1392 2381 
Q 1485 2528 1635 2621 
Q 1786 2714 2010 2714 
Q 2227 2714 2377 2621 
Q 2528 2528 2624 2377 
Q 2720 2227 2761 2035 
Q 2803 1843 2803 1645 
Q 2803 1446 2764 1254 
Q 2726 1062 2633 918 
Q 2541 774 2390 684 
Q 2240 595 2016 595 
z
M 346 3309 
L 346 -1158 
L 1254 -1158 
L 1254 410 
L 1267 410 
Q 1434 166 1693 41 
Q 1952 -83 2259 -83 
Q 2624 -83 2896 57 
Q 3168 198 3350 435 
Q 3533 672 3622 979 
Q 3712 1286 3712 1619 
Q 3712 1971 3622 2294 
Q 3533 2618 3347 2861 
Q 3162 3104 2880 3251 
Q 2598 3398 2208 3398 
Q 1901 3398 1645 3276 
Q 1389 3155 1222 2886 
L 1210 2886 
L 1210 3309 
L 346 3309 
z
" transform="scale(0.015625)"/>
     </defs>
     <use xlink:href="#HelveticaNeue-Bold-20"/>
     <use xlink:href="#HelveticaNeue-Bold-4d" x="27.799988"/>
     <use xlink:href="#HelveticaNeue-Bold-6f" x="118.499969"/>
     <use xlink:href="#HelveticaNeue-Bold-64" x="179.59996"/>
     <use xlink:href="#HelveticaNeue-Bold-65" x="240.699951"/>
     <use xlink:href="#HelveticaNeue-Bold-6c" x="298.099945"/>
     <use xlink:href="#HelveticaNeue-Bold-3a" x="323.899933"/>
     <use xlink:href="#HelveticaNeue-Bold-20" x="351.699921"/>
     <use xlink:href="#HelveticaNeue-Bold-77" x="379.499908"/>
     <use xlink:href="#HelveticaNeue-Bold-61" x="460.899902"/>
     <use xlink:href="#HelveticaNeue-Bold-62" x="518.299896"/>
     <use xlink:href="#HelveticaNeue-Bold-73" x="579.399887"/>
     <use xlink:href="#HelveticaNeue-Bold-2a" x="633.099884"/>
     <use xlink:href="#HelveticaNeue-Bold-70" x="673.799881"/>
     <use xlink:href="#HelveticaNeue-Bold-6f" x="734.899872"/>
     <use xlink:href="#HelveticaNeue-Bold-77" x="795.999863"/>
     <use xlink:href="#HelveticaNeue-Bold-65" x="877.399857"/>
     <use xlink:href="#HelveticaNeue-Bold-72" x="934.79985"/>
     <use xlink:href="#HelveticaNeue-Bold-6c" x="973.699844"/>
     <use xlink:href="#HelveticaNeue-Bold-61" x="999.499832"/>
     <use xlink:href="#HelveticaNeue-Bold-77" x="1056.899826"/>
    </g>
   </g>
   <g id="legend_1">
    <g id="patch_8">
     <path d="M 392.668906 77.5825 
L 503.925781 77.5825 
Q 507.525781 77.5825 507.525781 73.9825 
L 507.525781 50.509375 
Q 507.525781 46.909375 503.925781 46.909375 
L 392.668906 46.909375 
Q 389.068906 46.909375 389.068906 50.509375 
L 389.068906 73.9825 
Q 389.068906 77.5825 392.668906 77.5825 
z
" style="fill: #ffffff; opacity: 0.9; stroke: #cccccc; stroke-linejoin: miter"/>
    </g>
    <g id="line2d_101">
     <path d="M 401.668906 60.6625 
L 414.268906 60.6625 
L 426.868906 60.6625 
" style="fill: none; stroke-dasharray: 11.1,4.8; stroke-dashoffset: 0; stroke: #0000ff; stroke-width: 3"/>
    </g>
    <g id="text_15">
     <!-- Best fit -->
     <g transform="translate(446.668906 66.9625) scale(0.18 -0.18)">
      <defs>
       <path id="HelveticaNeue-Light-42" d="M 896 2566 
L 896 4198 
L 2394 4198 
Q 3424 4198 3424 3341 
Q 3424 3181 3360 3040 
Q 3296 2899 3168 2793 
Q 3040 2688 2848 2627 
Q 2656 2566 2394 2566 
L 896 2566 
z
M 461 4570 
L 461 0 
L 2394 0 
Q 2765 0 3030 67 
Q 3296 134 3478 240 
Q 3661 346 3769 486 
Q 3878 627 3936 771 
Q 3994 915 4013 1052 
Q 4032 1190 4032 1299 
Q 4032 1747 3769 2051 
Q 3507 2355 3066 2413 
L 3066 2426 
Q 3245 2464 3389 2560 
Q 3533 2656 3638 2793 
Q 3744 2931 3801 3100 
Q 3859 3270 3859 3450 
Q 3859 3770 3737 3984 
Q 3616 4198 3414 4329 
Q 3213 4461 2947 4515 
Q 2682 4570 2394 4570 
L 461 4570 
z
M 896 371 
L 896 2195 
L 2394 2195 
Q 2976 2195 3286 1974 
Q 3597 1754 3597 1312 
Q 3597 1037 3501 854 
Q 3405 672 3238 563 
Q 3072 454 2854 412 
Q 2637 371 2394 371 
L 896 371 
z
" transform="scale(0.015625)"/>
       <path id="HelveticaNeue-Light-65" d="M 2758 1882 
L 621 1882 
Q 646 2106 726 2320 
Q 806 2534 940 2697 
Q 1075 2861 1267 2960 
Q 1459 3059 1709 3059 
Q 1952 3059 2144 2960 
Q 2336 2861 2470 2697 
Q 2605 2534 2678 2323 
Q 2752 2112 2758 1882 
z
M 621 1542 
L 3162 1542 
Q 3174 1888 3097 2224 
Q 3021 2560 2845 2819 
Q 2669 3078 2387 3238 
Q 2106 3398 1709 3398 
Q 1318 3398 1033 3248 
Q 749 3098 569 2851 
Q 390 2605 304 2291 
Q 218 1978 218 1651 
Q 218 1299 304 982 
Q 390 666 569 426 
Q 749 186 1033 48 
Q 1318 -90 1709 -90 
Q 2336 -90 2678 217 
Q 3021 525 3149 1088 
L 2746 1088 
Q 2650 704 2400 473 
Q 2150 243 1709 243 
Q 1421 243 1216 364 
Q 1011 486 876 672 
Q 742 858 681 1091 
Q 621 1325 621 1542 
z
" transform="scale(0.015625)"/>
       <path id="HelveticaNeue-Light-73" d="M 2362 2336 
L 2765 2336 
Q 2752 2605 2656 2803 
Q 2560 3002 2397 3136 
Q 2234 3270 2019 3334 
Q 1805 3398 1555 3398 
Q 1338 3398 1117 3347 
Q 896 3296 717 3187 
Q 538 3078 426 2899 
Q 314 2720 314 2470 
Q 314 2259 384 2115 
Q 454 1971 579 1872 
Q 704 1773 870 1705 
Q 1037 1638 1235 1587 
L 1754 1472 
Q 1888 1440 2019 1395 
Q 2150 1350 2252 1283 
Q 2355 1216 2416 1117 
Q 2477 1018 2477 870 
Q 2477 698 2390 579 
Q 2304 461 2169 384 
Q 2035 307 1878 275 
Q 1722 243 1574 243 
Q 1171 243 899 451 
Q 627 659 602 1069 
L 198 1069 
Q 250 461 611 185 
Q 973 -90 1555 -90 
Q 1786 -90 2022 -38 
Q 2259 13 2448 131 
Q 2637 250 2758 438 
Q 2880 627 2880 896 
Q 2880 1114 2797 1274 
Q 2714 1434 2582 1542 
Q 2451 1651 2281 1718 
Q 2112 1786 1939 1811 
L 1402 1933 
Q 1299 1958 1177 2000 
Q 1056 2042 953 2106 
Q 851 2170 784 2262 
Q 717 2355 717 2490 
Q 717 2650 787 2758 
Q 858 2867 973 2934 
Q 1088 3002 1225 3030 
Q 1363 3059 1498 3059 
Q 1670 3059 1824 3017 
Q 1978 2976 2096 2886 
Q 2214 2797 2284 2659 
Q 2355 2522 2362 2336 
z
" transform="scale(0.015625)"/>
       <path id="HelveticaNeue-Light-74" d="M 1024 3302 
L 1024 4294 
L 621 4294 
L 621 3302 
L 45 3302 
L 45 2963 
L 621 2963 
L 621 704 
Q 614 282 774 125 
Q 934 -32 1338 -32 
Q 1427 -32 1516 -25 
Q 1606 -19 1696 -19 
L 1696 320 
Q 1523 301 1350 301 
Q 1133 314 1078 426 
Q 1024 538 1024 736 
L 1024 2963 
L 1696 2963 
L 1696 3302 
L 1024 3302 
z
" transform="scale(0.015625)"/>
       <path id="HelveticaNeue-Light-20" transform="scale(0.015625)"/>
       <path id="HelveticaNeue-Light-66" d="M 1658 2963 
L 1658 3302 
L 1005 3302 
L 1005 3590 
Q 1005 3725 1011 3840 
Q 1018 3955 1059 4041 
Q 1101 4128 1190 4179 
Q 1280 4230 1446 4230 
Q 1517 4230 1587 4220 
Q 1658 4211 1741 4198 
L 1741 4544 
Q 1645 4557 1568 4563 
Q 1491 4570 1402 4570 
Q 1158 4570 1001 4499 
Q 845 4429 755 4301 
Q 666 4173 634 3993 
Q 602 3814 602 3603 
L 602 3302 
L 38 3302 
L 38 2963 
L 602 2963 
L 602 0 
L 1005 0 
L 1005 2963 
L 1658 2963 
z
" transform="scale(0.015625)"/>
       <path id="HelveticaNeue-Light-69" d="M 390 4570 
L 390 3923 
L 794 3923 
L 794 4570 
L 390 4570 
z
M 390 3302 
L 390 0 
L 794 0 
L 794 3302 
L 390 3302 
z
" transform="scale(0.015625)"/>
      </defs>
      <use xlink:href="#HelveticaNeue-Light-42"/>
      <use xlink:href="#HelveticaNeue-Light-65" x="66.699997"/>
      <use xlink:href="#HelveticaNeue-Light-73" x="118.599991"/>
      <use xlink:href="#HelveticaNeue-Light-74" x="166.699982"/>
      <use xlink:href="#HelveticaNeue-Light-20" x="196.299973"/>
      <use xlink:href="#HelveticaNeue-Light-66" x="224.09996"/>
      <use xlink:href="#HelveticaNeue-Light-69" x="249.999954"/>
      <use xlink:href="#HelveticaNeue-Light-74" x="268.499939"/>
     </g>
    </g>
   </g>
  </g>
 </g>
 <defs>
  <clipPath id="pb40a8d3856">
   <rect x="70.125781" y="37.909375" width="446.4" height="443.52"/>
  </clipPath>
 </defs>
</svg>
